<?xml version='1.0' encoding='utf-8'?>
<mlt title="Anonymous Submission" LC_NUMERIC="de_DE.UTF-8" producer="main_bin" version="6.20.0" root="/home/benz/coding/studium/GradeMe/Promo/Video-Teaser">
 <profile frame_rate_num="50" sample_aspect_num="1" display_aspect_den="9" colorspace="709" progressive="1" description="2.5K QHD 1440p 50 fps" display_aspect_num="16" frame_rate_den="1" width="2560" height="1440" sample_aspect_den="1"/>
 <producer title="Anonymous Submission" id="producer0" in="00:00:00,000" out="00:01:42,000">
  <property name="length">5101</property>
  <property name="eof">pause</property>
  <property name="resource">assets/infraction-dropyoulike/Infraction-[NoCopyrightMusic]_Drop_You_Like.webm</property>
  <property name="meta.media.nb_streams">1</property>
  <property name="meta.media.0.stream.type">audio</property>
  <property name="meta.media.0.codec.sample_fmt">fltp</property>
  <property name="meta.media.0.codec.sample_rate">48000</property>
  <property name="meta.media.0.codec.channels">2</property>
  <property name="meta.media.0.codec.name">opus</property>
  <property name="meta.media.0.codec.long_name">Opus</property>
  <property name="meta.media.0.codec.bit_rate">0</property>
  <property name="meta.attr.0.stream.language.markup">eng</property>
  <property name="meta.attr.encoder.markup">google/video-file</property>
  <property name="seekable">1</property>
  <property name="audio_index">0</property>
  <property name="video_index">-1</property>
  <property name="mute_on_pause">1</property>
  <property name="mlt_service">avformat</property>
  <property name="kdenlive:clipname"/>
  <property name="kdenlive:folderid">-1</property>
  <property name="kdenlive:id">2</property>
  <property name="kdenlive:file_size">1764830</property>
  <property name="kdenlive:file_hash">187edbda484154d30c894afdb3347be9</property>
  <property name="global_feed">1</property>
 </producer>
 <producer id="producer1" in="00:00:00,000" out="00:01:44,980">
  <property name="length">00:01:45,000</property>
  <property name="eof">pause</property>
  <property name="resource">0x80ffffff</property>
  <property name="aspect_ratio">1</property>
  <property name="mlt_service">color</property>
  <property name="kdenlive:clipname">Color Clip</property>
  <property name="kdenlive:duration">00:01:45,000</property>
  <property name="kdenlive:folderid">-1</property>
  <property name="kdenlive:id">3</property>
  <property name="kdenlive:file_hash">25013e1e6bf23b6526f6524d4fb1116c</property>
 </producer>
 <producer id="producer3" in="00:00:00,000" out="00:01:45,880">
  <property name="length">5295</property>
  <property name="eof">pause</property>
  <property name="resource">assets/background/background.png</property>
  <property name="ttl">25</property>
  <property name="aspect_ratio">1</property>
  <property name="progressive">1</property>
  <property name="seekable">1</property>
  <property name="meta.media.width">1920</property>
  <property name="meta.media.height">1080</property>
  <property name="mlt_service">qimage</property>
  <property name="kdenlive:clipname"/>
  <property name="kdenlive:duration">00:00:05,000</property>
  <property name="kdenlive:folderid">-1</property>
  <property name="kdenlive:id">5</property>
  <property name="kdenlive:file_size">43880</property>
  <property name="kdenlive:file_hash">a3ac5059f527648cdce7768d32cba9e9</property>
 </producer>
 <producer title="Anonymous Submission" id="producer2" in="00:00:00,000" out="00:00:07,960">
  <property name="length">399</property>
  <property name="eof">pause</property>
  <property name="resource"/>
  <property name="progressive">1</property>
  <property name="aspect_ratio">1</property>
  <property name="seekable">1</property>
  <property name="mlt_service">kdenlivetitle</property>
  <property name="kdenlive:duration">250</property>
  <property name="kdenlive:clipname">Klassenbücher</property>
  <property name="xmldata">&lt;kdenlivetitle duration="250" LC_NUMERIC="de_DE.UTF-8" width="2560" height="1440" out="249">
 &lt;item type="QGraphicsTextItem" z-index="0">
  &lt;position x="302" y="740">
   &lt;transform>1,0,0,0,1,0,0,0,1&lt;/transform>
  &lt;/position>
  &lt;content shadow="0;#64000000;3;3;3" font-underline="0" box-height="165" font="Noto Sans" letter-spacing="0" font-pixel-size="120" font-italic="0" alignment="2" font-weight="75" box-width="878.375" font-color="255,255,255,255">Klassenbücher&lt;/content>
 &lt;/item>
 &lt;startviewport rect="0,0,2560,1440"/>
 &lt;endviewport rect="0,0,2560,1440"/>
 &lt;background color="0,0,0,0"/>
&lt;/kdenlivetitle>
</property>
  <property name="kdenlive:folderid">14</property>
  <property name="kdenlive:id">4</property>
  <property name="kdenlive:file_hash">63f8b16ad5874e769cd7aae10480b232</property>
  <property name="force_reload">0</property>
  <property name="meta.media.width">2560</property>
  <property name="meta.media.height">1440</property>
  <property name="global_feed">1</property>
 </producer>
 <producer id="producer7" in="00:00:00,000" out="00:00:04,980">
  <property name="length">250</property>
  <property name="eof">pause</property>
  <property name="resource"/>
  <property name="progressive">1</property>
  <property name="aspect_ratio">1</property>
  <property name="seekable">1</property>
  <property name="mlt_service">kdenlivetitle</property>
  <property name="kdenlive:duration">250</property>
  <property name="kdenlive:clipname">intransparent</property>
  <property name="xmldata">&lt;kdenlivetitle duration="250" LC_NUMERIC="de_DE.UTF-8" width="2560" height="1440" out="249">
 &lt;item type="QGraphicsTextItem" z-index="0">
  &lt;position x="297" y="740">
   &lt;transform>1,0,0,0,1,0,0,0,1&lt;/transform>
  &lt;/position>
  &lt;content shadow="0;#64000000;3;3;3" font-underline="0" box-height="165" font="Noto Sans" letter-spacing="0" font-pixel-size="120" font-italic="0" alignment="2" font-weight="75" box-width="832.781" font-color="255,255,255,255">intransparent&lt;/content>
 &lt;/item>
 &lt;startviewport rect="0,0,2560,1440"/>
 &lt;endviewport rect="0,0,2560,1440"/>
 &lt;background color="0,0,0,0"/>
&lt;/kdenlivetitle>
</property>
  <property name="kdenlive:folderid">14</property>
  <property name="kdenlive:id">9</property>
  <property name="kdenlive:file_hash">ab82a5475080d7efea90206409c0f1f9</property>
  <property name="force_reload">0</property>
  <property name="global_feed">1</property>
  <property name="meta.media.width">2560</property>
  <property name="meta.media.height">1440</property>
 </producer>
 <producer title="Anonymous Submission" id="producer4" in="00:00:00,000" out="00:00:07,960">
  <property name="length">399</property>
  <property name="eof">pause</property>
  <property name="resource"/>
  <property name="progressive">1</property>
  <property name="aspect_ratio">1</property>
  <property name="seekable">1</property>
  <property name="mlt_service">kdenlivetitle</property>
  <property name="kdenlive:duration">250</property>
  <property name="kdenlive:clipname">sind</property>
  <property name="xmldata">&lt;kdenlivetitle duration="250" LC_NUMERIC="de_DE.UTF-8" width="2560" height="1440" out="249">
 &lt;item type="QGraphicsTextItem" z-index="0">
  &lt;position x="302" y="740">
   &lt;transform>1,0,0,0,1,0,0,0,1&lt;/transform>
  &lt;/position>
  &lt;content shadow="0;#64000000;3;3;3" font-underline="0" box-height="165" font="Noto Sans" letter-spacing="0" font-pixel-size="120" font-italic="0" alignment="2" font-weight="75" box-width="251" font-color="255,255,255,255">sind&lt;/content>
 &lt;/item>
 &lt;startviewport rect="0,0,2560,1440"/>
 &lt;endviewport rect="0,0,2560,1440"/>
 &lt;background color="0,0,0,0"/>
&lt;/kdenlivetitle>
</property>
  <property name="kdenlive:folderid">14</property>
  <property name="kdenlive:id">6</property>
  <property name="kdenlive:file_hash">491def6d2fa50789a16bc9649ca54d53</property>
  <property name="force_reload">0</property>
  <property name="global_feed">1</property>
  <property name="meta.media.width">2560</property>
  <property name="meta.media.height">1440</property>
 </producer>
 <producer title="Anonymous Submission" id="producer6" in="00:00:00,000" out="00:00:04,980">
  <property name="length">250</property>
  <property name="eof">pause</property>
  <property name="resource"/>
  <property name="progressive">1</property>
  <property name="aspect_ratio">1</property>
  <property name="seekable">1</property>
  <property name="mlt_service">kdenlivetitle</property>
  <property name="kdenlive:duration">250</property>
  <property name="kdenlive:clipname">unsicher</property>
  <property name="xmldata">&lt;kdenlivetitle duration="250" LC_NUMERIC="de_DE.UTF-8" width="2560" height="1440" out="249">
 &lt;item type="QGraphicsTextItem" z-index="0">
  &lt;position x="297" y="740">
   &lt;transform>1,0,0,0,1,0,0,0,1&lt;/transform>
  &lt;/position>
  &lt;content shadow="0;#64000000;3;3;3" font-underline="0" box-height="165" font="Noto Sans" letter-spacing="0" font-pixel-size="120" font-italic="0" alignment="2" font-weight="75" box-width="519.75" font-color="255,255,255,255">unsicher&lt;/content>
 &lt;/item>
 &lt;startviewport rect="0,0,2560,1440"/>
 &lt;endviewport rect="0,0,2560,1440"/>
 &lt;background color="0,0,0,0"/>
&lt;/kdenlivetitle>
</property>
  <property name="kdenlive:folderid">14</property>
  <property name="kdenlive:id">8</property>
  <property name="kdenlive:file_hash">ab82a5475080d7efea90206409c0f1f9</property>
  <property name="force_reload">0</property>
  <property name="global_feed">1</property>
  <property name="meta.media.width">2560</property>
  <property name="meta.media.height">1440</property>
 </producer>
 <producer title="Anonymous Submission" id="producer5" in="00:00:00,000" out="00:00:04,980">
  <property name="length">250</property>
  <property name="eof">pause</property>
  <property name="resource"/>
  <property name="progressive">1</property>
  <property name="aspect_ratio">1</property>
  <property name="seekable">1</property>
  <property name="mlt_service">kdenlivetitle</property>
  <property name="kdenlive:duration">250</property>
  <property name="kdenlive:clipname">ineffizient</property>
  <property name="xmldata">&lt;kdenlivetitle duration="250" LC_NUMERIC="de_DE.UTF-8" width="2560" height="1440" out="249">
 &lt;item type="QGraphicsTextItem" z-index="0">
  &lt;position x="297" y="740">
   &lt;transform>1,0,0,0,1,0,0,0,1&lt;/transform>
  &lt;/position>
  &lt;content shadow="0;#64000000;3;3;3" font-underline="0" box-height="165" font="Noto Sans" letter-spacing="0" font-pixel-size="120" font-italic="0" alignment="2" font-weight="75" box-width="612.75" font-color="255,255,255,255">ineffizient&lt;/content>
 &lt;/item>
 &lt;startviewport rect="0,0,2560,1440"/>
 &lt;endviewport rect="0,0,2560,1440"/>
 &lt;background color="0,0,0,0"/>
&lt;/kdenlivetitle>
</property>
  <property name="kdenlive:folderid">14</property>
  <property name="kdenlive:id">7</property>
  <property name="kdenlive:file_hash">f235f7d0f37d82e0c69e7149f3c68673</property>
  <property name="force_reload">0</property>
  <property name="global_feed">1</property>
  <property name="meta.media.width">2560</property>
  <property name="meta.media.height">1440</property>
 </producer>
 <producer id="producer8" in="00:00:00,000" out="00:00:04,980">
  <property name="length">250</property>
  <property name="eof">pause</property>
  <property name="resource"/>
  <property name="progressive">1</property>
  <property name="aspect_ratio">1</property>
  <property name="seekable">1</property>
  <property name="mlt_service">kdenlivetitle</property>
  <property name="kdenlive:duration">250</property>
  <property name="kdenlive:clipname">fehleranfällig</property>
  <property name="xmldata">&lt;kdenlivetitle duration="250" LC_NUMERIC="de_DE.UTF-8" width="2560" height="1440" out="249">
 &lt;item type="QGraphicsTextItem" z-index="0">
  &lt;position x="297" y="740">
   &lt;transform>1,0,0,0,1,0,0,0,1&lt;/transform>
  &lt;/position>
  &lt;content shadow="0;#64000000;3;3;3" font-underline="0" box-height="165" font="Noto Sans" letter-spacing="0" font-pixel-size="120" font-italic="0" alignment="2" font-weight="75" box-width="811.672" font-color="255,255,255,255">fehleranfällig&lt;/content>
 &lt;/item>
 &lt;startviewport rect="0,0,2560,1440"/>
 &lt;endviewport rect="0,0,2560,1440"/>
 &lt;background color="0,0,0,0"/>
&lt;/kdenlivetitle>
</property>
  <property name="kdenlive:folderid">14</property>
  <property name="kdenlive:id">10</property>
  <property name="kdenlive:file_hash">671366145bbc97f73533c56dc7d589ac</property>
  <property name="force_reload">0</property>
  <property name="global_feed">1</property>
  <property name="meta.media.width">2560</property>
  <property name="meta.media.height">1440</property>
 </producer>
 <producer title="Anonymous Submission" id="producer9" in="00:00:00,000" out="00:00:07,960">
  <property name="length">399</property>
  <property name="eof">pause</property>
  <property name="resource"/>
  <property name="progressive">1</property>
  <property name="aspect_ratio">1</property>
  <property name="seekable">1</property>
  <property name="mlt_service">kdenlivetitle</property>
  <property name="kdenlive:duration">250</property>
  <property name="kdenlive:clipname">wir</property>
  <property name="xmldata">&lt;kdenlivetitle duration="250" LC_NUMERIC="de_DE.UTF-8" width="2560" height="1440" out="249">
 &lt;item type="QGraphicsTextItem" z-index="0">
  &lt;position x="302" y="740">
   &lt;transform>1,0,0,0,1,0,0,0,1&lt;/transform>
  &lt;/position>
  &lt;content shadow="0;#64000000;3;3;3" font-underline="0" box-height="165" font="Noto Sans" letter-spacing="0" font-pixel-size="120" font-italic="0" alignment="2" font-weight="75" box-width="193.781" font-color="255,255,255,255">wir&lt;/content>
 &lt;/item>
 &lt;startviewport rect="0,0,2560,1440"/>
 &lt;endviewport rect="0,0,2560,1440"/>
 &lt;background color="0,0,0,0"/>
&lt;/kdenlivetitle>
</property>
  <property name="kdenlive:folderid">15</property>
  <property name="kdenlive:id">13</property>
  <property name="kdenlive:file_hash">0e62fc90086586a8574a8d1d6499ceb4</property>
  <property name="force_reload">0</property>
  <property name="global_feed">1</property>
  <property name="meta.media.width">2560</property>
  <property name="meta.media.height">1440</property>
 </producer>
 <producer title="Anonymous Submission" id="producer10" in="00:00:00,000" out="00:00:07,960">
  <property name="length">399</property>
  <property name="eof">pause</property>
  <property name="resource"/>
  <property name="progressive">1</property>
  <property name="aspect_ratio">1</property>
  <property name="seekable">1</property>
  <property name="mlt_service">kdenlivetitle</property>
  <property name="kdenlive:duration">250</property>
  <property name="kdenlive:clipname">präsentieren</property>
  <property name="xmldata">&lt;kdenlivetitle duration="250" LC_NUMERIC="de_DE.UTF-8" width="2560" height="1440" out="249">
 &lt;item type="QGraphicsTextItem" z-index="0">
  &lt;position x="302" y="740">
   &lt;transform>1,0,0,0,1,0,0,0,1&lt;/transform>
  &lt;/position>
  &lt;content shadow="0;#64000000;3;3;3" font-underline="0" box-height="165" font="Noto Sans" letter-spacing="0" font-pixel-size="120" font-italic="0" alignment="2" font-weight="75" box-width="771.219" font-color="255,255,255,255">präsentieren&lt;/content>
 &lt;/item>
 &lt;startviewport rect="0,0,2560,1440"/>
 &lt;endviewport rect="0,0,2560,1440"/>
 &lt;background color="0,0,0,0"/>
&lt;/kdenlivetitle>
</property>
  <property name="kdenlive:folderid">15</property>
  <property name="kdenlive:id">12</property>
  <property name="kdenlive:file_hash">66b016ed02bf06c21c8dfac9a7397e2f</property>
  <property name="force_reload">0</property>
  <property name="global_feed">1</property>
  <property name="meta.media.width">2560</property>
  <property name="meta.media.height">1440</property>
 </producer>
 <producer title="Anonymous Submission" id="producer11" in="00:00:00,000" out="00:00:07,960">
  <property name="length">399</property>
  <property name="eof">pause</property>
  <property name="resource"/>
  <property name="progressive">1</property>
  <property name="aspect_ratio">1</property>
  <property name="seekable">1</property>
  <property name="mlt_service">kdenlivetitle</property>
  <property name="kdenlive:duration">250</property>
  <property name="kdenlive:clipname">Darum</property>
  <property name="xmldata">&lt;kdenlivetitle duration="250" LC_NUMERIC="de_DE.UTF-8" width="2560" height="1440" out="249">
 &lt;item type="QGraphicsTextItem" z-index="0">
  &lt;position x="302" y="740">
   &lt;transform>1,0,0,0,1,0,0,0,1&lt;/transform>
  &lt;/position>
  &lt;content shadow="0;#64000000;3;3;3" font-underline="0" box-height="165" font="Noto Sans" letter-spacing="0" font-pixel-size="120" font-italic="0" alignment="2" font-weight="75" box-width="412.391" font-color="255,255,255,255">Darum&lt;/content>
 &lt;/item>
 &lt;startviewport rect="0,0,2560,1440"/>
 &lt;endviewport rect="0,0,2560,1440"/>
 &lt;background color="0,0,0,0"/>
&lt;/kdenlivetitle>
</property>
  <property name="kdenlive:folderid">15</property>
  <property name="kdenlive:id">11</property>
  <property name="kdenlive:file_hash">491def6d2fa50789a16bc9649ca54d53</property>
  <property name="force_reload">0</property>
  <property name="global_feed">1</property>
  <property name="meta.media.width">2560</property>
  <property name="meta.media.height">1440</property>
 </producer>
 <producer title="Anonymous Submission" id="producer12" in="00:00:00,000" out="00:00:07,960">
  <property name="length">399</property>
  <property name="eof">pause</property>
  <property name="resource"/>
  <property name="progressive">1</property>
  <property name="aspect_ratio">1</property>
  <property name="seekable">1</property>
  <property name="mlt_service">kdenlivetitle</property>
  <property name="kdenlive:duration">250</property>
  <property name="kdenlive:clipname">G</property>
  <property name="xmldata">&lt;kdenlivetitle duration="250" LC_NUMERIC="de_DE.UTF-8" width="2560" height="1440" out="249">
 &lt;item type="QGraphicsTextItem" z-index="0">
  &lt;position x="1208" y="583">
   &lt;transform>1,0,0,0,1,0,0,0,1&lt;/transform>
  &lt;/position>
  &lt;content line-spacing="0" shadow="0;#64000000;3;3;3" font-underline="0" box-height="273" font-outline-color="0,0,0,255" font="Noto Sans" letter-spacing="0" font-pixel-size="200" font-italic="0" alignment="2" font-weight="75" font-outline="0" box-width="144.797" font-color="255,255,255,255">G&lt;/content>
 &lt;/item>
 &lt;startviewport rect="0,0,2560,1440"/>
 &lt;endviewport rect="0,0,2560,1440"/>
 &lt;background color="0,0,0,0"/>
&lt;/kdenlivetitle>
</property>
  <property name="kdenlive:folderid">16</property>
  <property name="kdenlive:id">17</property>
  <property name="kdenlive:file_hash">b1b78809b673ef495cf4f5abed4ac03c</property>
  <property name="force_reload">0</property>
  <property name="global_feed">1</property>
  <property name="meta.media.width">2560</property>
  <property name="meta.media.height">1440</property>
 </producer>
 <producer title="Anonymous Submission" id="producer13" in="00:00:00,000" out="00:00:07,960">
  <property name="length">399</property>
  <property name="eof">pause</property>
  <property name="resource"/>
  <property name="progressive">1</property>
  <property name="aspect_ratio">1</property>
  <property name="seekable">1</property>
  <property name="mlt_service">kdenlivetitle</property>
  <property name="kdenlive:duration">250</property>
  <property name="kdenlive:clipname">r</property>
  <property name="xmldata">&lt;kdenlivetitle duration="250" LC_NUMERIC="de_DE.UTF-8" width="2560" height="1440" out="249">
 &lt;item type="QGraphicsTextItem" z-index="0">
  &lt;position x="1235" y="583">
   &lt;transform>1,0,0,0,1,0,0,0,1&lt;/transform>
  &lt;/position>
  &lt;content line-spacing="0" shadow="0;#64000000;3;3;3" font-underline="0" box-height="273" font-outline-color="0,0,0,255" font="Noto Sans" letter-spacing="0" font-pixel-size="200" font-italic="0" alignment="2" font-weight="75" font-outline="0" box-width="90.7969" font-color="255,255,255,255">r&lt;/content>
 &lt;/item>
 &lt;startviewport rect="0,0,2560,1440"/>
 &lt;endviewport rect="0,0,2560,1440"/>
 &lt;background color="0,0,0,0"/>
&lt;/kdenlivetitle>
</property>
  <property name="kdenlive:folderid">16</property>
  <property name="kdenlive:id">18</property>
  <property name="kdenlive:file_hash">8b5133ab5c593a58ca6830d2267b9cfc</property>
  <property name="force_reload">0</property>
  <property name="global_feed">1</property>
  <property name="meta.media.width">2560</property>
  <property name="meta.media.height">1440</property>
 </producer>
 <producer title="Anonymous Submission" id="producer14" in="00:00:00,000" out="00:00:07,960">
  <property name="length">399</property>
  <property name="eof">pause</property>
  <property name="resource"/>
  <property name="progressive">1</property>
  <property name="aspect_ratio">1</property>
  <property name="seekable">1</property>
  <property name="mlt_service">kdenlivetitle</property>
  <property name="kdenlive:duration">250</property>
  <property name="kdenlive:clipname">a</property>
  <property name="xmldata">&lt;kdenlivetitle duration="250" LC_NUMERIC="de_DE.UTF-8" width="2560" height="1440" out="249">
 &lt;item type="QGraphicsTextItem" z-index="0">
  &lt;position x="1220" y="583">
   &lt;transform>1,0,0,0,1,0,0,0,1&lt;/transform>
  &lt;/position>
  &lt;content line-spacing="0" shadow="0;#64000000;3;3;3" font-underline="0" box-height="273" font-outline-color="0,0,0,255" font="Noto Sans" letter-spacing="0" font-pixel-size="200" font-italic="0" alignment="2" font-weight="75" font-outline="0" box-width="120.797" font-color="255,255,255,255">a&lt;/content>
 &lt;/item>
 &lt;startviewport rect="0,0,2560,1440"/>
 &lt;endviewport rect="0,0,2560,1440"/>
 &lt;background color="0,0,0,0"/>
&lt;/kdenlivetitle>
</property>
  <property name="kdenlive:folderid">16</property>
  <property name="kdenlive:id">19</property>
  <property name="kdenlive:file_hash">8b5133ab5c593a58ca6830d2267b9cfc</property>
  <property name="force_reload">0</property>
  <property name="global_feed">1</property>
  <property name="meta.media.width">2560</property>
  <property name="meta.media.height">1440</property>
 </producer>
 <producer title="Anonymous Submission" id="producer15" in="00:00:00,000" out="00:00:07,960">
  <property name="length">399</property>
  <property name="eof">pause</property>
  <property name="resource"/>
  <property name="progressive">1</property>
  <property name="aspect_ratio">1</property>
  <property name="seekable">1</property>
  <property name="mlt_service">kdenlivetitle</property>
  <property name="kdenlive:duration">250</property>
  <property name="kdenlive:clipname">d</property>
  <property name="xmldata">&lt;kdenlivetitle duration="250" LC_NUMERIC="de_DE.UTF-8" width="2560" height="1440" out="249">
 &lt;item type="QGraphicsTextItem" z-index="0">
  &lt;position x="1217" y="583">
   &lt;transform>1,0,0,0,1,0,0,0,1&lt;/transform>
  &lt;/position>
  &lt;content line-spacing="0" shadow="0;#64000000;3;3;3" font-underline="0" box-height="273" font-outline-color="0,0,0,255" font="Noto Sans" letter-spacing="0" font-pixel-size="200" font-italic="0" alignment="2" font-weight="75" font-outline="0" box-width="126.594" font-color="255,255,255,255">d&lt;/content>
 &lt;/item>
 &lt;startviewport rect="0,0,2560,1440"/>
 &lt;endviewport rect="0,0,2560,1440"/>
 &lt;background color="0,0,0,0"/>
&lt;/kdenlivetitle>
</property>
  <property name="kdenlive:folderid">16</property>
  <property name="kdenlive:id">20</property>
  <property name="kdenlive:file_hash">8b5133ab5c593a58ca6830d2267b9cfc</property>
  <property name="force_reload">0</property>
  <property name="global_feed">1</property>
  <property name="meta.media.width">2560</property>
  <property name="meta.media.height">1440</property>
 </producer>
 <producer title="Anonymous Submission" id="producer16" in="00:00:00,000" out="00:00:07,960">
  <property name="length">399</property>
  <property name="eof">pause</property>
  <property name="resource"/>
  <property name="progressive">1</property>
  <property name="aspect_ratio">1</property>
  <property name="seekable">1</property>
  <property name="mlt_service">kdenlivetitle</property>
  <property name="kdenlive:duration">250</property>
  <property name="kdenlive:clipname">e</property>
  <property name="xmldata">&lt;kdenlivetitle duration="250" LC_NUMERIC="de_DE.UTF-8" width="2560" height="1440" out="249">
 &lt;item type="QGraphicsTextItem" z-index="0">
  &lt;position x="1221" y="583">
   &lt;transform>1,0,0,0,1,0,0,0,1&lt;/transform>
  &lt;/position>
  &lt;content line-spacing="0" shadow="0;#64000000;3;3;3" font-underline="0" box-height="273" font-outline-color="0,0,0,255" font="Noto Sans" letter-spacing="0" font-pixel-size="200" font-italic="0" alignment="2" font-weight="75" font-outline="0" box-width="118.188" font-color="255,255,255,255">e&lt;/content>
 &lt;/item>
 &lt;startviewport rect="0,0,2560,1440"/>
 &lt;endviewport rect="0,0,2560,1440"/>
 &lt;background color="0,0,0,0"/>
&lt;/kdenlivetitle>
</property>
  <property name="kdenlive:folderid">16</property>
  <property name="kdenlive:id">21</property>
  <property name="kdenlive:file_hash">8b5133ab5c593a58ca6830d2267b9cfc</property>
  <property name="force_reload">0</property>
  <property name="global_feed">1</property>
  <property name="meta.media.width">2560</property>
  <property name="meta.media.height">1440</property>
 </producer>
 <producer title="Anonymous Submission" id="producer17" in="00:00:00,000" out="00:00:07,960">
  <property name="length">399</property>
  <property name="eof">pause</property>
  <property name="resource"/>
  <property name="progressive">1</property>
  <property name="aspect_ratio">1</property>
  <property name="seekable">1</property>
  <property name="mlt_service">kdenlivetitle</property>
  <property name="kdenlive:duration">250</property>
  <property name="kdenlive:clipname">M</property>
  <property name="xmldata">&lt;kdenlivetitle duration="250" LC_NUMERIC="de_DE.UTF-8" width="2560" height="1440" out="249">
 &lt;item type="QGraphicsTextItem" z-index="0">
  &lt;position x="1186" y="583">
   &lt;transform>1,0,0,0,1,0,0,0,1&lt;/transform>
  &lt;/position>
  &lt;content line-spacing="0" shadow="0;#64000000;3;3;3" font-underline="0" box-height="273" font-outline-color="0,0,0,255" font="Noto Sans" letter-spacing="0" font-pixel-size="200" font-italic="0" alignment="2" font-weight="75" font-outline="0" box-width="188.594" font-color="255,255,255,255">M&lt;/content>
 &lt;/item>
 &lt;startviewport rect="0,0,2560,1440"/>
 &lt;endviewport rect="0,0,2560,1440"/>
 &lt;background color="0,0,0,0"/>
&lt;/kdenlivetitle>
</property>
  <property name="kdenlive:folderid">16</property>
  <property name="kdenlive:id">22</property>
  <property name="kdenlive:file_hash">8b5133ab5c593a58ca6830d2267b9cfc</property>
  <property name="force_reload">0</property>
  <property name="global_feed">1</property>
  <property name="meta.media.width">2560</property>
  <property name="meta.media.height">1440</property>
 </producer>
 <producer title="Anonymous Submission" id="producer18" in="00:00:00,000" out="00:00:07,960">
  <property name="length">399</property>
  <property name="eof">pause</property>
  <property name="resource"/>
  <property name="progressive">1</property>
  <property name="aspect_ratio">1</property>
  <property name="seekable">1</property>
  <property name="mlt_service">kdenlivetitle</property>
  <property name="kdenlive:duration">250</property>
  <property name="kdenlive:clipname">GradeMe</property>
  <property name="xmldata">&lt;kdenlivetitle duration="250" LC_NUMERIC="de_DE.UTF-8" width="2560" height="1440" out="249">
 &lt;item type="QGraphicsTextItem" z-index="0">
  &lt;position x="828" y="583">
   &lt;transform>1,0,0,0,1,0,0,0,1&lt;/transform>
  &lt;/position>
  &lt;content line-spacing="0" shadow="0;#64000000;3;3;3" font-underline="0" box-height="273" font="Noto Sans" letter-spacing="0" font-pixel-size="200" font-italic="0" alignment="2" font-weight="75" box-width="903.953" font-color="255,255,255,255">GradeMe&lt;/content>
 &lt;/item>
 &lt;startviewport rect="0,0,2560,1440"/>
 &lt;endviewport rect="0,0,2560,1440"/>
 &lt;background color="0,0,0,0"/>
&lt;/kdenlivetitle>
</property>
  <property name="kdenlive:folderid">16</property>
  <property name="kdenlive:id">25</property>
  <property name="kdenlive:file_hash">69f3fad0acf8107c5da889d68ece8ffb</property>
  <property name="force_reload">0</property>
  <property name="global_feed">1</property>
  <property name="meta.media.width">2560</property>
  <property name="meta.media.height">1440</property>
 </producer>
 <producer id="producer19" in="00:00:00,000" out="00:00:07,960">
  <property name="length">399</property>
  <property name="eof">pause</property>
  <property name="resource"/>
  <property name="progressive">1</property>
  <property name="aspect_ratio">1</property>
  <property name="seekable">1</property>
  <property name="mlt_service">kdenlivetitle</property>
  <property name="kdenlive:duration">250</property>
  <property name="kdenlive:clipname">Das digitale Klassenbuch</property>
  <property name="xmldata">&lt;kdenlivetitle duration="250" LC_NUMERIC="de_DE.UTF-8" width="2560" height="1440" out="249">
 &lt;item type="QGraphicsTextItem" z-index="0">
  &lt;position x="533" y="637">
   &lt;transform>1,0,0,0,1,0,0,0,1&lt;/transform>
  &lt;/position>
  &lt;content line-spacing="0" shadow="0;#64000000;3;3;3" font-underline="0" box-height="165" font-outline-color="0,0,0,255" font="Noto Sans" letter-spacing="0" font-pixel-size="120" font-italic="0" alignment="2" font-weight="75" font-outline="0" box-width="1493.41" font-color="255,255,255,255">Das digitale Klassenbuch&lt;/content>
 &lt;/item>
 &lt;startviewport rect="0,0,2560,1440"/>
 &lt;endviewport rect="0,0,2560,1440"/>
 &lt;background color="0,0,0,0"/>
&lt;/kdenlivetitle>
</property>
  <property name="kdenlive:folderid">16</property>
  <property name="kdenlive:id">26</property>
  <property name="kdenlive:file_hash">e15214e62798336b768b62e69d9113f6</property>
  <property name="force_reload">0</property>
  <property name="global_feed">1</property>
  <property name="meta.media.width">2560</property>
  <property name="meta.media.height">1440</property>
 </producer>
 <producer title="Anonymous Submission" id="producer20" in="00:00:00,000" out="00:00:21,100">
  <property name="length">1056</property>
  <property name="eof">pause</property>
  <property name="resource"/>
  <property name="progressive">1</property>
  <property name="aspect_ratio">1</property>
  <property name="seekable">1</property>
  <property name="mlt_service">kdenlivetitle</property>
  <property name="kdenlive:duration">250</property>
  <property name="kdenlive:clipname">GradeMe</property>
  <property name="xmldata">&lt;kdenlivetitle duration="250" LC_NUMERIC="de_DE.UTF-8" width="2560" height="1440" out="249">
 &lt;item type="QGraphicsTextItem" z-index="0">
  &lt;position x="302" y="740">
   &lt;transform>1,0,0,0,1,0,0,0,1&lt;/transform>
  &lt;/position>
  &lt;content shadow="0;#64000000;3;3;3" font-underline="0" box-height="165" font="Noto Sans" letter-spacing="0" font-pixel-size="120" font-italic="0" alignment="2" font-weight="75" box-width="542.328" font-color="255,255,255,255">GradeMe&lt;/content>
 &lt;/item>
 &lt;startviewport rect="0,0,2560,1440"/>
 &lt;endviewport rect="0,0,2560,1440"/>
 &lt;background color="0,0,0,0"/>
&lt;/kdenlivetitle>
</property>
  <property name="kdenlive:folderid">23</property>
  <property name="kdenlive:id">24</property>
  <property name="kdenlive:file_hash">491def6d2fa50789a16bc9649ca54d53</property>
  <property name="force_reload">0</property>
  <property name="global_feed">1</property>
  <property name="meta.media.width">2560</property>
  <property name="meta.media.height">1440</property>
 </producer>
 <producer id="producer21" in="00:00:00,000" out="00:00:20,240">
  <property name="length">1013</property>
  <property name="eof">pause</property>
  <property name="resource"/>
  <property name="progressive">1</property>
  <property name="aspect_ratio">1</property>
  <property name="seekable">1</property>
  <property name="mlt_service">kdenlivetitle</property>
  <property name="kdenlive:duration">250</property>
  <property name="kdenlive:clipname">ist</property>
  <property name="xmldata">&lt;kdenlivetitle duration="250" LC_NUMERIC="de_DE.UTF-8" width="2560" height="1440" out="249">
 &lt;item type="QGraphicsTextItem" z-index="0">
  &lt;position x="302" y="740">
   &lt;transform>1,0,0,0,1,0,0,0,1&lt;/transform>
  &lt;/position>
  &lt;content shadow="0;#64000000;3;3;3" font-underline="0" box-height="165" font="Noto Sans" letter-spacing="0" font-pixel-size="120" font-italic="0" alignment="2" font-weight="75" box-width="148.297" font-color="255,255,255,255">ist&lt;/content>
 &lt;/item>
 &lt;startviewport rect="0,0,2560,1440"/>
 &lt;endviewport rect="0,0,2560,1440"/>
 &lt;background color="0,0,0,0"/>
&lt;/kdenlivetitle>
</property>
  <property name="kdenlive:folderid">23</property>
  <property name="kdenlive:id">27</property>
  <property name="kdenlive:file_hash">ee5257ced3139c1bba0be4de371aa28f</property>
  <property name="force_reload">0</property>
  <property name="global_feed">1</property>
  <property name="meta.media.width">2560</property>
  <property name="meta.media.height">1440</property>
 </producer>
 <producer title="Anonymous Submission" id="producer22" in="00:00:00,000" out="00:00:08,480">
  <property name="length">425</property>
  <property name="eof">pause</property>
  <property name="resource"/>
  <property name="progressive">1</property>
  <property name="aspect_ratio">1</property>
  <property name="seekable">1</property>
  <property name="mlt_service">kdenlivetitle</property>
  <property name="kdenlive:duration">250</property>
  <property name="kdenlive:clipname">übersichtlich</property>
  <property name="xmldata">&lt;kdenlivetitle duration="250" LC_NUMERIC="de_DE.UTF-8" width="2560" height="1440" out="249">
 &lt;item type="QGraphicsTextItem" z-index="0">
  &lt;position x="297" y="740">
   &lt;transform>1,0,0,0,1,0,0,0,1&lt;/transform>
  &lt;/position>
  &lt;content shadow="0;#64000000;3;3;3" font-underline="0" box-height="165" font="Noto Sans" letter-spacing="0" font-pixel-size="120" font-italic="0" alignment="2" font-weight="75" box-width="782.641" font-color="255,255,255,255">übersichtlich&lt;/content>
 &lt;/item>
 &lt;startviewport rect="0,0,2560,1440"/>
 &lt;endviewport rect="0,0,2560,1440"/>
 &lt;background color="0,0,0,0"/>
&lt;/kdenlivetitle>
</property>
  <property name="kdenlive:folderid">28</property>
  <property name="kdenlive:id">29</property>
  <property name="kdenlive:file_hash">67fa7b2c565819fd71d0af9b950623eb</property>
  <property name="force_reload">0</property>
  <property name="global_feed">1</property>
  <property name="meta.media.width">2560</property>
  <property name="meta.media.height">1440</property>
 </producer>
 <producer id="producer27" in="00:00:00,000" out="00:00:08,480">
  <property name="length">425</property>
  <property name="eof">pause</property>
  <property name="resource"/>
  <property name="progressive">1</property>
  <property name="aspect_ratio">1</property>
  <property name="seekable">1</property>
  <property name="mlt_service">kdenlivetitle</property>
  <property name="kdenlive:duration">250</property>
  <property name="kdenlive:clipname">überall erreichbar</property>
  <property name="xmldata">&lt;kdenlivetitle duration="250" LC_NUMERIC="de_DE.UTF-8" width="2560" height="1440" out="249">
 &lt;item type="QGraphicsTextItem" z-index="0">
  &lt;position x="297" y="740">
   &lt;transform>1,0,0,0,1,0,0,0,1&lt;/transform>
  &lt;/position>
  &lt;content shadow="0;#64000000;3;3;3" font-underline="0" box-height="165" font="Noto Sans" letter-spacing="0" font-pixel-size="120" font-italic="0" alignment="2" font-weight="75" box-width="1082.92" font-color="255,255,255,255">überall erreichbar&lt;/content>
 &lt;/item>
 &lt;startviewport rect="0,0,2560,1440"/>
 &lt;endviewport rect="0,0,2560,1440"/>
 &lt;background color="0,0,0,0"/>
&lt;/kdenlivetitle>
</property>
  <property name="kdenlive:folderid">39</property>
  <property name="kdenlive:id">34</property>
  <property name="kdenlive:file_hash">ce3566490e06e679ddfc36eeebacac81</property>
  <property name="force_reload">0</property>
  <property name="global_feed">1</property>
  <property name="meta.media.width">2560</property>
  <property name="meta.media.height">1440</property>
 </producer>
 <producer title="Anonymous Submission" id="producer24" in="00:00:00,000" out="00:00:08,480">
  <property name="length">425</property>
  <property name="eof">pause</property>
  <property name="resource"/>
  <property name="progressive">1</property>
  <property name="aspect_ratio">1</property>
  <property name="seekable">1</property>
  <property name="mlt_service">kdenlivetitle</property>
  <property name="kdenlive:duration">250</property>
  <property name="kdenlive:clipname">transparent</property>
  <property name="xmldata">&lt;kdenlivetitle duration="250" LC_NUMERIC="de_DE.UTF-8" width="2560" height="1440" out="249">
 &lt;item type="QGraphicsTextItem" z-index="0">
  &lt;position x="297" y="740">
   &lt;transform>1,0,0,0,1,0,0,0,1&lt;/transform>
  &lt;/position>
  &lt;content shadow="0;#64000000;3;3;3" font-underline="0" box-height="165" font="Noto Sans" letter-spacing="0" font-pixel-size="120" font-italic="0" alignment="2" font-weight="75" box-width="717.359" font-color="255,255,255,255">transparent&lt;/content>
 &lt;/item>
 &lt;startviewport rect="0,0,2560,1440"/>
 &lt;endviewport rect="0,0,2560,1440"/>
 &lt;background color="0,0,0,0"/>
&lt;/kdenlivetitle>
</property>
  <property name="kdenlive:folderid">36</property>
  <property name="kdenlive:id">31</property>
  <property name="kdenlive:file_hash">35b099e8c6d1dbdc011e51bf9bcba616</property>
  <property name="force_reload">0</property>
  <property name="global_feed">1</property>
  <property name="meta.media.width">2560</property>
  <property name="meta.media.height">1440</property>
 </producer>
 <producer title="Anonymous Submission" id="producer23" in="00:00:00,000" out="00:00:08,480">
  <property name="length">425</property>
  <property name="eof">pause</property>
  <property name="resource"/>
  <property name="progressive">1</property>
  <property name="aspect_ratio">1</property>
  <property name="seekable">1</property>
  <property name="mlt_service">kdenlivetitle</property>
  <property name="kdenlive:duration">250</property>
  <property name="kdenlive:clipname">schnell</property>
  <property name="xmldata">&lt;kdenlivetitle duration="250" LC_NUMERIC="de_DE.UTF-8" width="2560" height="1440" out="249">
 &lt;item type="QGraphicsTextItem" z-index="0">
  &lt;position x="297" y="740">
   &lt;transform>1,0,0,0,1,0,0,0,1&lt;/transform>
  &lt;/position>
  &lt;content shadow="0;#64000000;3;3;3" font-underline="0" box-height="165" font="Noto Sans" letter-spacing="0" font-pixel-size="120" font-italic="0" alignment="2" font-weight="75" box-width="423.047" font-color="255,255,255,255">schnell&lt;/content>
 &lt;/item>
 &lt;startviewport rect="0,0,2560,1440"/>
 &lt;endviewport rect="0,0,2560,1440"/>
 &lt;background color="0,0,0,0"/>
&lt;/kdenlivetitle>
</property>
  <property name="kdenlive:folderid">35</property>
  <property name="kdenlive:id">30</property>
  <property name="kdenlive:file_hash">bc61a0bfd775eacfc6fc47c494fd0736</property>
  <property name="force_reload">0</property>
  <property name="global_feed">1</property>
  <property name="meta.media.width">2560</property>
  <property name="meta.media.height">1440</property>
 </producer>
 <producer title="Anonymous Submission" id="producer25" in="00:00:00,000" out="00:00:08,480">
  <property name="length">425</property>
  <property name="eof">pause</property>
  <property name="resource"/>
  <property name="progressive">1</property>
  <property name="aspect_ratio">1</property>
  <property name="seekable">1</property>
  <property name="mlt_service">kdenlivetitle</property>
  <property name="kdenlive:duration">250</property>
  <property name="kdenlive:clipname">immer erreichbar</property>
  <property name="xmldata">&lt;kdenlivetitle duration="250" LC_NUMERIC="de_DE.UTF-8" width="2560" height="1440" out="249">
 &lt;item type="QGraphicsTextItem" z-index="0">
  &lt;position x="297" y="740">
   &lt;transform>1,0,0,0,1,0,0,0,1&lt;/transform>
  &lt;/position>
  &lt;content shadow="0;#64000000;3;3;3" font-underline="0" box-height="165" font="Noto Sans" letter-spacing="0" font-pixel-size="120" font-italic="0" alignment="2" font-weight="75" box-width="1057.14" font-color="255,255,255,255">immer erreichbar&lt;/content>
 &lt;/item>
 &lt;startviewport rect="0,0,2560,1440"/>
 &lt;endviewport rect="0,0,2560,1440"/>
 &lt;background color="0,0,0,0"/>
&lt;/kdenlivetitle>
</property>
  <property name="kdenlive:folderid">38</property>
  <property name="kdenlive:id">32</property>
  <property name="kdenlive:file_hash">077bf08d96c30ddf6bd7720ecdba0024</property>
  <property name="force_reload">0</property>
  <property name="global_feed">1</property>
  <property name="meta.media.width">2560</property>
  <property name="meta.media.height">1440</property>
 </producer>
 <producer title="Anonymous Submission" id="producer26" in="00:00:00,000" out="00:00:08,480">
  <property name="length">425</property>
  <property name="eof">pause</property>
  <property name="resource"/>
  <property name="progressive">1</property>
  <property name="aspect_ratio">1</property>
  <property name="seekable">1</property>
  <property name="mlt_service">kdenlivetitle</property>
  <property name="kdenlive:duration">250</property>
  <property name="kdenlive:clipname">sicher</property>
  <property name="xmldata">&lt;kdenlivetitle duration="250" LC_NUMERIC="de_DE.UTF-8" width="2560" height="1440" out="249">
 &lt;item type="QGraphicsTextItem" z-index="0">
  &lt;position x="297" y="740">
   &lt;transform>1,0,0,0,1,0,0,0,1&lt;/transform>
  &lt;/position>
  &lt;content shadow="0;#64000000;3;3;3" font-underline="0" box-height="165" font="Noto Sans" letter-spacing="0" font-pixel-size="120" font-italic="0" alignment="2" font-weight="75" box-width="362.094" font-color="255,255,255,255">sicher&lt;/content>
 &lt;/item>
 &lt;startviewport rect="0,0,2560,1440"/>
 &lt;endviewport rect="0,0,2560,1440"/>
 &lt;background color="0,0,0,0"/>
&lt;/kdenlivetitle>
</property>
  <property name="kdenlive:folderid">37</property>
  <property name="kdenlive:id">33</property>
  <property name="kdenlive:file_hash">ce3566490e06e679ddfc36eeebacac81</property>
  <property name="force_reload">0</property>
  <property name="global_feed">1</property>
  <property name="meta.media.width">2560</property>
  <property name="meta.media.height">1440</property>
 </producer>
 <producer title="Anonymous Submission" id="producer28" in="00:00:00,000" out="00:00:04,980">
  <property name="length">00:00:05,000</property>
  <property name="eof">pause</property>
  <property name="resource">assets/speed/speed-meter.png</property>
  <property name="ttl">25</property>
  <property name="aspect_ratio">1</property>
  <property name="progressive">1</property>
  <property name="seekable">1</property>
  <property name="meta.media.width">512</property>
  <property name="meta.media.height">512</property>
  <property name="mlt_service">qimage</property>
  <property name="kdenlive:clipname"/>
  <property name="kdenlive:duration">00:00:05,000</property>
  <property name="kdenlive:folderid">35</property>
  <property name="kdenlive:id">40</property>
  <property name="kdenlive:file_size">18948</property>
  <property name="kdenlive:file_hash">b830c49dec011c98a0cd995f84a62b36</property>
  <property name="global_feed">1</property>
 </producer>
 <producer title="Anonymous Submission" id="producer29" in="00:00:00,000" out="00:00:04,980">
  <property name="length">00:00:05,000</property>
  <property name="eof">pause</property>
  <property name="resource">assets/speed/speed-pointer-centered.png</property>
  <property name="ttl">25</property>
  <property name="aspect_ratio">1</property>
  <property name="progressive">1</property>
  <property name="seekable">1</property>
  <property name="meta.media.width">406</property>
  <property name="meta.media.height">406</property>
  <property name="mlt_service">qimage</property>
  <property name="kdenlive:clipname"/>
  <property name="kdenlive:duration">00:00:05,000</property>
  <property name="kdenlive:folderid">35</property>
  <property name="kdenlive:id">41</property>
  <property name="kdenlive:file_size">6511</property>
  <property name="kdenlive:file_hash">f02ebb08cddd2916feace2da18e450e0</property>
  <property name="global_feed">1</property>
 </producer>
 <producer id="producer30" in="00:00:00,000" out="00:00:04,980">
  <property name="length">00:00:05,000</property>
  <property name="eof">pause</property>
  <property name="resource">assets/diagram/axes.png</property>
  <property name="ttl">25</property>
  <property name="aspect_ratio">1</property>
  <property name="progressive">1</property>
  <property name="seekable">1</property>
  <property name="meta.media.width">512</property>
  <property name="meta.media.height">512</property>
  <property name="mlt_service">qimage</property>
  <property name="kdenlive:clipname"/>
  <property name="kdenlive:duration">00:00:05,000</property>
  <property name="kdenlive:folderid">36</property>
  <property name="kdenlive:id">42</property>
  <property name="kdenlive:file_size">9938</property>
  <property name="kdenlive:file_hash">9de3c20423b28027f36e7fbdd36a3196</property>
 </producer>
 <producer title="Anonymous Submission" id="producer34" in="00:00:00,000" out="00:00:04,980">
  <property name="length">00:00:05,000</property>
  <property name="eof">pause</property>
  <property name="resource">assets/lock/lock-body.png</property>
  <property name="ttl">25</property>
  <property name="aspect_ratio">1</property>
  <property name="progressive">1</property>
  <property name="seekable">1</property>
  <property name="meta.media.width">512</property>
  <property name="meta.media.height">512</property>
  <property name="mlt_service">qimage</property>
  <property name="kdenlive:clipname"/>
  <property name="kdenlive:duration">00:00:05,000</property>
  <property name="kdenlive:folderid">37</property>
  <property name="kdenlive:id">46</property>
  <property name="kdenlive:file_size">8492</property>
  <property name="kdenlive:file_hash">c4eab20b9307b7b039b8dc6e94291efb</property>
  <property name="global_feed">1</property>
 </producer>
 <producer id="producer35" in="00:00:00,000" out="00:00:04,980">
  <property name="length">00:00:05,000</property>
  <property name="eof">pause</property>
  <property name="resource">assets/lock/lock-pad.png</property>
  <property name="ttl">25</property>
  <property name="aspect_ratio">1</property>
  <property name="progressive">1</property>
  <property name="seekable">1</property>
  <property name="meta.media.width">512</property>
  <property name="meta.media.height">512</property>
  <property name="mlt_service">qimage</property>
  <property name="kdenlive:clipname"/>
  <property name="kdenlive:duration">00:00:05,000</property>
  <property name="kdenlive:folderid">37</property>
  <property name="kdenlive:id">47</property>
  <property name="kdenlive:file_size">8240</property>
  <property name="kdenlive:file_hash">7fc8e2588931946f96031c979d1d0779</property>
 </producer>
 <producer title="Anonymous Submission" id="producer36" in="00:00:00,000" out="00:00:04,980">
  <property name="length">00:00:05,000</property>
  <property name="eof">pause</property>
  <property name="resource">assets/clock/clock-frame.png</property>
  <property name="ttl">25</property>
  <property name="aspect_ratio">1</property>
  <property name="progressive">1</property>
  <property name="seekable">1</property>
  <property name="meta.media.width">512</property>
  <property name="meta.media.height">512</property>
  <property name="mlt_service">qimage</property>
  <property name="kdenlive:clipname"/>
  <property name="kdenlive:duration">00:00:05,000</property>
  <property name="kdenlive:folderid">38</property>
  <property name="kdenlive:id">48</property>
  <property name="kdenlive:file_size">15514</property>
  <property name="kdenlive:file_hash">d7b25860d2186d7462e4ede5718a353e</property>
  <property name="global_feed">1</property>
 </producer>
 <producer id="producer37" in="00:00:00,000" out="00:00:04,980">
  <property name="length">00:00:05,000</property>
  <property name="eof">pause</property>
  <property name="resource">assets/clock/clock-hand-small.png</property>
  <property name="ttl">25</property>
  <property name="aspect_ratio">1</property>
  <property name="progressive">1</property>
  <property name="seekable">1</property>
  <property name="meta.media.width">512</property>
  <property name="meta.media.height">512</property>
  <property name="mlt_service">qimage</property>
  <property name="kdenlive:clipname"/>
  <property name="kdenlive:duration">00:00:05,000</property>
  <property name="kdenlive:folderid">38</property>
  <property name="kdenlive:id">49</property>
  <property name="kdenlive:file_size">4990</property>
  <property name="kdenlive:file_hash">256aba95e5e906dbe6b3f1c52eda4152</property>
 </producer>
 <producer id="producer38" in="00:00:00,000" out="00:00:04,980">
  <property name="length">00:00:05,000</property>
  <property name="eof">pause</property>
  <property name="resource">assets/clock/clock-hand.png</property>
  <property name="ttl">25</property>
  <property name="aspect_ratio">1</property>
  <property name="progressive">1</property>
  <property name="seekable">1</property>
  <property name="meta.media.width">512</property>
  <property name="meta.media.height">512</property>
  <property name="mlt_service">qimage</property>
  <property name="kdenlive:clipname"/>
  <property name="kdenlive:duration">00:00:05,000</property>
  <property name="kdenlive:folderid">38</property>
  <property name="kdenlive:id">50</property>
  <property name="kdenlive:file_size">5090</property>
  <property name="kdenlive:file_hash">b9bcfba2ec0b32d26d44afd0c3b0be92</property>
 </producer>
 <producer id="producer39" in="00:00:00,000" out="00:00:04,980">
  <property name="length">00:00:05,000</property>
  <property name="eof">pause</property>
  <property name="resource">assets/desktop/computerscreen_102708.svg</property>
  <property name="ttl">25</property>
  <property name="aspect_ratio">1</property>
  <property name="progressive">1</property>
  <property name="seekable">1</property>
  <property name="meta.media.width">612</property>
  <property name="meta.media.height">612</property>
  <property name="mlt_service">qimage</property>
  <property name="kdenlive:clipname"/>
  <property name="kdenlive:duration">00:00:05,000</property>
  <property name="kdenlive:folderid">39</property>
  <property name="kdenlive:id">51</property>
  <property name="kdenlive:file_size">1326</property>
  <property name="kdenlive:file_hash">7928c669b1400b7d341e4854bc0fc0d2</property>
 </producer>
 <producer id="producer40" in="00:00:00,000" out="00:00:04,980">
  <property name="length">00:00:05,000</property>
  <property name="eof">pause</property>
  <property name="resource">assets/mobile/tablet_119637.svg</property>
  <property name="ttl">25</property>
  <property name="aspect_ratio">1</property>
  <property name="progressive">1</property>
  <property name="seekable">1</property>
  <property name="meta.media.width">792</property>
  <property name="meta.media.height">792</property>
  <property name="mlt_service">qimage</property>
  <property name="kdenlive:clipname"/>
  <property name="kdenlive:duration">00:00:05,000</property>
  <property name="kdenlive:folderid">39</property>
  <property name="kdenlive:id">52</property>
  <property name="kdenlive:file_size">1162</property>
  <property name="kdenlive:file_hash">2e16963b0fbc37799af56e11ded34277</property>
 </producer>
 <producer id="producer41" in="00:00:00,000" out="00:00:04,980">
  <property name="length">00:00:05,000</property>
  <property name="eof">pause</property>
  <property name="resource">assets/tablet/tabletipadmono_105928.svg</property>
  <property name="ttl">25</property>
  <property name="aspect_ratio">1</property>
  <property name="progressive">1</property>
  <property name="seekable">1</property>
  <property name="meta.media.width">500</property>
  <property name="meta.media.height">500</property>
  <property name="mlt_service">qimage</property>
  <property name="kdenlive:clipname"/>
  <property name="kdenlive:duration">00:00:05,000</property>
  <property name="kdenlive:folderid">39</property>
  <property name="kdenlive:id">53</property>
  <property name="kdenlive:file_size">1005</property>
  <property name="kdenlive:file_hash">43a48008a0f4ebb56749bf27da9c826f</property>
 </producer>
 <producer id="producer42" in="00:00:00,000" out="00:00:04,980">
  <property name="length">00:00:05,000</property>
  <property name="eof">pause</property>
  <property name="resource">assets/Hamburger/bullet.png</property>
  <property name="ttl">25</property>
  <property name="aspect_ratio">1</property>
  <property name="progressive">1</property>
  <property name="seekable">1</property>
  <property name="meta.media.width">512</property>
  <property name="meta.media.height">512</property>
  <property name="mlt_service">qimage</property>
  <property name="kdenlive:clipname"/>
  <property name="kdenlive:duration">00:00:05,000</property>
  <property name="kdenlive:folderid">28</property>
  <property name="kdenlive:id">54</property>
  <property name="kdenlive:file_size">5724</property>
  <property name="kdenlive:file_hash">c8b3ac7a73d66e76ee91b0bb02e92e86</property>
 </producer>
 <producer title="Anonymous Submission" id="producer43" in="00:00:00,000" out="00:00:04,980">
  <property name="length">00:00:05,000</property>
  <property name="eof">pause</property>
  <property name="resource">assets/Hamburger/text.png</property>
  <property name="ttl">25</property>
  <property name="aspect_ratio">1</property>
  <property name="progressive">1</property>
  <property name="seekable">1</property>
  <property name="meta.media.width">512</property>
  <property name="meta.media.height">512</property>
  <property name="mlt_service">qimage</property>
  <property name="kdenlive:clipname"/>
  <property name="kdenlive:duration">00:00:05,000</property>
  <property name="kdenlive:folderid">28</property>
  <property name="kdenlive:id">55</property>
  <property name="kdenlive:file_size">5938</property>
  <property name="kdenlive:file_hash">bf540bf45d54470a3a8fa6855e1731ca</property>
  <property name="global_feed">1</property>
 </producer>
 <producer title="Anonymous Submission" id="producer31" in="00:00:00,000" out="00:00:31,480">
  <property name="length">1575</property>
  <property name="eof">pause</property>
  <property name="resource"/>
  <property name="progressive">1</property>
  <property name="aspect_ratio">1</property>
  <property name="seekable">1</property>
  <property name="mlt_service">kdenlivetitle</property>
  <property name="kdenlive:duration">250</property>
  <property name="kdenlive:clipname">Lehrer verlieren nie den Überblick</property>
  <property name="xmldata">&lt;kdenlivetitle duration="250" LC_NUMERIC="de_DE.UTF-8" width="2560" height="1440" out="249">
 &lt;item type="QGraphicsTextItem" z-index="0">
  &lt;position x="302" y="740">
   &lt;transform>1,0,0,0,1,0,0,0,1&lt;/transform>
  &lt;/position>
  &lt;content shadow="0;#64000000;3;3;3" font-underline="0" box-height="326" font="Noto Sans" letter-spacing="0" font-pixel-size="120" font-italic="0" alignment="2" font-weight="75" box-width="1052.64" font-color="255,255,255,255">Lehrer verlieren 
nie den Überblick&lt;/content>
 &lt;/item>
 &lt;startviewport rect="0,0,2560,1440"/>
 &lt;endviewport rect="0,0,2560,1440"/>
 &lt;background color="0,0,0,0"/>
&lt;/kdenlivetitle>
</property>
  <property name="kdenlive:folderid">56</property>
  <property name="kdenlive:id">57</property>
  <property name="kdenlive:file_hash">e7c3f0045d2e0e049d5927f40c249aed</property>
  <property name="force_reload">0</property>
  <property name="global_feed">1</property>
  <property name="meta.media.width">2560</property>
  <property name="meta.media.height">1440</property>
 </producer>
 <producer title="Anonymous Submission" id="producer32" in="00:00:00,000" out="00:00:27,180">
  <property name="length">1360</property>
  <property name="eof">pause</property>
  <property name="resource">assets/previews/aufgabeBewerten.mp4</property>
  <property name="audio_index">-1</property>
  <property name="video_index">0</property>
  <property name="mute_on_pause">0</property>
  <property name="mlt_service">avformat-novalidate</property>
  <property name="meta.media.nb_streams">1</property>
  <property name="meta.media.0.stream.type">video</property>
  <property name="meta.media.0.stream.frame_rate">10</property>
  <property name="meta.media.0.stream.sample_aspect_ratio">0</property>
  <property name="meta.media.0.codec.width">882</property>
  <property name="meta.media.0.codec.height">852</property>
  <property name="meta.media.0.codec.rotate">0</property>
  <property name="meta.media.0.codec.frame_rate">10</property>
  <property name="meta.media.0.codec.pix_fmt">yuv420p</property>
  <property name="meta.media.0.codec.sample_aspect_ratio">0</property>
  <property name="meta.media.0.codec.colorspace">709</property>
  <property name="meta.media.0.codec.name">h264</property>
  <property name="meta.media.0.codec.long_name">H.264 / AVC / MPEG-4 AVC / MPEG-4 part 10</property>
  <property name="meta.media.0.codec.bit_rate">71832</property>
  <property name="meta.attr.0.stream.handler_name.markup">VideoHandler</property>
  <property name="meta.attr.major_brand.markup">isom</property>
  <property name="meta.attr.minor_version.markup">512</property>
  <property name="meta.attr.compatible_brands.markup">isomiso2avc1mp41</property>
  <property name="meta.attr.encoder.markup">Lavf58.29.100</property>
  <property name="seekable">1</property>
  <property name="meta.media.sample_aspect_num">1</property>
  <property name="meta.media.sample_aspect_den">1</property>
  <property name="aspect_ratio">1</property>
  <property name="kdenlive:clipname"/>
  <property name="kdenlive:folderid">56</property>
  <property name="meta.media.frame_rate_num">10</property>
  <property name="meta.media.frame_rate_den">1</property>
  <property name="meta.media.colorspace">709</property>
  <property name="meta.media.color_trc">2</property>
  <property name="meta.media.width">882</property>
  <property name="meta.media.height">852</property>
  <property name="meta.media.color_range">mpeg</property>
  <property name="kdenlive:id">59</property>
  <property name="kdenlive:file_size">248265</property>
  <property name="kdenlive:file_hash">c65f73bdcb9078e00019769ae1e0260c</property>
  <property name="meta.media.top_field_first">0</property>
  <property name="meta.media.progressive">1</property>
  <property name="global_feed">1</property>
 </producer>
 <producer title="Anonymous Submission" id="producer33" in="00:00:00,000" out="00:00:11,380">
  <property name="length">570</property>
  <property name="eof">pause</property>
  <property name="resource">assets/previews/viewGrades.mp4</property>
  <property name="audio_index">-1</property>
  <property name="video_index">0</property>
  <property name="mute_on_pause">0</property>
  <property name="mlt_service">avformat-novalidate</property>
  <property name="meta.media.nb_streams">1</property>
  <property name="meta.media.0.stream.type">video</property>
  <property name="meta.media.0.stream.frame_rate">10</property>
  <property name="meta.media.0.stream.sample_aspect_ratio">0</property>
  <property name="meta.media.0.codec.width">882</property>
  <property name="meta.media.0.codec.height">852</property>
  <property name="meta.media.0.codec.rotate">0</property>
  <property name="meta.media.0.codec.frame_rate">10</property>
  <property name="meta.media.0.codec.pix_fmt">yuv420p</property>
  <property name="meta.media.0.codec.sample_aspect_ratio">0</property>
  <property name="meta.media.0.codec.colorspace">709</property>
  <property name="meta.media.0.codec.name">h264</property>
  <property name="meta.media.0.codec.long_name">H.264 / AVC / MPEG-4 AVC / MPEG-4 part 10</property>
  <property name="meta.media.0.codec.bit_rate">59752</property>
  <property name="meta.attr.0.stream.handler_name.markup">VideoHandler</property>
  <property name="meta.attr.major_brand.markup">isom</property>
  <property name="meta.attr.minor_version.markup">512</property>
  <property name="meta.attr.compatible_brands.markup">isomiso2avc1mp41</property>
  <property name="meta.attr.encoder.markup">Lavf58.29.100</property>
  <property name="seekable">1</property>
  <property name="meta.media.sample_aspect_num">1</property>
  <property name="meta.media.sample_aspect_den">1</property>
  <property name="aspect_ratio">1</property>
  <property name="kdenlive:clipname"/>
  <property name="kdenlive:folderid">60</property>
  <property name="meta.media.frame_rate_num">10</property>
  <property name="meta.media.frame_rate_den">1</property>
  <property name="meta.media.colorspace">709</property>
  <property name="meta.media.color_trc">2</property>
  <property name="meta.media.width">882</property>
  <property name="meta.media.height">852</property>
  <property name="meta.media.color_range">mpeg</property>
  <property name="kdenlive:id">62</property>
  <property name="kdenlive:file_size">87340</property>
  <property name="kdenlive:file_hash">2b376dc6584df35feba1debde41432ce</property>
  <property name="meta.media.top_field_first">0</property>
  <property name="meta.media.progressive">1</property>
  <property name="global_feed">1</property>
 </producer>
 <producer title="Anonymous Submission" id="producer44" in="00:00:00,000" out="00:00:31,480">
  <property name="length">1575</property>
  <property name="eof">pause</property>
  <property name="resource"/>
  <property name="progressive">1</property>
  <property name="aspect_ratio">1</property>
  <property name="seekable">1</property>
  <property name="mlt_service">kdenlivetitle</property>
  <property name="kdenlive:duration">250</property>
  <property name="kdenlive:clipname">schüler noten</property>
  <property name="xmldata">&lt;kdenlivetitle duration="250" LC_NUMERIC="de_DE.UTF-8" width="2560" height="1440" out="249">
 &lt;item type="QGraphicsTextItem" z-index="0">
  &lt;position x="302" y="740">
   &lt;transform>1,0,0,0,1,0,0,0,1&lt;/transform>
  &lt;/position>
  &lt;content line-spacing="0" shadow="0;#64000000;3;3;3" font-underline="0" box-height="489" font-outline-color="0,0,0,255" font="Noto Sans" letter-spacing="0" font-pixel-size="120" font-italic="0" alignment="4" font-weight="75" font-outline="0" box-width="1159.5" font-color="255,255,255,255">Schüler bekommen
ihre Noten in
Echtzeit mitgeteilt&lt;/content>
 &lt;/item>
 &lt;startviewport rect="0,0,2560,1440"/>
 &lt;endviewport rect="0,0,2560,1440"/>
 &lt;background color="0,0,0,0"/>
&lt;/kdenlivetitle>
</property>
  <property name="kdenlive:folderid">60</property>
  <property name="kdenlive:id">61</property>
  <property name="kdenlive:file_hash">1489e8b3fe810937704468ffe32f9725</property>
  <property name="force_reload">0</property>
  <property name="global_feed">1</property>
  <property name="meta.media.width">2560</property>
  <property name="meta.media.height">1440</property>
 </producer>
 <producer id="producer45" in="00:00:00,000" out="00:00:31,480">
  <property name="length">1575</property>
  <property name="eof">pause</property>
  <property name="resource"/>
  <property name="progressive">1</property>
  <property name="aspect_ratio">1</property>
  <property name="seekable">1</property>
  <property name="mlt_service">kdenlivetitle</property>
  <property name="kdenlive:duration">250</property>
  <property name="kdenlive:clipname">admin verwaltung</property>
  <property name="xmldata">&lt;kdenlivetitle duration="250" LC_NUMERIC="de_DE.UTF-8" width="2560" height="1440" out="249">
 &lt;item type="QGraphicsTextItem" z-index="0">
  &lt;position x="302" y="740">
   &lt;transform zoom="81">0.81,0,0,0,0.81,0,0,0,1&lt;/transform>
  &lt;/position>
  &lt;content line-spacing="0" shadow="0;#64000000;3;3;3" font-underline="0" box-height="652" font-outline-color="0,0,0,255" font="Noto Sans" letter-spacing="0" font-pixel-size="120" font-italic="0" alignment="4" font-weight="75" font-outline="0" box-width="1366.73" font-color="255,255,255,255">Und Admins verwalten
Schüler, Lehrer
und Stundenpläne
blitzschnell!&lt;/content>
 &lt;/item>
 &lt;startviewport rect="0,0,2560,1440"/>
 &lt;endviewport rect="0,0,2560,1440"/>
 &lt;background color="0,0,0,0"/>
&lt;/kdenlivetitle>
</property>
  <property name="kdenlive:folderid">63</property>
  <property name="kdenlive:id">64</property>
  <property name="kdenlive:file_hash">db1bb5c2ec39aaed89009da0ea01d2ca</property>
  <property name="force_reload">0</property>
  <property name="global_feed">1</property>
  <property name="meta.media.width">2560</property>
  <property name="meta.media.height">1440</property>
 </producer>
 <producer title="Anonymous Submission" id="producer46" in="00:00:00,000" out="00:00:16,780">
  <property name="length">840</property>
  <property name="eof">pause</property>
  <property name="resource">assets/previews/changeUserRole.mp4</property>
  <property name="audio_index">-1</property>
  <property name="video_index">0</property>
  <property name="mute_on_pause">0</property>
  <property name="mlt_service">avformat-novalidate</property>
  <property name="meta.media.nb_streams">1</property>
  <property name="meta.media.0.stream.type">video</property>
  <property name="meta.media.0.stream.frame_rate">10</property>
  <property name="meta.media.0.stream.sample_aspect_ratio">0</property>
  <property name="meta.media.0.codec.width">1046</property>
  <property name="meta.media.0.codec.height">1012</property>
  <property name="meta.media.0.codec.rotate">0</property>
  <property name="meta.media.0.codec.frame_rate">10</property>
  <property name="meta.media.0.codec.pix_fmt">yuv420p</property>
  <property name="meta.media.0.codec.sample_aspect_ratio">0</property>
  <property name="meta.media.0.codec.colorspace">709</property>
  <property name="meta.media.0.codec.name">h264</property>
  <property name="meta.media.0.codec.long_name">H.264 / AVC / MPEG-4 AVC / MPEG-4 part 10</property>
  <property name="meta.media.0.codec.bit_rate">107901</property>
  <property name="meta.attr.0.stream.handler_name.markup">VideoHandler</property>
  <property name="meta.attr.major_brand.markup">isom</property>
  <property name="meta.attr.minor_version.markup">512</property>
  <property name="meta.attr.compatible_brands.markup">isomiso2avc1mp41</property>
  <property name="meta.attr.encoder.markup">Lavf58.29.100</property>
  <property name="seekable">1</property>
  <property name="meta.media.sample_aspect_num">1</property>
  <property name="meta.media.sample_aspect_den">1</property>
  <property name="aspect_ratio">1</property>
  <property name="kdenlive:clipname"/>
  <property name="kdenlive:folderid">63</property>
  <property name="meta.media.frame_rate_num">10</property>
  <property name="meta.media.frame_rate_den">1</property>
  <property name="meta.media.colorspace">709</property>
  <property name="meta.media.color_trc">2</property>
  <property name="meta.media.width">1046</property>
  <property name="meta.media.height">1012</property>
  <property name="meta.media.color_range">mpeg</property>
  <property name="kdenlive:id">65</property>
  <property name="kdenlive:file_size">229418</property>
  <property name="kdenlive:file_hash">ff410dcd6e0f93658f3b6ba1feb4ec8a</property>
  <property name="meta.media.top_field_first">0</property>
  <property name="meta.media.progressive">1</property>
  <property name="global_feed">1</property>
 </producer>
 <producer id="producer47" in="00:00:00,000" out="00:00:04,980">
  <property name="length">00:00:05,000</property>
  <property name="eof">pause</property>
  <property name="resource">assets/diagram/green.png</property>
  <property name="ttl">25</property>
  <property name="aspect_ratio">1</property>
  <property name="progressive">1</property>
  <property name="seekable">1</property>
  <property name="meta.media.width">512</property>
  <property name="meta.media.height">512</property>
  <property name="mlt_service">qimage</property>
  <property name="kdenlive:clipname"/>
  <property name="kdenlive:duration">00:00:05,000</property>
  <property name="kdenlive:folderid">36</property>
  <property name="kdenlive:id">43</property>
  <property name="kdenlive:file_size">9824</property>
  <property name="kdenlive:file_hash">258e6e3532fd0c9945faeeb0d6a1eae8</property>
 </producer>
 <producer id="producer48" in="00:00:00,000" out="00:00:04,980">
  <property name="length">00:00:05,000</property>
  <property name="eof">pause</property>
  <property name="resource">assets/diagram/purple.png</property>
  <property name="ttl">25</property>
  <property name="aspect_ratio">1</property>
  <property name="progressive">1</property>
  <property name="seekable">1</property>
  <property name="meta.media.width">512</property>
  <property name="meta.media.height">512</property>
  <property name="mlt_service">qimage</property>
  <property name="kdenlive:clipname"/>
  <property name="kdenlive:duration">00:00:05,000</property>
  <property name="kdenlive:folderid">36</property>
  <property name="kdenlive:id">44</property>
  <property name="kdenlive:file_size">9403</property>
  <property name="kdenlive:file_hash">e3458f7c0845896dab532d88930f13bb</property>
 </producer>
 <producer id="producer49" in="00:00:00,000" out="00:00:04,980">
  <property name="length">00:00:05,000</property>
  <property name="eof">pause</property>
  <property name="resource">assets/diagram/red.png</property>
  <property name="ttl">25</property>
  <property name="aspect_ratio">1</property>
  <property name="progressive">1</property>
  <property name="seekable">1</property>
  <property name="meta.media.width">512</property>
  <property name="meta.media.height">512</property>
  <property name="mlt_service">qimage</property>
  <property name="kdenlive:clipname"/>
  <property name="kdenlive:duration">00:00:05,000</property>
  <property name="kdenlive:folderid">36</property>
  <property name="kdenlive:id">45</property>
  <property name="kdenlive:file_size">9057</property>
  <property name="kdenlive:file_hash">36bf780f1b947cad9bc1f875f413a53f</property>
 </producer>
 <producer id="producer50" in="00:00:00,000" out="00:00:07,960">
  <property name="length">399</property>
  <property name="eof">pause</property>
  <property name="resource"/>
  <property name="progressive">1</property>
  <property name="aspect_ratio">1</property>
  <property name="seekable">1</property>
  <property name="mlt_service">kdenlivetitle</property>
  <property name="kdenlive:duration">250</property>
  <property name="kdenlive:clipname">Alles</property>
  <property name="xmldata">&lt;kdenlivetitle duration="250" LC_NUMERIC="de_DE.UTF-8" width="2560" height="1440" out="249">
 &lt;item type="QGraphicsTextItem" z-index="0">
  &lt;position x="1137" y="740">
   &lt;transform>1,0,0,0,1,0,0,0,1&lt;/transform>
  &lt;/position>
  &lt;content shadow="0;#64000000;3;3;3" font-underline="0" box-height="165" font="Noto Sans" letter-spacing="0" font-pixel-size="120" font-italic="0" alignment="2" font-weight="75" box-width="286.516" font-color="255,255,255,255">Alles&lt;/content>
 &lt;/item>
 &lt;startviewport rect="0,0,2560,1440"/>
 &lt;endviewport rect="0,0,2560,1440"/>
 &lt;background color="0,0,0,0"/>
&lt;/kdenlivetitle>
</property>
  <property name="kdenlive:folderid">66</property>
  <property name="kdenlive:id">67</property>
  <property name="kdenlive:file_hash">66b016ed02bf06c21c8dfac9a7397e2f</property>
  <property name="force_reload">0</property>
  <property name="global_feed">1</property>
  <property name="meta.media.width">2560</property>
  <property name="meta.media.height">1440</property>
 </producer>
 <producer id="producer51" in="00:00:00,000" out="00:00:07,960">
  <property name="length">399</property>
  <property name="eof">pause</property>
  <property name="resource"/>
  <property name="progressive">1</property>
  <property name="aspect_ratio">1</property>
  <property name="seekable">1</property>
  <property name="mlt_service">kdenlivetitle</property>
  <property name="kdenlive:duration">250</property>
  <property name="kdenlive:clipname">dank</property>
  <property name="xmldata">&lt;kdenlivetitle duration="250" LC_NUMERIC="de_DE.UTF-8" width="2560" height="1440" out="249">
 &lt;item type="QGraphicsTextItem" z-index="0">
  &lt;position x="1122" y="740">
   &lt;transform>1,0,0,0,1,0,0,0,1&lt;/transform>
  &lt;/position>
  &lt;content shadow="0;#64000000;3;3;3" font-underline="0" box-height="165" font="Noto Sans" letter-spacing="0" font-pixel-size="120" font-italic="0" alignment="2" font-weight="75" box-width="315.484" font-color="255,255,255,255">Dank&lt;/content>
 &lt;/item>
 &lt;startviewport rect="0,0,2560,1440"/>
 &lt;endviewport rect="0,0,2560,1440"/>
 &lt;background color="0,0,0,0"/>
&lt;/kdenlivetitle>
</property>
  <property name="kdenlive:folderid">66</property>
  <property name="kdenlive:id">68</property>
  <property name="kdenlive:file_hash">0e62fc90086586a8574a8d1d6499ceb4</property>
  <property name="force_reload">0</property>
  <property name="global_feed">1</property>
  <property name="meta.media.width">2560</property>
  <property name="meta.media.height">1440</property>
 </producer>
 <producer title="Anonymous Submission" id="producer52" in="00:00:00,000" out="00:00:08,480">
  <property name="length">425</property>
  <property name="eof">pause</property>
  <property name="resource"/>
  <property name="progressive">1</property>
  <property name="aspect_ratio">1</property>
  <property name="seekable">1</property>
  <property name="mlt_service">kdenlivetitle</property>
  <property name="kdenlive:duration">250</property>
  <property name="kdenlive:clipname">cutting edge technology</property>
  <property name="xmldata">&lt;kdenlivetitle duration="250" LC_NUMERIC="de_DE.UTF-8" width="2560" height="1440" out="249">
 &lt;item type="QGraphicsTextItem" z-index="0">
  &lt;position x="489" y="740">
   &lt;transform>1,0,0,0,1,0,0,0,1&lt;/transform>
  &lt;/position>
  &lt;content line-spacing="0" shadow="0;#64000000;3;3;3" font-underline="0" box-height="175" font-outline-color="0,0,0,255" font="Noto Sans" letter-spacing="0" font-pixel-size="128" font-italic="0" alignment="2" font-weight="75" font-outline="0" box-width="1582.8" font-color="255,255,255,255">Cutting Edge Technology&lt;/content>
 &lt;/item>
 &lt;startviewport rect="0,0,2560,1440"/>
 &lt;endviewport rect="0,0,2560,1440"/>
 &lt;background color="0,0,0,0"/>
&lt;/kdenlivetitle>
</property>
  <property name="kdenlive:folderid">70</property>
  <property name="kdenlive:id">71</property>
  <property name="kdenlive:file_hash">80349c41436c51b71dd4536d71ca6e7f</property>
  <property name="force_reload">0</property>
  <property name="global_feed">1</property>
  <property name="meta.media.width">2560</property>
  <property name="meta.media.height">1440</property>
 </producer>
 <producer title="Anonymous Submission" id="producer53" in="00:00:00,000" out="00:00:21,980">
  <property name="length">1100</property>
  <property name="eof">pause</property>
  <property name="resource">assets/previews/LoginReducer.mp4</property>
  <property name="audio_index">-1</property>
  <property name="video_index">0</property>
  <property name="mute_on_pause">0</property>
  <property name="mlt_service">avformat-novalidate</property>
  <property name="meta.media.nb_streams">1</property>
  <property name="meta.media.0.stream.type">video</property>
  <property name="meta.media.0.stream.frame_rate">10</property>
  <property name="meta.media.0.stream.sample_aspect_ratio">0</property>
  <property name="meta.media.0.codec.width">654</property>
  <property name="meta.media.0.codec.height">922</property>
  <property name="meta.media.0.codec.rotate">0</property>
  <property name="meta.media.0.codec.frame_rate">10</property>
  <property name="meta.media.0.codec.pix_fmt">yuv420p</property>
  <property name="meta.media.0.codec.sample_aspect_ratio">0</property>
  <property name="meta.media.0.codec.colorspace">601</property>
  <property name="meta.media.0.codec.name">h264</property>
  <property name="meta.media.0.codec.long_name">H.264 / AVC / MPEG-4 AVC / MPEG-4 part 10</property>
  <property name="meta.media.0.codec.bit_rate">254158</property>
  <property name="meta.attr.0.stream.handler_name.markup">VideoHandler</property>
  <property name="meta.attr.major_brand.markup">isom</property>
  <property name="meta.attr.minor_version.markup">512</property>
  <property name="meta.attr.compatible_brands.markup">isomiso2avc1mp41</property>
  <property name="meta.attr.encoder.markup">Lavf58.29.100</property>
  <property name="seekable">1</property>
  <property name="meta.media.sample_aspect_num">1</property>
  <property name="meta.media.sample_aspect_den">1</property>
  <property name="aspect_ratio">1</property>
  <property name="kdenlive:clipname"/>
  <property name="kdenlive:folderid">70</property>
  <property name="meta.media.frame_rate_num">10</property>
  <property name="meta.media.frame_rate_den">1</property>
  <property name="meta.media.colorspace">601</property>
  <property name="meta.media.color_trc">2</property>
  <property name="meta.media.width">654</property>
  <property name="meta.media.height">922</property>
  <property name="meta.media.color_range">mpeg</property>
  <property name="kdenlive:id">72</property>
  <property name="kdenlive:file_size">702317</property>
  <property name="kdenlive:file_hash">027b6da416e8733e38fd698ef335e6aa</property>
  <property name="meta.media.top_field_first">0</property>
  <property name="meta.media.progressive">1</property>
  <property name="global_feed">1</property>
 </producer>
 <producer title="Anonymous Submission" id="producer54" in="00:00:00,000" out="00:00:09,400">
  <property name="length">471</property>
  <property name="eof">pause</property>
  <property name="resource"/>
  <property name="progressive">1</property>
  <property name="aspect_ratio">1</property>
  <property name="seekable">1</property>
  <property name="mlt_service">kdenlivetitle</property>
  <property name="kdenlive:duration">250</property>
  <property name="kdenlive:clipname">zuverlässigen Support</property>
  <property name="xmldata">&lt;kdenlivetitle duration="250" LC_NUMERIC="de_DE.UTF-8" width="2560" height="1440" out="249">
 &lt;item type="QGraphicsTextItem" z-index="0">
  &lt;position x="578" y="740">
   &lt;transform>1,0,0,0,1,0,0,0,1&lt;/transform>
  &lt;/position>
  &lt;content line-spacing="0" shadow="0;#64000000;3;3;3" font-underline="0" box-height="175" font="Noto Sans" letter-spacing="0" font-pixel-size="128" font-italic="0" alignment="2" font-weight="75" box-width="1404.91" font-color="255,255,255,255">Zuverlässiger Support&lt;/content>
 &lt;/item>
 &lt;startviewport rect="0,0,2560,1440"/>
 &lt;endviewport rect="0,0,2560,1440"/>
 &lt;background color="0,0,0,0"/>
&lt;/kdenlivetitle>
</property>
  <property name="kdenlive:folderid">74</property>
  <property name="kdenlive:id">75</property>
  <property name="kdenlive:file_hash">95628a0763253169c6d12b5883abd40e</property>
  <property name="force_reload">0</property>
  <property name="global_feed">1</property>
  <property name="meta.media.width">2560</property>
  <property name="meta.media.height">1440</property>
 </producer>
 <producer title="Anonymous Submission" id="producer55" in="00:00:00,000" out="00:00:18,060">
  <property name="length">904</property>
  <property name="eof">pause</property>
  <property name="resource">assets/previews/Pexels Videos 2795165.mp4</property>
  <property name="audio_index">1</property>
  <property name="video_index">0</property>
  <property name="mute_on_pause">0</property>
  <property name="mlt_service">avformat-novalidate</property>
  <property name="meta.media.nb_streams">2</property>
  <property name="meta.media.0.stream.type">video</property>
  <property name="meta.media.0.stream.frame_rate">25</property>
  <property name="meta.media.0.stream.sample_aspect_ratio">0</property>
  <property name="meta.media.0.codec.width">1920</property>
  <property name="meta.media.0.codec.height">1080</property>
  <property name="meta.media.0.codec.rotate">0</property>
  <property name="meta.media.0.codec.frame_rate">25</property>
  <property name="meta.media.0.codec.pix_fmt">yuv420p</property>
  <property name="meta.media.0.codec.sample_aspect_ratio">0</property>
  <property name="meta.media.0.codec.colorspace">709</property>
  <property name="meta.media.0.codec.color_trc">1</property>
  <property name="meta.media.0.codec.name">h264</property>
  <property name="meta.media.0.codec.long_name">H.264 / AVC / MPEG-4 AVC / MPEG-4 part 10</property>
  <property name="meta.media.0.codec.bit_rate">3693416</property>
  <property name="meta.attr.0.stream.creation_time.markup">2019-08-13T09:22:25.000000Z</property>
  <property name="meta.attr.0.stream.handler_name.markup">L-SMASH Video Handler</property>
  <property name="meta.attr.0.stream.encoder.markup">AVC Coding</property>
  <property name="meta.media.1.stream.type">audio</property>
  <property name="meta.media.1.codec.sample_fmt">fltp</property>
  <property name="meta.media.1.codec.sample_rate">48000</property>
  <property name="meta.media.1.codec.channels">2</property>
  <property name="meta.media.1.codec.name">aac</property>
  <property name="meta.media.1.codec.long_name">AAC (Advanced Audio Coding)</property>
  <property name="meta.media.1.codec.bit_rate">253375</property>
  <property name="meta.attr.1.stream.creation_time.markup">2019-08-13T09:22:25.000000Z</property>
  <property name="meta.attr.1.stream.handler_name.markup">L-SMASH Audio Handler</property>
  <property name="meta.attr.major_brand.markup">mp42</property>
  <property name="meta.attr.minor_version.markup">0</property>
  <property name="meta.attr.compatible_brands.markup">mp42mp41isomavc1</property>
  <property name="meta.attr.creation_time.markup">2019-08-13T09:22:25.000000Z</property>
  <property name="seekable">1</property>
  <property name="meta.media.sample_aspect_num">1</property>
  <property name="meta.media.sample_aspect_den">1</property>
  <property name="aspect_ratio">1</property>
  <property name="kdenlive:clipname"/>
  <property name="kdenlive:folderid">74</property>
  <property name="meta.media.frame_rate_num">25</property>
  <property name="meta.media.frame_rate_den">1</property>
  <property name="meta.media.colorspace">709</property>
  <property name="meta.media.color_trc">1</property>
  <property name="meta.media.width">1920</property>
  <property name="meta.media.height">1080</property>
  <property name="meta.media.color_range">mpeg</property>
  <property name="kdenlive:id">76</property>
  <property name="kdenlive:file_size">8930919</property>
  <property name="kdenlive:file_hash">3e766b8b969e993cc4d04ebf09513878</property>
  <property name="meta.media.top_field_first">0</property>
  <property name="meta.media.progressive">1</property>
  <property name="global_feed">1</property>
 </producer>
 <producer title="Anonymous Submission" id="producer56" in="00:00:00,000" out="00:00:12,680">
  <property name="length">635</property>
  <property name="eof">pause</property>
  <property name="resource"/>
  <property name="progressive">1</property>
  <property name="aspect_ratio">1</property>
  <property name="seekable">1</property>
  <property name="mlt_service">kdenlivetitle</property>
  <property name="kdenlive:duration">250</property>
  <property name="kdenlive:clipname">modernste Sicherheitsstandards</property>
  <property name="xmldata">&lt;kdenlivetitle duration="250" LC_NUMERIC="de_DE.UTF-8" width="2560" height="1440" out="249">
 &lt;item type="QGraphicsTextItem" z-index="0">
  &lt;position x="239" y="740">
   &lt;transform>1,0,0,0,1,0,0,0,1&lt;/transform>
  &lt;/position>
  &lt;content line-spacing="0" shadow="0;#64000000;3;3;3" font-underline="0" box-height="175" font="Noto Sans" letter-spacing="0" font-pixel-size="128" font-italic="0" alignment="2" font-weight="75" box-width="2076.97" font-color="255,255,255,255">Modernste Sicherheitsstandards&lt;/content>
 &lt;/item>
 &lt;startviewport rect="0,0,2560,1440"/>
 &lt;endviewport rect="0,0,2560,1440"/>
 &lt;background color="0,0,0,0"/>
&lt;/kdenlivetitle>
</property>
  <property name="kdenlive:folderid">73</property>
  <property name="kdenlive:id">77</property>
  <property name="kdenlive:file_hash">e91f91ac12a45567cee01b7ba8d5cb05</property>
  <property name="force_reload">0</property>
  <property name="global_feed">1</property>
  <property name="meta.media.width">2560</property>
  <property name="meta.media.height">1440</property>
 </producer>
 <producer title="Anonymous Submission" id="producer57" in="00:00:00,000" out="00:00:12,340">
  <property name="length">618</property>
  <property name="eof">pause</property>
  <property name="resource">assets/previews/pexels-mikhail-nilov-6963744.mp4</property>
  <property name="audio_index">-1</property>
  <property name="video_index">0</property>
  <property name="mute_on_pause">0</property>
  <property name="mlt_service">avformat-novalidate</property>
  <property name="meta.media.nb_streams">1</property>
  <property name="meta.media.0.stream.type">video</property>
  <property name="meta.media.0.stream.frame_rate">25</property>
  <property name="meta.media.0.stream.sample_aspect_ratio">0</property>
  <property name="meta.media.0.codec.width">1920</property>
  <property name="meta.media.0.codec.height">1080</property>
  <property name="meta.media.0.codec.rotate">0</property>
  <property name="meta.media.0.codec.frame_rate">25</property>
  <property name="meta.media.0.codec.pix_fmt">yuv420p</property>
  <property name="meta.media.0.codec.sample_aspect_ratio">0</property>
  <property name="meta.media.0.codec.colorspace">709</property>
  <property name="meta.media.0.codec.color_trc">1</property>
  <property name="meta.media.0.codec.name">h264</property>
  <property name="meta.media.0.codec.long_name">H.264 / AVC / MPEG-4 AVC / MPEG-4 part 10</property>
  <property name="meta.media.0.codec.bit_rate">5057004</property>
  <property name="meta.attr.0.stream.creation_time.markup">2021-02-26T10:56:27.000000Z</property>
  <property name="meta.attr.0.stream.handler_name.markup">L-SMASH Video Handler</property>
  <property name="meta.attr.0.stream.encoder.markup">AVC Coding</property>
  <property name="meta.attr.major_brand.markup">mp42</property>
  <property name="meta.attr.minor_version.markup">0</property>
  <property name="meta.attr.compatible_brands.markup">mp42mp41isomavc1</property>
  <property name="meta.attr.creation_time.markup">2021-02-26T10:56:27.000000Z</property>
  <property name="seekable">1</property>
  <property name="meta.media.sample_aspect_num">1</property>
  <property name="meta.media.sample_aspect_den">1</property>
  <property name="aspect_ratio">1</property>
  <property name="kdenlive:clipname"/>
  <property name="kdenlive:folderid">73</property>
  <property name="meta.media.frame_rate_num">25</property>
  <property name="meta.media.frame_rate_den">1</property>
  <property name="meta.media.colorspace">709</property>
  <property name="meta.media.color_trc">1</property>
  <property name="meta.media.width">1920</property>
  <property name="meta.media.height">1080</property>
  <property name="meta.media.color_range">mpeg</property>
  <property name="kdenlive:id">78</property>
  <property name="kdenlive:file_size">7817990</property>
  <property name="kdenlive:file_hash">13ede75461523aefe885210dec62828e</property>
  <property name="meta.media.top_field_first">0</property>
  <property name="meta.media.progressive">1</property>
  <property name="global_feed">1</property>
 </producer>
 <producer title="Anonymous Submission" id="producer58" in="00:00:00,000" out="00:00:12,680">
  <property name="length">635</property>
  <property name="eof">pause</property>
  <property name="resource"/>
  <property name="progressive">1</property>
  <property name="aspect_ratio">1</property>
  <property name="seekable">1</property>
  <property name="mlt_service">kdenlivetitle</property>
  <property name="kdenlive:duration">250</property>
  <property name="kdenlive:clipname">Bereit für die Zukunft?</property>
  <property name="xmldata">&lt;kdenlivetitle duration="250" LC_NUMERIC="de_DE.UTF-8" width="2560" height="1440" out="249">
 &lt;item type="QGraphicsTextItem" z-index="0">
  &lt;position x="557" y="632">
   &lt;transform>1,0,0,0,1,0,0,0,1&lt;/transform>
  &lt;/position>
  &lt;content line-spacing="0" shadow="0;#64000000;3;3;3" font-underline="0" box-height="175" font="Noto Sans" letter-spacing="0" font-pixel-size="128" font-italic="0" alignment="2" font-weight="75" box-width="1446.52" font-color="255,255,255,255">Bereit für die Zukunft?&lt;/content>
 &lt;/item>
 &lt;startviewport rect="0,0,2560,1440"/>
 &lt;endviewport rect="0,0,2560,1440"/>
 &lt;background color="0,0,0,0"/>
&lt;/kdenlivetitle>
</property>
  <property name="kdenlive:folderid">79</property>
  <property name="kdenlive:id">80</property>
  <property name="kdenlive:file_hash">c3011b8c67cabdbace66549f924266bc</property>
  <property name="force_reload">0</property>
  <property name="global_feed">1</property>
  <property name="meta.media.width">2560</property>
  <property name="meta.media.height">1440</property>
 </producer>
 <producer id="producer59" in="00:00:00,000" out="00:00:12,680">
  <property name="length">635</property>
  <property name="eof">pause</property>
  <property name="resource"/>
  <property name="progressive">1</property>
  <property name="aspect_ratio">1</property>
  <property name="seekable">1</property>
  <property name="mlt_service">kdenlivetitle</property>
  <property name="kdenlive:duration">250</property>
  <property name="kdenlive:clipname">Geh jetzt auf ...</property>
  <property name="xmldata">&lt;kdenlivetitle duration="250" LC_NUMERIC="de_DE.UTF-8" width="2560" height="1440" out="249">
 &lt;item type="QGraphicsTextItem" z-index="0">
  &lt;position x="450" y="546">
   &lt;transform>1,0,0,0,1,0,0,0,1&lt;/transform>
  &lt;/position>
  &lt;content line-spacing="0" shadow="0;#64000000;3;3;3" font-underline="0" box-height="348" font-outline-color="0,0,0,255" font="Noto Sans" letter-spacing="0" font-pixel-size="128" font-italic="0" alignment="4" font-weight="75" font-outline="0" box-width="1660.47" font-color="255,255,255,255">Geh jetzt auf
grademe.sillyscientists.de&lt;/content>
 &lt;/item>
 &lt;startviewport rect="0,0,2560,1440"/>
 &lt;endviewport rect="0,0,2560,1440"/>
 &lt;background color="0,0,0,0"/>
&lt;/kdenlivetitle>
</property>
  <property name="kdenlive:folderid">79</property>
  <property name="kdenlive:id">81</property>
  <property name="kdenlive:file_hash">0dc9bf14c5817fb7ea3d8a45b4ed7523</property>
  <property name="force_reload">0</property>
  <property name="global_feed">1</property>
  <property name="meta.media.width">2560</property>
  <property name="meta.media.height">1440</property>
 </producer>
 <playlist id="main_bin">
  <property name="kdenlive:folder.-1.14">klassenbücher sind...</property>
  <property name="kdenlive:folder.-1.15">darum präsentieren wir</property>
  <property name="kdenlive:folder.-1.16">G R A D E M E</property>
  <property name="kdenlive:folder.-1.23">GradeMe ist</property>
  <property name="kdenlive:folder.-1.28">übersichtlich</property>
  <property name="kdenlive:folder.-1.35">schnell</property>
  <property name="kdenlive:folder.-1.36">transparent</property>
  <property name="kdenlive:folder.-1.37">sicher</property>
  <property name="kdenlive:folder.-1.38">immer erreichbar</property>
  <property name="kdenlive:folder.-1.39">überall erreichbar</property>
  <property name="kdenlive:folder.-1.56">lehrer Überblick</property>
  <property name="kdenlive:folder.-1.60">schüler noten</property>
  <property name="kdenlive:folder.-1.63">admin verwaltung</property>
  <property name="kdenlive:folder.-1.66">alles dank</property>
  <property name="kdenlive:folder.-1.70">cutting-edge-technology</property>
  <property name="kdenlive:folder.-1.74">zuverlässigen Support</property>
  <property name="kdenlive:folder.-1.73">Sicherheitsstds</property>
  <property name="kdenlive:folder.-1.79">Ende</property>
  <property name="kdenlive:folder.60.69">Folder</property>
  <property name="kdenlive:docproperties.activeTrack">4</property>
  <property name="kdenlive:docproperties.audioTarget">-1</property>
  <property name="kdenlive:docproperties.decimalPoint">,</property>
  <property name="kdenlive:docproperties.dirtypreviewchunks">0,25,50,75,100,125,150,175,200,225,250,275,300,325,350,375,400,425,450,475,500,525,550,575,600,625,650,675,700,725,750,775,800,825,850,875,900,925,950,975,1000,1025,1050,1075,1100,1125,1150,1175,1200,1225,1250,1275,1300,1325,1350,1375,1400,1425,1450,1475,1500,1525,1550,1575,1600,1625,1650,1675,1700,1725,1750,1775,1800,1825,1850,1875,1900,1925,1950,1975,2000,2025,2050,2075,2100,2125,2150,2175,2200,2225,2250,2275,2300,2325</property>
  <property name="kdenlive:docproperties.disablepreview">0</property>
  <property name="kdenlive:docproperties.documentid">1614698408572</property>
  <property name="kdenlive:docproperties.enableTimelineZone">0</property>
  <property name="kdenlive:docproperties.enableexternalproxy">0</property>
  <property name="kdenlive:docproperties.enableproxy">0</property>
  <property name="kdenlive:docproperties.externalproxyparams"/>
  <property name="kdenlive:docproperties.generateimageproxy">0</property>
  <property name="kdenlive:docproperties.generateproxy">0</property>
  <property name="kdenlive:docproperties.groups">[
    {
        "children": [
            {
                "data": "9:1478",
                "leaf": "clip",
                "type": "Leaf"
            },
            {
                "data": "7:1478",
                "leaf": "clip",
                "type": "Leaf"
            },
            {
                "data": "8:1478",
                "leaf": "clip",
                "type": "Leaf"
            },
            {
                "data": "6:1478",
                "leaf": "clip",
                "type": "Leaf"
            }
        ],
        "type": "Normal"
    },
    {
        "children": [
            {
                "data": "4:2780",
                "leaf": "clip",
                "type": "Leaf"
            },
            {
                "data": "4:2678",
                "leaf": "clip",
                "type": "Leaf"
            }
        ],
        "type": "Normal"
    },
    {
        "children": [
            {
                "data": "4:2209",
                "leaf": "clip",
                "type": "Leaf"
            },
            {
                "data": "4:2285",
                "leaf": "clip",
                "type": "Leaf"
            },
            {
                "data": "4:2360",
                "leaf": "clip",
                "type": "Leaf"
            },
            {
                "data": "4:2409",
                "leaf": "clip",
                "type": "Leaf"
            },
            {
                "data": "4:2480",
                "leaf": "clip",
                "type": "Leaf"
            }
        ],
        "type": "Normal"
    },
    {
        "children": [
            {
                "data": "3:3980",
                "leaf": "clip",
                "type": "Leaf"
            },
            {
                "data": "0:3980",
                "leaf": "clip",
                "type": "Leaf"
            }
        ],
        "type": "AVSplit"
    }
]
</property>
  <property name="kdenlive:docproperties.kdenliveversion">19.12.3</property>
  <property name="kdenlive:docproperties.position">4284</property>
  <property name="kdenlive:docproperties.previewchunks"/>
  <property name="kdenlive:docproperties.previewextension">mkv</property>
  <property name="kdenlive:docproperties.previewparameters">vcodec=h264_vaapi g=1 bf=0 profile=578</property>
  <property name="kdenlive:docproperties.profile">qhd_1440p_50</property>
  <property name="kdenlive:docproperties.proxyextension"/>
  <property name="kdenlive:docproperties.proxyimageminsize">2000</property>
  <property name="kdenlive:docproperties.proxyimagesize">800</property>
  <property name="kdenlive:docproperties.proxyminsize">1000</property>
  <property name="kdenlive:docproperties.proxyparams"/>
  <property name="kdenlive:docproperties.renderaudioquality">192</property>
  <property name="kdenlive:docproperties.rendercategory">Generic (HD for web, mobile devices...)</property>
  <property name="kdenlive:docproperties.renderendguide">-1</property>
  <property name="kdenlive:docproperties.renderexportaudio">0</property>
  <property name="kdenlive:docproperties.renderfield">0</property>
  <property name="kdenlive:docproperties.renderguide">0</property>
  <property name="kdenlive:docproperties.renderplay">0</property>
  <property name="kdenlive:docproperties.renderprofile">MP4 - the dominating format (H264/AAC)</property>
  <property name="kdenlive:docproperties.renderquality">23</property>
  <property name="kdenlive:docproperties.renderratio">1</property>
  <property name="kdenlive:docproperties.renderrescale">0</property>
  <property name="kdenlive:docproperties.renderrescaleheight">720</property>
  <property name="kdenlive:docproperties.renderrescalewidth">1280</property>
  <property name="kdenlive:docproperties.renderscanning">0</property>
  <property name="kdenlive:docproperties.renderspeed">2</property>
  <property name="kdenlive:docproperties.renderstartguide">-1</property>
  <property name="kdenlive:docproperties.rendertcoverlay">0</property>
  <property name="kdenlive:docproperties.rendertctype">0</property>
  <property name="kdenlive:docproperties.rendertwopass">0</property>
  <property name="kdenlive:docproperties.renderurl">exports/video-teaser.mp4</property>
  <property name="kdenlive:docproperties.renderzone">1</property>
  <property name="kdenlive:docproperties.scrollPos">0</property>
  <property name="kdenlive:docproperties.seekOffset">30000</property>
  <property name="kdenlive:docproperties.version">0.99</property>
  <property name="kdenlive:docproperties.verticalzoom">1</property>
  <property name="kdenlive:docproperties.videoTarget">2</property>
  <property name="kdenlive:docproperties.zonein">0</property>
  <property name="kdenlive:docproperties.zoneout">5101</property>
  <property name="kdenlive:docproperties.zoom">10</property>
  <property name="kdenlive:documentnotes"/>
  <property name="xml_retain">1</property>
  <entry producer="producer0" in="00:00:00,000" out="00:01:42,000"/>
  <entry producer="producer1" in="00:00:00,000" out="00:01:44,980"/>
  <entry producer="producer3" in="00:00:00,000" out="00:01:45,880"/>
  <entry producer="producer2" in="00:00:00,000" out="00:00:07,960"/>
  <entry producer="producer7" in="00:00:00,000" out="00:00:04,980"/>
  <entry producer="producer4" in="00:00:00,000" out="00:00:07,960"/>
  <entry producer="producer6" in="00:00:00,000" out="00:00:04,980"/>
  <entry producer="producer5" in="00:00:00,000" out="00:00:04,980"/>
  <entry producer="producer8" in="00:00:00,000" out="00:00:04,980"/>
  <entry producer="producer9" in="00:00:00,000" out="00:00:07,960"/>
  <entry producer="producer10" in="00:00:00,000" out="00:00:07,960"/>
  <entry producer="producer11" in="00:00:00,000" out="00:00:07,960"/>
  <entry producer="producer12" in="00:00:00,000" out="00:00:07,960"/>
  <entry producer="producer13" in="00:00:00,000" out="00:00:07,960"/>
  <entry producer="producer14" in="00:00:00,000" out="00:00:07,960"/>
  <entry producer="producer15" in="00:00:00,000" out="00:00:07,960"/>
  <entry producer="producer16" in="00:00:00,000" out="00:00:07,960"/>
  <entry producer="producer17" in="00:00:00,000" out="00:00:07,960"/>
  <entry producer="producer18" in="00:00:00,000" out="00:00:07,960"/>
  <entry producer="producer19" in="00:00:00,000" out="00:00:07,960"/>
  <entry producer="producer20" in="00:00:00,000" out="00:00:21,100"/>
  <entry producer="producer21" in="00:00:00,000" out="00:00:20,240"/>
  <entry producer="producer22" in="00:00:00,000" out="00:00:08,480"/>
  <entry producer="producer27" in="00:00:00,000" out="00:00:08,480"/>
  <entry producer="producer24" in="00:00:00,000" out="00:00:08,480"/>
  <entry producer="producer23" in="00:00:00,000" out="00:00:08,480"/>
  <entry producer="producer25" in="00:00:00,000" out="00:00:08,480"/>
  <entry producer="producer26" in="00:00:00,000" out="00:00:08,480"/>
  <entry producer="producer28" in="00:00:00,000" out="00:00:04,980"/>
  <entry producer="producer29" in="00:00:00,000" out="00:00:04,980"/>
  <entry producer="producer30" in="00:00:00,000" out="00:00:04,980"/>
  <entry producer="producer34" in="00:00:00,000" out="00:00:04,980"/>
  <entry producer="producer35" in="00:00:00,000" out="00:00:04,980"/>
  <entry producer="producer36" in="00:00:00,000" out="00:00:04,980"/>
  <entry producer="producer37" in="00:00:00,000" out="00:00:04,980"/>
  <entry producer="producer38" in="00:00:00,000" out="00:00:04,980"/>
  <entry producer="producer39" in="00:00:00,000" out="00:00:04,980"/>
  <entry producer="producer40" in="00:00:00,000" out="00:00:04,980"/>
  <entry producer="producer41" in="00:00:00,000" out="00:00:04,980"/>
  <entry producer="producer42" in="00:00:00,000" out="00:00:04,980"/>
  <entry producer="producer43" in="00:00:00,000" out="00:00:04,980"/>
  <entry producer="producer31" in="00:00:00,000" out="00:00:31,480"/>
  <entry producer="producer32" in="00:00:00,000" out="00:00:27,180"/>
  <entry producer="producer33" in="00:00:00,000" out="00:00:11,380"/>
  <entry producer="producer44" in="00:00:00,000" out="00:00:31,480"/>
  <entry producer="producer45" in="00:00:00,000" out="00:00:31,480"/>
  <entry producer="producer46" in="00:00:00,000" out="00:00:16,780"/>
  <entry producer="producer47" in="00:00:00,000" out="00:00:04,980"/>
  <entry producer="producer48" in="00:00:00,000" out="00:00:04,980"/>
  <entry producer="producer49" in="00:00:00,000" out="00:00:04,980"/>
  <entry producer="producer50" in="00:00:00,000" out="00:00:07,960"/>
  <entry producer="producer51" in="00:00:00,000" out="00:00:07,960"/>
  <entry producer="producer52" in="00:00:00,000" out="00:00:08,480"/>
  <entry producer="producer53" in="00:00:00,000" out="00:00:21,980"/>
  <entry producer="producer54" in="00:00:00,000" out="00:00:09,400"/>
  <entry producer="producer55" in="00:00:00,000" out="00:00:18,060"/>
  <entry producer="producer56" in="00:00:00,000" out="00:00:12,680"/>
  <entry producer="producer57" in="00:00:00,000" out="00:00:12,340"/>
  <entry producer="producer58" in="00:00:00,000" out="00:00:12,680"/>
  <entry producer="producer59" in="00:00:00,000" out="00:00:12,680"/>
 </playlist>
 <producer id="black_track" in="00:00:00,000" out="00:11:42,020">
  <property name="length">2147483647</property>
  <property name="eof">continue</property>
  <property name="resource">black</property>
  <property name="aspect_ratio">1</property>
  <property name="mlt_service">color</property>
  <property name="mlt_image_format">rgb24a</property>
  <property name="set.test_audio">0</property>
 </producer>
 <producer title="Anonymous Submission" id="producer60" in="00:00:00,000" out="00:00:18,060">
  <property name="length">904</property>
  <property name="eof">pause</property>
  <property name="resource">assets/previews/Pexels Videos 2795165.mp4</property>
  <property name="audio_index">1</property>
  <property name="video_index">0</property>
  <property name="mute_on_pause">0</property>
  <property name="mlt_service">avformat-novalidate</property>
  <property name="seekable">1</property>
  <property name="aspect_ratio">1</property>
  <property name="kdenlive:clipname"/>
  <property name="kdenlive:folderid">74</property>
  <property name="kdenlive:id">76</property>
  <property name="kdenlive:file_size">8930919</property>
  <property name="kdenlive:file_hash">3e766b8b969e993cc4d04ebf09513878</property>
  <property name="global_feed">1</property>
  <property name="xml">was here</property>
  <property name="meta.media.nb_streams">2</property>
  <property name="meta.media.0.stream.type">video</property>
  <property name="meta.media.0.stream.frame_rate">25</property>
  <property name="meta.media.0.stream.sample_aspect_ratio">0</property>
  <property name="meta.media.0.codec.width">1920</property>
  <property name="meta.media.0.codec.height">1080</property>
  <property name="meta.media.0.codec.rotate">0</property>
  <property name="meta.media.0.codec.frame_rate">25</property>
  <property name="meta.media.0.codec.pix_fmt">yuv420p</property>
  <property name="meta.media.0.codec.sample_aspect_ratio">0</property>
  <property name="meta.media.0.codec.colorspace">709</property>
  <property name="meta.media.0.codec.color_trc">1</property>
  <property name="meta.media.0.codec.name">h264</property>
  <property name="meta.media.0.codec.long_name">H.264 / AVC / MPEG-4 AVC / MPEG-4 part 10</property>
  <property name="meta.media.0.codec.bit_rate">3693416</property>
  <property name="meta.attr.0.stream.creation_time.markup">2019-08-13T09:22:25.000000Z</property>
  <property name="meta.attr.0.stream.handler_name.markup">L-SMASH Video Handler</property>
  <property name="meta.attr.0.stream.encoder.markup">AVC Coding</property>
  <property name="meta.media.1.stream.type">audio</property>
  <property name="meta.media.1.codec.sample_fmt">fltp</property>
  <property name="meta.media.1.codec.sample_rate">48000</property>
  <property name="meta.media.1.codec.channels">2</property>
  <property name="meta.media.1.codec.name">aac</property>
  <property name="meta.media.1.codec.long_name">AAC (Advanced Audio Coding)</property>
  <property name="meta.media.1.codec.bit_rate">253375</property>
  <property name="meta.attr.1.stream.creation_time.markup">2019-08-13T09:22:25.000000Z</property>
  <property name="meta.attr.1.stream.handler_name.markup">L-SMASH Audio Handler</property>
  <property name="meta.attr.major_brand.markup">mp42</property>
  <property name="meta.attr.minor_version.markup">0</property>
  <property name="meta.attr.compatible_brands.markup">mp42mp41isomavc1</property>
  <property name="meta.attr.creation_time.markup">2019-08-13T09:22:25.000000Z</property>
  <property name="meta.media.sample_aspect_num">1</property>
  <property name="meta.media.sample_aspect_den">1</property>
  <property name="meta.media.frame_rate_num">25</property>
  <property name="meta.media.frame_rate_den">1</property>
  <property name="meta.media.colorspace">709</property>
  <property name="meta.media.color_trc">1</property>
  <property name="meta.media.width">1920</property>
  <property name="meta.media.height">1080</property>
  <property name="meta.media.color_range">mpeg</property>
  <property name="meta.media.top_field_first">0</property>
  <property name="meta.media.progressive">1</property>
  <property name="set.test_audio">0</property>
  <property name="set.test_image">1</property>
 </producer>
 <playlist id="playlist0">
  <property name="kdenlive:audio_track">1</property>
  <blank length="00:01:19,600"/>
  <entry producer="producer60" in="00:00:00,000" out="00:00:03,340">
   <property name="kdenlive:id">76</property>
  </entry>
  <filter id="filter0">
   <property name="window">75</property>
   <property name="max_gain">20dB</property>
   <property name="mlt_service">volume</property>
   <property name="internal_added">237</property>
   <property name="disable">1</property>
  </filter>
  <filter id="filter1">
   <property name="channel">-1</property>
   <property name="mlt_service">panner</property>
   <property name="internal_added">237</property>
   <property name="start">0,5</property>
   <property name="disable">1</property>
  </filter>
 </playlist>
 <playlist id="playlist1">
  <property name="kdenlive:audio_track">1</property>
 </playlist>
 <tractor id="tractor0" in="00:00:00,000" out="00:01:22,940">
  <property name="kdenlive:audio_track">1</property>
  <property name="kdenlive:trackheight">60</property>
  <property name="kdenlive:collapsed">0</property>
  <property name="kdenlive:thumbs_format"/>
  <property name="kdenlive:audio_rec"/>
  <property name="kdenlive:timeline_active"/>
  <track hide="video" producer="playlist0"/>
  <track hide="video" producer="playlist1"/>
  <filter id="filter2">
   <property name="iec_scale">0</property>
   <property name="mlt_service">audiolevel</property>
  </filter>
 </tractor>
 <producer title="Anonymous Submission" id="producer61" in="00:00:00,000" out="00:01:42,000">
  <property name="length">5101</property>
  <property name="eof">pause</property>
  <property name="resource">assets/infraction-dropyoulike/Infraction-[NoCopyrightMusic]_Drop_You_Like.webm</property>
  <property name="meta.media.nb_streams">1</property>
  <property name="meta.media.0.stream.type">audio</property>
  <property name="meta.media.0.codec.sample_fmt">fltp</property>
  <property name="meta.media.0.codec.sample_rate">48000</property>
  <property name="meta.media.0.codec.channels">2</property>
  <property name="meta.media.0.codec.name">opus</property>
  <property name="meta.media.0.codec.long_name">Opus</property>
  <property name="meta.media.0.codec.bit_rate">0</property>
  <property name="meta.attr.0.stream.language.markup">eng</property>
  <property name="meta.attr.encoder.markup">google/video-file</property>
  <property name="seekable">1</property>
  <property name="audio_index">0</property>
  <property name="video_index">-1</property>
  <property name="mute_on_pause">0</property>
  <property name="mlt_service">avformat-novalidate</property>
  <property name="kdenlive:clipname"/>
  <property name="kdenlive:folderid">-1</property>
  <property name="kdenlive:id">2</property>
  <property name="kdenlive:file_size">1764830</property>
  <property name="kdenlive:file_hash">187edbda484154d30c894afdb3347be9</property>
  <property name="global_feed">1</property>
  <property name="xml">was here</property>
  <property name="set.test_audio">0</property>
  <property name="set.test_image">1</property>
 </producer>
 <playlist id="playlist2">
  <property name="kdenlive:audio_track">1</property>
  <entry producer="producer61" in="00:00:00,000" out="00:01:42,000">
   <property name="kdenlive:id">2</property>
  </entry>
  <filter id="filter3">
   <property name="window">75</property>
   <property name="max_gain">20dB</property>
   <property name="mlt_service">volume</property>
   <property name="internal_added">237</property>
   <property name="disable">1</property>
  </filter>
  <filter id="filter4">
   <property name="channel">-1</property>
   <property name="mlt_service">panner</property>
   <property name="internal_added">237</property>
   <property name="start">0,5</property>
   <property name="disable">1</property>
  </filter>
 </playlist>
 <playlist id="playlist3">
  <property name="kdenlive:audio_track">1</property>
 </playlist>
 <tractor id="tractor1" in="00:00:00,000" out="00:01:42,000">
  <property name="kdenlive:audio_track">1</property>
  <property name="kdenlive:trackheight">60</property>
  <property name="kdenlive:collapsed">0</property>
  <property name="kdenlive:thumbs_format"/>
  <property name="kdenlive:audio_rec"/>
  <property name="kdenlive:timeline_active">1</property>
  <track hide="video" producer="playlist2"/>
  <track hide="video" producer="playlist3"/>
  <filter id="filter5">
   <property name="iec_scale">0</property>
   <property name="mlt_service">audiolevel</property>
  </filter>
 </tractor>
 <playlist id="playlist4">
  <entry producer="producer3" in="00:00:00,000" out="00:01:42,000">
   <property name="kdenlive:id">5</property>
   <filter id="filter6" out="00:00:00,640">
    <property name="start">0</property>
    <property name="mlt_service">brightness</property>
    <property name="kdenlive_id">fade_from_black</property>
    <property name="end">1</property>
    <property name="alpha">1</property>
    <property name="kdenlive:collapsed">0</property>
   </filter>
   <filter id="filter7" in="00:01:41,360" out="00:01:42,000">
    <property name="start">1</property>
    <property name="mlt_service">brightness</property>
    <property name="kdenlive_id">fade_to_black</property>
    <property name="end">0</property>
    <property name="alpha">1</property>
    <property name="kdenlive:collapsed">0</property>
   </filter>
  </entry>
 </playlist>
 <playlist id="playlist5"/>
 <tractor id="tractor2" in="00:00:00,000" out="00:01:42,000">
  <property name="kdenlive:trackheight">60</property>
  <property name="kdenlive:collapsed">0</property>
  <property name="kdenlive:thumbs_format"/>
  <property name="kdenlive:audio_rec"/>
  <property name="kdenlive:timeline_active">1</property>
  <track hide="audio" producer="playlist4"/>
  <track hide="audio" producer="playlist5"/>
 </tractor>
 <producer title="Anonymous Submission" id="producer62" in="00:00:00,000" out="00:00:18,060">
  <property name="length">904</property>
  <property name="eof">pause</property>
  <property name="resource">assets/previews/Pexels Videos 2795165.mp4</property>
  <property name="audio_index">1</property>
  <property name="video_index">0</property>
  <property name="mute_on_pause">0</property>
  <property name="mlt_service">avformat-novalidate</property>
  <property name="seekable">1</property>
  <property name="aspect_ratio">1</property>
  <property name="kdenlive:clipname"/>
  <property name="kdenlive:folderid">74</property>
  <property name="kdenlive:id">76</property>
  <property name="kdenlive:file_size">8930919</property>
  <property name="kdenlive:file_hash">3e766b8b969e993cc4d04ebf09513878</property>
  <property name="global_feed">1</property>
  <property name="xml">was here</property>
  <property name="meta.media.nb_streams">2</property>
  <property name="meta.media.0.stream.type">video</property>
  <property name="meta.media.0.stream.frame_rate">25</property>
  <property name="meta.media.0.stream.sample_aspect_ratio">0</property>
  <property name="meta.media.0.codec.width">1920</property>
  <property name="meta.media.0.codec.height">1080</property>
  <property name="meta.media.0.codec.rotate">0</property>
  <property name="meta.media.0.codec.frame_rate">25</property>
  <property name="meta.media.0.codec.pix_fmt">yuv420p</property>
  <property name="meta.media.0.codec.sample_aspect_ratio">0</property>
  <property name="meta.media.0.codec.colorspace">709</property>
  <property name="meta.media.0.codec.color_trc">1</property>
  <property name="meta.media.0.codec.name">h264</property>
  <property name="meta.media.0.codec.long_name">H.264 / AVC / MPEG-4 AVC / MPEG-4 part 10</property>
  <property name="meta.media.0.codec.bit_rate">3693416</property>
  <property name="meta.attr.0.stream.creation_time.markup">2019-08-13T09:22:25.000000Z</property>
  <property name="meta.attr.0.stream.handler_name.markup">L-SMASH Video Handler</property>
  <property name="meta.attr.0.stream.encoder.markup">AVC Coding</property>
  <property name="meta.media.1.stream.type">audio</property>
  <property name="meta.media.1.codec.sample_fmt">fltp</property>
  <property name="meta.media.1.codec.sample_rate">48000</property>
  <property name="meta.media.1.codec.channels">2</property>
  <property name="meta.media.1.codec.name">aac</property>
  <property name="meta.media.1.codec.long_name">AAC (Advanced Audio Coding)</property>
  <property name="meta.media.1.codec.bit_rate">253375</property>
  <property name="meta.attr.1.stream.creation_time.markup">2019-08-13T09:22:25.000000Z</property>
  <property name="meta.attr.1.stream.handler_name.markup">L-SMASH Audio Handler</property>
  <property name="meta.attr.major_brand.markup">mp42</property>
  <property name="meta.attr.minor_version.markup">0</property>
  <property name="meta.attr.compatible_brands.markup">mp42mp41isomavc1</property>
  <property name="meta.attr.creation_time.markup">2019-08-13T09:22:25.000000Z</property>
  <property name="meta.media.sample_aspect_num">1</property>
  <property name="meta.media.sample_aspect_den">1</property>
  <property name="meta.media.frame_rate_num">25</property>
  <property name="meta.media.frame_rate_den">1</property>
  <property name="meta.media.colorspace">709</property>
  <property name="meta.media.color_trc">1</property>
  <property name="meta.media.width">1920</property>
  <property name="meta.media.height">1080</property>
  <property name="meta.media.color_range">mpeg</property>
  <property name="meta.media.top_field_first">0</property>
  <property name="meta.media.progressive">1</property>
  <property name="set.test_audio">1</property>
  <property name="set.test_image">0</property>
 </producer>
 <playlist id="playlist6">
  <blank length="00:00:01,700"/>
  <entry producer="producer2" in="00:00:00,000" out="00:00:07,120">
   <property name="kdenlive:id">4</property>
   <filter id="filter8">
    <property name="background">colour:0</property>
    <property name="mlt_service">affine</property>
    <property name="kdenlive_id">affinerotate</property>
    <property name="transition.rotate_x">0=0;6~=0;349~=0;356~=0</property>
    <property name="transition.rotate_y">0=-90;6~=0;349~=0;356~=90</property>
    <property name="transition.rotate_z">0=0;6~=0;349~=0;356~=0</property>
    <property name="transition.ox">0=0;6~=0;349~=0;356~=0</property>
    <property name="transition.oy">0=0;6~=0;349~=0;356~=0</property>
    <property name="producer.resource">0x00000000</property>
    <property name="transition.keyed">1</property>
    <property name="transition.always_active">1</property>
    <property name="kdenlive:collapsed">0</property>
   </filter>
   <filter id="filter9">
    <property name="rotate_center">1</property>
    <property name="mlt_service">qtblend</property>
    <property name="kdenlive_id">qtblend</property>
    <property name="rect">00:00:00,000=0 -103 2560 1440 1</property>
    <property name="rotation">00:00:00,000=0</property>
    <property name="compositing">0</property>
    <property name="distort">0</property>
    <property name="kdenlive:collapsed">0</property>
   </filter>
  </entry>
  <blank length="00:00:01,520"/>
  <entry producer="producer11" in="00:00:00,000" out="00:00:02,580">
   <property name="kdenlive:id">11</property>
   <filter id="filter10">
    <property name="background">colour:0</property>
    <property name="mlt_service">affine</property>
    <property name="kdenlive_id">affinerotate</property>
    <property name="transition.rotate_x">0=0;9~=0;118~=0;129=0</property>
    <property name="transition.rotate_y">0=-90;9~=0;118~=0;129=86,6821</property>
    <property name="transition.rotate_z">0=0;9~=0;118~=0;129=0</property>
    <property name="transition.ox">0=0;9~=0;118~=0;129=0</property>
    <property name="transition.oy">0=0;9~=0;118~=0;129=0</property>
    <property name="producer.resource">0x00000000</property>
    <property name="transition.keyed">1</property>
    <property name="transition.always_active">1</property>
    <property name="kdenlive:collapsed">0</property>
   </filter>
   <filter id="filter11">
    <property name="rotate_center">1</property>
    <property name="mlt_service">qtblend</property>
    <property name="kdenlive_id">qtblend</property>
    <property name="rect">00:00:00,000=0 -103 2560 1440 1</property>
    <property name="rotation">00:00:00,000=0</property>
    <property name="compositing">0</property>
    <property name="distort">0</property>
    <property name="kdenlive:collapsed">0</property>
   </filter>
  </entry>
  <blank length="00:00:00,720"/>
  <entry producer="producer12" in="00:00:00,000" out="00:00:00,540">
   <property name="kdenlive:id">17</property>
   <filter id="filter12">
    <property name="rotate_center">1</property>
    <property name="mlt_service">qtblend</property>
    <property name="kdenlive_id">qtblend</property>
    <property name="rect">00:00:00,000=-378 0 2560 1440 0;00:00:00,280~=-378 0 2560 1440 1;00:00:00,540~=-378 0 2560 1440 0</property>
    <property name="rotation">00:00:00,000=0;00:00:00,280~=0;00:00:00,540~=0</property>
    <property name="compositing">0</property>
    <property name="distort">0</property>
    <property name="kdenlive:collapsed">0</property>
   </filter>
  </entry>
  <blank length="00:00:01,160"/>
  <entry producer="producer18" in="00:00:00,000" out="00:00:05,120">
   <property name="kdenlive:id">25</property>
   <filter id="filter13">
    <property name="rotate_center">1</property>
    <property name="mlt_service">qtblend</property>
    <property name="kdenlive_id">qtblend</property>
    <property name="rect">00:00:00,000=0 0 2560 1440 1;00:00:00,200~=-140 -79 2841 1598 1;00:00:04,640~=-281 -158 3123 1756 1;00:00:05,120=465 262 1628 915 1</property>
    <property name="rotation">00:00:00,000=0;00:00:00,200~=0;00:00:04,640~=0;00:00:05,120=0</property>
    <property name="compositing">0</property>
    <property name="distort">0</property>
    <property name="kdenlive:collapsed">0</property>
   </filter>
  </entry>
  <blank length="00:00:00,460"/>
  <entry producer="producer20" in="00:00:00,000" out="00:00:21,100">
   <property name="kdenlive:id">24</property>
   <filter id="filter14">
    <property name="background">colour:0</property>
    <property name="mlt_service">affine</property>
    <property name="kdenlive_id">affinerotate</property>
    <property name="transition.rotate_x">0=0;6~=0;1047~=0;1055~=0</property>
    <property name="transition.rotate_y">0=-90;6~=0;1047~=0;1055~=90</property>
    <property name="transition.rotate_z">0=0;6~=0;1047~=0;1055~=0</property>
    <property name="transition.ox">0=0;6~=0;1047~=0;1055~=0</property>
    <property name="transition.oy">0=0;6~=0;1047~=0;1055~=0</property>
    <property name="producer.resource">0x00000000</property>
    <property name="transition.keyed">1</property>
    <property name="transition.always_active">1</property>
    <property name="kdenlive:collapsed">0</property>
   </filter>
   <filter id="filter15">
    <property name="rotate_center">1</property>
    <property name="mlt_service">qtblend</property>
    <property name="kdenlive_id">qtblend</property>
    <property name="rect">00:00:00,000=0 -103 2560 1440 1</property>
    <property name="rotation">00:00:00,000=0</property>
    <property name="compositing">0</property>
    <property name="distort">0</property>
    <property name="kdenlive:collapsed">0</property>
   </filter>
  </entry>
  <blank length="00:00:00,740"/>
  <entry producer="producer31" in="00:00:00,000" out="00:00:07,940">
   <property name="kdenlive:id">57</property>
   <filter id="filter16">
    <property name="background">colour:0</property>
    <property name="mlt_service">affine</property>
    <property name="kdenlive_id">affinerotate</property>
    <property name="transition.rotate_x">0=0;10~=0;389~=0;397~=0</property>
    <property name="transition.rotate_y">0=-90;10~=0;389~=0;397~=90</property>
    <property name="transition.rotate_z">0=0;10~=0;389~=0;397~=0</property>
    <property name="transition.ox">0=0;10~=0;389~=0;397~=0</property>
    <property name="transition.oy">0=0;10~=0;389~=0;397~=0</property>
    <property name="producer.resource">0x00000000</property>
    <property name="transition.keyed">1</property>
    <property name="transition.always_active">1</property>
    <property name="kdenlive:collapsed">0</property>
   </filter>
   <filter id="filter17">
    <property name="rotate_center">1</property>
    <property name="mlt_service">qtblend</property>
    <property name="kdenlive_id">qtblend</property>
    <property name="rect">00:00:00,000=424 -152 2560 1440 1;00:00:00,640~=424 -152 2560 1440 1;00:00:01,120~=-247 -152 2560 1440 1</property>
    <property name="rotation">00:00:00,000=0;00:00:00,640~=0;00:00:01,120~=0</property>
    <property name="compositing">0</property>
    <property name="distort">0</property>
    <property name="kdenlive:collapsed">0</property>
   </filter>
  </entry>
  <blank length="00:00:01,040"/>
  <entry producer="producer44" in="00:00:00,000" out="00:00:07,400">
   <property name="kdenlive:id">61</property>
   <filter id="filter18">
    <property name="background">colour:0</property>
    <property name="mlt_service">affine</property>
    <property name="kdenlive_id">affinerotate</property>
    <property name="transition.rotate_x">0=0;10~=0;353~=0;370~=0</property>
    <property name="transition.rotate_y">0=-90;10~=0;353~=0;370~=90</property>
    <property name="transition.rotate_z">0=0;10~=0;353~=0;370~=0</property>
    <property name="transition.ox">0=0;10~=0;353~=0;370~=0</property>
    <property name="transition.oy">0=0;10~=0;353~=0;370~=0</property>
    <property name="producer.resource">0x00000000</property>
    <property name="transition.keyed">1</property>
    <property name="transition.always_active">1</property>
    <property name="kdenlive:collapsed">0</property>
   </filter>
   <filter id="filter19">
    <property name="rotate_center">1</property>
    <property name="mlt_service">qtblend</property>
    <property name="kdenlive_id">qtblend</property>
    <property name="rect">00:00:00,000=424 -279 2560 1440 1;00:00:01,120~=424 -279 2560 1440 1;00:00:01,680~=-247 -221 2380 1339 1</property>
    <property name="rotation">00:00:00,000=0;00:00:01,120~=0;00:00:01,680~=0</property>
    <property name="compositing">0</property>
    <property name="distort">0</property>
    <property name="kdenlive:collapsed">0</property>
   </filter>
  </entry>
  <blank length="00:00:00,600"/>
  <entry producer="producer45" in="00:00:00,000" out="00:00:06,140">
   <property name="kdenlive:id">64</property>
   <property name="kdenlive:activeeffect">0</property>
   <filter id="filter20">
    <property name="background">colour:0</property>
    <property name="mlt_service">affine</property>
    <property name="kdenlive_id">affinerotate</property>
    <property name="transition.rotate_x">0=0;10~=0;284~=0;307~=0</property>
    <property name="transition.rotate_y">0=-90;10~=0;284~=0;307~=90</property>
    <property name="transition.rotate_z">0=0;10~=0;284~=0;307~=0</property>
    <property name="transition.ox">0=0;10~=0;284~=0;307~=0</property>
    <property name="transition.oy">0=0;10~=0;284~=0;307~=0</property>
    <property name="producer.resource">0x00000000</property>
    <property name="transition.keyed">1</property>
    <property name="transition.always_active">1</property>
    <property name="kdenlive:collapsed">0</property>
   </filter>
   <filter id="filter21">
    <property name="rotate_center">1</property>
    <property name="mlt_service">qtblend</property>
    <property name="kdenlive_id">qtblend</property>
    <property name="rect">00:00:00,000=365 -299 2560 1440 1;00:00:00,520~=365 -299 2560 1440 1;00:00:00,880~=-247 -299 2560 1440 1</property>
    <property name="rotation">00:00:00,000=0;00:00:00,520~=0;00:00:00,880~=0</property>
    <property name="compositing">0</property>
    <property name="distort">0</property>
    <property name="kdenlive:collapsed">0</property>
   </filter>
  </entry>
  <blank length="00:00:00,360"/>
  <entry producer="producer50" in="00:00:00,000" out="00:00:01,700">
   <property name="kdenlive:id">67</property>
   <filter id="filter22">
    <property name="background">colour:0</property>
    <property name="mlt_service">affine</property>
    <property name="kdenlive_id">affinerotate</property>
    <property name="transition.rotate_x">0=0;17~=0;70~=0;85=0</property>
    <property name="transition.rotate_y">0=-90;17~=0;70~=0;85=86,6821</property>
    <property name="transition.rotate_z">0=0;17~=0;70~=0;85=0</property>
    <property name="transition.ox">0=0;17~=0;70~=0;85=0</property>
    <property name="transition.oy">0=0;17~=0;70~=0;85=0</property>
    <property name="producer.resource">0x00000000</property>
    <property name="transition.keyed">1</property>
    <property name="transition.always_active">1</property>
    <property name="kdenlive:collapsed">0</property>
   </filter>
   <filter id="filter23">
    <property name="rotate_center">1</property>
    <property name="mlt_service">qtblend</property>
    <property name="kdenlive_id">qtblend</property>
    <property name="rect">00:00:00,000=-191 -103 2560 1440 1</property>
    <property name="rotation">00:00:00,000=0</property>
    <property name="compositing">0</property>
    <property name="distort">0</property>
    <property name="kdenlive:collapsed">0</property>
   </filter>
  </entry>
  <blank length="00:00:00,360"/>
  <entry producer="producer12" in="00:00:00,000" out="00:00:00,540">
   <property name="kdenlive:id">17</property>
   <filter id="filter24">
    <property name="rotate_center">1</property>
    <property name="mlt_service">qtblend</property>
    <property name="kdenlive_id">qtblend</property>
    <property name="rect">00:00:00,000=-378 0 2560 1440 0;00:00:00,280~=-378 0 2560 1440 1;00:00:00,540~=-378 0 2560 1440 0</property>
    <property name="rotation">00:00:00,000=0;00:00:00,280~=0;00:00:00,540~=0</property>
    <property name="compositing">0</property>
    <property name="distort">0</property>
    <property name="kdenlive:collapsed">0</property>
   </filter>
  </entry>
  <blank length="00:00:01,240"/>
  <entry producer="producer52" in="00:00:00,000" out="00:00:05,000">
   <property name="kdenlive:id">71</property>
   <filter id="filter25">
    <property name="background">colour:0</property>
    <property name="mlt_service">affine</property>
    <property name="kdenlive_id">affinerotate</property>
    <property name="transition.rotate_x">0=0;25~=0;228~=0;250~=0</property>
    <property name="transition.rotate_y">0=-90;25~=0;228~=0;250~=90</property>
    <property name="transition.rotate_z">0=0;25~=0;228~=0;250~=0</property>
    <property name="transition.ox">0=0;25~=0;228~=0;250~=0</property>
    <property name="transition.oy">0=0;25~=0;228~=0;250~=0</property>
    <property name="producer.resource">0x00000000</property>
    <property name="transition.keyed">1</property>
    <property name="transition.always_active">1</property>
    <property name="kdenlive:collapsed">0</property>
   </filter>
   <filter id="filter26">
    <property name="rotate_center">1</property>
    <property name="mlt_service">qtblend</property>
    <property name="kdenlive_id">qtblend</property>
    <property name="rect">00:00:00,000=0 -82 2560 1440 1;00:00:01,980~=0 -82 2560 1440 1;00:00:02,480~=0 391 2560 1440 1</property>
    <property name="rotation">00:00:00,000=0;00:00:01,980~=0;00:00:02,480~=0</property>
    <property name="compositing">0</property>
    <property name="distort">0</property>
    <property name="kdenlive:collapsed">0</property>
   </filter>
  </entry>
  <blank length="00:00:04,300"/>
  <entry producer="producer62" in="00:00:00,000" out="00:00:03,340">
   <property name="kdenlive:id">76</property>
   <filter id="filter27">
    <property name="rotate_center">1</property>
    <property name="mlt_service">qtblend</property>
    <property name="kdenlive_id">qtblend</property>
    <property name="rect">00:00:00,000=338 82 1868 1051 1</property>
    <property name="rotation">00:00:00,000=0</property>
    <property name="compositing">0</property>
    <property name="distort">0</property>
    <property name="kdenlive:collapsed">0</property>
   </filter>
  </entry>
  <blank length="00:00:00,980"/>
  <entry producer="producer56" in="00:00:00,000" out="00:00:05,800">
   <property name="kdenlive:id">77</property>
   <filter id="filter28">
    <property name="background">colour:0</property>
    <property name="mlt_service">affine</property>
    <property name="kdenlive_id">affinerotate</property>
    <property name="transition.rotate_x">0=0;22~=0;274~=0;290=0</property>
    <property name="transition.rotate_y">0=-90;22~=0;274~=0;290=86,9041</property>
    <property name="transition.rotate_z">0=0;22~=0;274~=0;290=0</property>
    <property name="transition.ox">0=0;22~=0;274~=0;290=0</property>
    <property name="transition.oy">0=0;22~=0;274~=0;290=0</property>
    <property name="producer.resource">0x00000000</property>
    <property name="transition.keyed">1</property>
    <property name="transition.always_active">1</property>
    <property name="kdenlive:collapsed">0</property>
   </filter>
   <filter id="filter29">
    <property name="rotate_center">1</property>
    <property name="mlt_service">qtblend</property>
    <property name="kdenlive_id">qtblend</property>
    <property name="rect">00:00:00,000=0 0 2560 1440 1;00:00:01,860~=0 0 2560 1440 1;00:00:02,440~=0 434 2560 1440 1</property>
    <property name="rotation">00:00:00,000=0;00:00:01,860~=0;00:00:02,440~=0</property>
    <property name="compositing">0</property>
    <property name="distort">0</property>
    <property name="kdenlive:collapsed">0</property>
   </filter>
  </entry>
  <blank length="00:00:00,980"/>
  <entry producer="producer58" in="00:00:00,000" out="00:00:03,020">
   <property name="kdenlive:id">80</property>
  </entry>
  <blank length="00:00:00,480"/>
  <entry producer="producer59" in="00:00:00,000" out="00:00:03,440">
   <property name="kdenlive:id">81</property>
  </entry>
 </playlist>
 <playlist id="playlist7"/>
 <tractor id="tractor3" in="00:00:00,000" out="00:01:37,700">
  <property name="kdenlive:trackheight">60</property>
  <property name="kdenlive:collapsed">0</property>
  <property name="kdenlive:thumbs_format"/>
  <property name="kdenlive:audio_rec"/>
  <property name="kdenlive:timeline_active">1</property>
  <track hide="audio" producer="playlist6"/>
  <track hide="audio" producer="playlist7"/>
 </tractor>
 <producer id="producer63" in="00:00:00,000" out="00:00:09,040">
  <property name="length">453</property>
  <property name="eof">pause</property>
  <property name="resource">3,000000:assets/previews/aufgabeBewerten.mp4</property>
  <property name="aspect_ratio">1</property>
  <property name="meta.media.nb_streams">1</property>
  <property name="meta.media.0.stream.type">video</property>
  <property name="meta.media.0.stream.frame_rate">10</property>
  <property name="meta.media.0.stream.sample_aspect_ratio">0</property>
  <property name="meta.media.0.codec.width">882</property>
  <property name="meta.media.0.codec.height">852</property>
  <property name="meta.media.0.codec.rotate">0</property>
  <property name="meta.media.0.codec.frame_rate">10</property>
  <property name="meta.media.0.codec.pix_fmt">yuv420p</property>
  <property name="meta.media.0.codec.sample_aspect_ratio">0</property>
  <property name="meta.media.0.codec.colorspace">709</property>
  <property name="meta.media.0.codec.name">h264</property>
  <property name="meta.media.0.codec.long_name">H.264 / AVC / MPEG-4 AVC / MPEG-4 part 10</property>
  <property name="meta.media.0.codec.bit_rate">71832</property>
  <property name="meta.attr.0.stream.handler_name.markup">VideoHandler</property>
  <property name="meta.attr.major_brand.markup">isom</property>
  <property name="meta.attr.minor_version.markup">512</property>
  <property name="meta.attr.compatible_brands.markup">isomiso2avc1mp41</property>
  <property name="meta.attr.encoder.markup">Lavf58.29.100</property>
  <property name="seekable">1</property>
  <property name="meta.media.sample_aspect_num">1</property>
  <property name="meta.media.sample_aspect_den">1</property>
  <property name="audio_index">-1</property>
  <property name="video_index">0</property>
  <property name="mute_on_pause">1</property>
  <property name="warp_speed">3</property>
  <property name="warp_resource">assets/previews/aufgabeBewerten.mp4</property>
  <property name="mlt_service">timewarp</property>
  <property name="set.test_audio">1</property>
  <property name="set.test_image">0</property>
  <property name="meta.media.frame_rate_num">10</property>
  <property name="meta.media.frame_rate_den">1</property>
  <property name="meta.media.colorspace">709</property>
  <property name="meta.media.color_trc">2</property>
  <property name="meta.media.width">882</property>
  <property name="meta.media.height">852</property>
  <property name="meta.media.color_range">mpeg</property>
  <property name="meta.media.top_field_first">0</property>
  <property name="meta.media.progressive">1</property>
  <property name="kdenlive:id">59</property>
 </producer>
 <producer id="producer64" in="00:00:00,000" out="00:00:05,420">
  <property name="length">272</property>
  <property name="eof">pause</property>
  <property name="resource">5,000000:assets/previews/aufgabeBewerten.mp4</property>
  <property name="aspect_ratio">1</property>
  <property name="meta.media.nb_streams">1</property>
  <property name="meta.media.0.stream.type">video</property>
  <property name="meta.media.0.stream.frame_rate">10</property>
  <property name="meta.media.0.stream.sample_aspect_ratio">0</property>
  <property name="meta.media.0.codec.width">882</property>
  <property name="meta.media.0.codec.height">852</property>
  <property name="meta.media.0.codec.rotate">0</property>
  <property name="meta.media.0.codec.frame_rate">10</property>
  <property name="meta.media.0.codec.pix_fmt">yuv420p</property>
  <property name="meta.media.0.codec.sample_aspect_ratio">0</property>
  <property name="meta.media.0.codec.colorspace">709</property>
  <property name="meta.media.0.codec.name">h264</property>
  <property name="meta.media.0.codec.long_name">H.264 / AVC / MPEG-4 AVC / MPEG-4 part 10</property>
  <property name="meta.media.0.codec.bit_rate">71832</property>
  <property name="meta.attr.0.stream.handler_name.markup">VideoHandler</property>
  <property name="meta.attr.major_brand.markup">isom</property>
  <property name="meta.attr.minor_version.markup">512</property>
  <property name="meta.attr.compatible_brands.markup">isomiso2avc1mp41</property>
  <property name="meta.attr.encoder.markup">Lavf58.29.100</property>
  <property name="seekable">1</property>
  <property name="meta.media.sample_aspect_num">1</property>
  <property name="meta.media.sample_aspect_den">1</property>
  <property name="audio_index">-1</property>
  <property name="video_index">0</property>
  <property name="mute_on_pause">1</property>
  <property name="warp_speed">5</property>
  <property name="warp_resource">assets/previews/aufgabeBewerten.mp4</property>
  <property name="mlt_service">timewarp</property>
  <property name="set.test_audio">1</property>
  <property name="set.test_image">0</property>
  <property name="meta.media.frame_rate_num">10</property>
  <property name="meta.media.frame_rate_den">1</property>
  <property name="meta.media.colorspace">709</property>
  <property name="meta.media.color_trc">2</property>
  <property name="meta.media.width">882</property>
  <property name="meta.media.height">852</property>
  <property name="meta.media.color_range">mpeg</property>
  <property name="meta.media.top_field_first">0</property>
  <property name="meta.media.progressive">1</property>
  <property name="kdenlive:id">59</property>
 </producer>
 <producer id="producer65" in="00:00:00,000" out="00:00:09,040">
  <property name="length">453</property>
  <property name="eof">pause</property>
  <property name="resource">3,000000:assets/previews/aufgabeBewerten.mp4</property>
  <property name="aspect_ratio">1</property>
  <property name="meta.media.nb_streams">1</property>
  <property name="meta.media.0.stream.type">video</property>
  <property name="meta.media.0.stream.frame_rate">10</property>
  <property name="meta.media.0.stream.sample_aspect_ratio">0</property>
  <property name="meta.media.0.codec.width">882</property>
  <property name="meta.media.0.codec.height">852</property>
  <property name="meta.media.0.codec.rotate">0</property>
  <property name="meta.media.0.codec.frame_rate">10</property>
  <property name="meta.media.0.codec.pix_fmt">yuv420p</property>
  <property name="meta.media.0.codec.sample_aspect_ratio">0</property>
  <property name="meta.media.0.codec.colorspace">709</property>
  <property name="meta.media.0.codec.name">h264</property>
  <property name="meta.media.0.codec.long_name">H.264 / AVC / MPEG-4 AVC / MPEG-4 part 10</property>
  <property name="meta.media.0.codec.bit_rate">71832</property>
  <property name="meta.attr.0.stream.handler_name.markup">VideoHandler</property>
  <property name="meta.attr.major_brand.markup">isom</property>
  <property name="meta.attr.minor_version.markup">512</property>
  <property name="meta.attr.compatible_brands.markup">isomiso2avc1mp41</property>
  <property name="meta.attr.encoder.markup">Lavf58.29.100</property>
  <property name="seekable">1</property>
  <property name="meta.media.sample_aspect_num">1</property>
  <property name="meta.media.sample_aspect_den">1</property>
  <property name="audio_index">-1</property>
  <property name="video_index">0</property>
  <property name="mute_on_pause">1</property>
  <property name="warp_speed">3</property>
  <property name="warp_resource">assets/previews/aufgabeBewerten.mp4</property>
  <property name="mlt_service">timewarp</property>
  <property name="set.test_audio">1</property>
  <property name="set.test_image">0</property>
  <property name="meta.media.frame_rate_num">10</property>
  <property name="meta.media.frame_rate_den">1</property>
  <property name="meta.media.colorspace">709</property>
  <property name="meta.media.color_trc">2</property>
  <property name="meta.media.width">882</property>
  <property name="meta.media.height">852</property>
  <property name="meta.media.color_range">mpeg</property>
  <property name="meta.media.top_field_first">0</property>
  <property name="meta.media.progressive">1</property>
  <property name="kdenlive:id">59</property>
 </producer>
 <producer id="producer66" in="00:00:00,000" out="00:00:05,420">
  <property name="length">272</property>
  <property name="eof">pause</property>
  <property name="resource">5,000000:assets/previews/aufgabeBewerten.mp4</property>
  <property name="aspect_ratio">1</property>
  <property name="meta.media.nb_streams">1</property>
  <property name="meta.media.0.stream.type">video</property>
  <property name="meta.media.0.stream.frame_rate">10</property>
  <property name="meta.media.0.stream.sample_aspect_ratio">0</property>
  <property name="meta.media.0.codec.width">882</property>
  <property name="meta.media.0.codec.height">852</property>
  <property name="meta.media.0.codec.rotate">0</property>
  <property name="meta.media.0.codec.frame_rate">10</property>
  <property name="meta.media.0.codec.pix_fmt">yuv420p</property>
  <property name="meta.media.0.codec.sample_aspect_ratio">0</property>
  <property name="meta.media.0.codec.colorspace">709</property>
  <property name="meta.media.0.codec.name">h264</property>
  <property name="meta.media.0.codec.long_name">H.264 / AVC / MPEG-4 AVC / MPEG-4 part 10</property>
  <property name="meta.media.0.codec.bit_rate">71832</property>
  <property name="meta.attr.0.stream.handler_name.markup">VideoHandler</property>
  <property name="meta.attr.major_brand.markup">isom</property>
  <property name="meta.attr.minor_version.markup">512</property>
  <property name="meta.attr.compatible_brands.markup">isomiso2avc1mp41</property>
  <property name="meta.attr.encoder.markup">Lavf58.29.100</property>
  <property name="seekable">1</property>
  <property name="meta.media.sample_aspect_num">1</property>
  <property name="meta.media.sample_aspect_den">1</property>
  <property name="audio_index">-1</property>
  <property name="video_index">0</property>
  <property name="mute_on_pause">1</property>
  <property name="warp_speed">5</property>
  <property name="warp_resource">assets/previews/aufgabeBewerten.mp4</property>
  <property name="mlt_service">timewarp</property>
  <property name="set.test_audio">1</property>
  <property name="set.test_image">0</property>
  <property name="meta.media.frame_rate_num">10</property>
  <property name="meta.media.frame_rate_den">1</property>
  <property name="meta.media.colorspace">709</property>
  <property name="meta.media.color_trc">2</property>
  <property name="meta.media.width">882</property>
  <property name="meta.media.height">852</property>
  <property name="meta.media.color_range">mpeg</property>
  <property name="meta.media.top_field_first">0</property>
  <property name="meta.media.progressive">1</property>
  <property name="kdenlive:id">59</property>
 </producer>
 <producer id="producer67" in="00:00:00,000" out="00:00:09,040">
  <property name="length">453</property>
  <property name="eof">pause</property>
  <property name="resource">3,000000:assets/previews/aufgabeBewerten.mp4</property>
  <property name="aspect_ratio">1</property>
  <property name="meta.media.nb_streams">1</property>
  <property name="meta.media.0.stream.type">video</property>
  <property name="meta.media.0.stream.frame_rate">10</property>
  <property name="meta.media.0.stream.sample_aspect_ratio">0</property>
  <property name="meta.media.0.codec.width">882</property>
  <property name="meta.media.0.codec.height">852</property>
  <property name="meta.media.0.codec.rotate">0</property>
  <property name="meta.media.0.codec.frame_rate">10</property>
  <property name="meta.media.0.codec.pix_fmt">yuv420p</property>
  <property name="meta.media.0.codec.sample_aspect_ratio">0</property>
  <property name="meta.media.0.codec.colorspace">709</property>
  <property name="meta.media.0.codec.name">h264</property>
  <property name="meta.media.0.codec.long_name">H.264 / AVC / MPEG-4 AVC / MPEG-4 part 10</property>
  <property name="meta.media.0.codec.bit_rate">71832</property>
  <property name="meta.attr.0.stream.handler_name.markup">VideoHandler</property>
  <property name="meta.attr.major_brand.markup">isom</property>
  <property name="meta.attr.minor_version.markup">512</property>
  <property name="meta.attr.compatible_brands.markup">isomiso2avc1mp41</property>
  <property name="meta.attr.encoder.markup">Lavf58.29.100</property>
  <property name="seekable">1</property>
  <property name="meta.media.sample_aspect_num">1</property>
  <property name="meta.media.sample_aspect_den">1</property>
  <property name="audio_index">-1</property>
  <property name="video_index">0</property>
  <property name="mute_on_pause">1</property>
  <property name="warp_speed">3</property>
  <property name="warp_resource">assets/previews/aufgabeBewerten.mp4</property>
  <property name="mlt_service">timewarp</property>
  <property name="set.test_audio">1</property>
  <property name="set.test_image">0</property>
  <property name="meta.media.frame_rate_num">10</property>
  <property name="meta.media.frame_rate_den">1</property>
  <property name="meta.media.colorspace">709</property>
  <property name="meta.media.color_trc">2</property>
  <property name="meta.media.width">882</property>
  <property name="meta.media.height">852</property>
  <property name="meta.media.color_range">mpeg</property>
  <property name="meta.media.top_field_first">0</property>
  <property name="meta.media.progressive">1</property>
  <property name="kdenlive:id">59</property>
 </producer>
 <producer id="producer68" in="00:00:00,000" out="00:00:03,780">
  <property name="length">190</property>
  <property name="eof">pause</property>
  <property name="resource">3,000000:assets/previews/viewGrades.mp4</property>
  <property name="aspect_ratio">1</property>
  <property name="meta.media.nb_streams">1</property>
  <property name="meta.media.0.stream.type">video</property>
  <property name="meta.media.0.stream.frame_rate">10</property>
  <property name="meta.media.0.stream.sample_aspect_ratio">0</property>
  <property name="meta.media.0.codec.width">882</property>
  <property name="meta.media.0.codec.height">852</property>
  <property name="meta.media.0.codec.rotate">0</property>
  <property name="meta.media.0.codec.frame_rate">10</property>
  <property name="meta.media.0.codec.pix_fmt">yuv420p</property>
  <property name="meta.media.0.codec.sample_aspect_ratio">0</property>
  <property name="meta.media.0.codec.colorspace">709</property>
  <property name="meta.media.0.codec.name">h264</property>
  <property name="meta.media.0.codec.long_name">H.264 / AVC / MPEG-4 AVC / MPEG-4 part 10</property>
  <property name="meta.media.0.codec.bit_rate">59752</property>
  <property name="meta.attr.0.stream.handler_name.markup">VideoHandler</property>
  <property name="meta.attr.major_brand.markup">isom</property>
  <property name="meta.attr.minor_version.markup">512</property>
  <property name="meta.attr.compatible_brands.markup">isomiso2avc1mp41</property>
  <property name="meta.attr.encoder.markup">Lavf58.29.100</property>
  <property name="seekable">1</property>
  <property name="meta.media.sample_aspect_num">1</property>
  <property name="meta.media.sample_aspect_den">1</property>
  <property name="audio_index">-1</property>
  <property name="video_index">0</property>
  <property name="mute_on_pause">1</property>
  <property name="warp_speed">3</property>
  <property name="warp_resource">assets/previews/viewGrades.mp4</property>
  <property name="mlt_service">timewarp</property>
  <property name="set.test_audio">1</property>
  <property name="set.test_image">0</property>
  <property name="meta.media.frame_rate_num">10</property>
  <property name="meta.media.frame_rate_den">1</property>
  <property name="meta.media.colorspace">709</property>
  <property name="meta.media.color_trc">2</property>
  <property name="meta.media.width">882</property>
  <property name="meta.media.height">852</property>
  <property name="meta.media.color_range">mpeg</property>
  <property name="meta.media.top_field_first">0</property>
  <property name="meta.media.progressive">1</property>
  <property name="kdenlive:id">62</property>
 </producer>
 <producer id="producer69" in="00:00:00,000" out="00:00:07,580">
  <property name="length">380</property>
  <property name="eof">pause</property>
  <property name="resource">1,500000:assets/previews/viewGrades.mp4</property>
  <property name="aspect_ratio">1</property>
  <property name="meta.media.nb_streams">1</property>
  <property name="meta.media.0.stream.type">video</property>
  <property name="meta.media.0.stream.frame_rate">10</property>
  <property name="meta.media.0.stream.sample_aspect_ratio">0</property>
  <property name="meta.media.0.codec.width">882</property>
  <property name="meta.media.0.codec.height">852</property>
  <property name="meta.media.0.codec.rotate">0</property>
  <property name="meta.media.0.codec.frame_rate">10</property>
  <property name="meta.media.0.codec.pix_fmt">yuv420p</property>
  <property name="meta.media.0.codec.sample_aspect_ratio">0</property>
  <property name="meta.media.0.codec.colorspace">709</property>
  <property name="meta.media.0.codec.name">h264</property>
  <property name="meta.media.0.codec.long_name">H.264 / AVC / MPEG-4 AVC / MPEG-4 part 10</property>
  <property name="meta.media.0.codec.bit_rate">59752</property>
  <property name="meta.attr.0.stream.handler_name.markup">VideoHandler</property>
  <property name="meta.attr.major_brand.markup">isom</property>
  <property name="meta.attr.minor_version.markup">512</property>
  <property name="meta.attr.compatible_brands.markup">isomiso2avc1mp41</property>
  <property name="meta.attr.encoder.markup">Lavf58.29.100</property>
  <property name="seekable">1</property>
  <property name="meta.media.sample_aspect_num">1</property>
  <property name="meta.media.sample_aspect_den">1</property>
  <property name="audio_index">-1</property>
  <property name="video_index">0</property>
  <property name="mute_on_pause">1</property>
  <property name="warp_speed">1,5</property>
  <property name="warp_resource">assets/previews/viewGrades.mp4</property>
  <property name="mlt_service">timewarp</property>
  <property name="set.test_audio">1</property>
  <property name="set.test_image">0</property>
  <property name="meta.media.frame_rate_num">10</property>
  <property name="meta.media.frame_rate_den">1</property>
  <property name="meta.media.colorspace">709</property>
  <property name="meta.media.color_trc">2</property>
  <property name="meta.media.width">882</property>
  <property name="meta.media.height">852</property>
  <property name="meta.media.color_range">mpeg</property>
  <property name="meta.media.top_field_first">0</property>
  <property name="meta.media.progressive">1</property>
  <property name="kdenlive:id">62</property>
 </producer>
 <producer id="producer70" in="00:00:00,000" out="00:00:05,580">
  <property name="length">280</property>
  <property name="eof">pause</property>
  <property name="resource">3,000000:assets/previews/changeUserRole.mp4</property>
  <property name="aspect_ratio">1</property>
  <property name="meta.media.nb_streams">1</property>
  <property name="meta.media.0.stream.type">video</property>
  <property name="meta.media.0.stream.frame_rate">10</property>
  <property name="meta.media.0.stream.sample_aspect_ratio">0</property>
  <property name="meta.media.0.codec.width">1046</property>
  <property name="meta.media.0.codec.height">1012</property>
  <property name="meta.media.0.codec.rotate">0</property>
  <property name="meta.media.0.codec.frame_rate">10</property>
  <property name="meta.media.0.codec.pix_fmt">yuv420p</property>
  <property name="meta.media.0.codec.sample_aspect_ratio">0</property>
  <property name="meta.media.0.codec.colorspace">709</property>
  <property name="meta.media.0.codec.name">h264</property>
  <property name="meta.media.0.codec.long_name">H.264 / AVC / MPEG-4 AVC / MPEG-4 part 10</property>
  <property name="meta.media.0.codec.bit_rate">107901</property>
  <property name="meta.attr.0.stream.handler_name.markup">VideoHandler</property>
  <property name="meta.attr.major_brand.markup">isom</property>
  <property name="meta.attr.minor_version.markup">512</property>
  <property name="meta.attr.compatible_brands.markup">isomiso2avc1mp41</property>
  <property name="meta.attr.encoder.markup">Lavf58.29.100</property>
  <property name="seekable">1</property>
  <property name="meta.media.sample_aspect_num">1</property>
  <property name="meta.media.sample_aspect_den">1</property>
  <property name="audio_index">-1</property>
  <property name="video_index">0</property>
  <property name="mute_on_pause">1</property>
  <property name="warp_speed">3</property>
  <property name="warp_resource">assets/previews/changeUserRole.mp4</property>
  <property name="mlt_service">timewarp</property>
  <property name="set.test_audio">1</property>
  <property name="set.test_image">0</property>
  <property name="meta.media.frame_rate_num">10</property>
  <property name="meta.media.frame_rate_den">1</property>
  <property name="meta.media.colorspace">709</property>
  <property name="meta.media.color_trc">2</property>
  <property name="meta.media.width">1046</property>
  <property name="meta.media.height">1012</property>
  <property name="meta.media.color_range">mpeg</property>
  <property name="meta.media.top_field_first">0</property>
  <property name="meta.media.progressive">1</property>
  <property name="kdenlive:id">65</property>
 </producer>
 <producer id="producer71" in="00:00:00,000" out="00:00:02,180">
  <property name="length">110</property>
  <property name="eof">pause</property>
  <property name="resource">10,000000:assets/previews/LoginReducer.mp4</property>
  <property name="aspect_ratio">1</property>
  <property name="meta.media.nb_streams">1</property>
  <property name="meta.media.0.stream.type">video</property>
  <property name="meta.media.0.stream.frame_rate">10</property>
  <property name="meta.media.0.stream.sample_aspect_ratio">0</property>
  <property name="meta.media.0.codec.width">654</property>
  <property name="meta.media.0.codec.height">922</property>
  <property name="meta.media.0.codec.rotate">0</property>
  <property name="meta.media.0.codec.frame_rate">10</property>
  <property name="meta.media.0.codec.pix_fmt">yuv420p</property>
  <property name="meta.media.0.codec.sample_aspect_ratio">0</property>
  <property name="meta.media.0.codec.colorspace">601</property>
  <property name="meta.media.0.codec.name">h264</property>
  <property name="meta.media.0.codec.long_name">H.264 / AVC / MPEG-4 AVC / MPEG-4 part 10</property>
  <property name="meta.media.0.codec.bit_rate">254158</property>
  <property name="meta.attr.0.stream.handler_name.markup">VideoHandler</property>
  <property name="meta.attr.major_brand.markup">isom</property>
  <property name="meta.attr.minor_version.markup">512</property>
  <property name="meta.attr.compatible_brands.markup">isomiso2avc1mp41</property>
  <property name="meta.attr.encoder.markup">Lavf58.29.100</property>
  <property name="seekable">1</property>
  <property name="meta.media.sample_aspect_num">1</property>
  <property name="meta.media.sample_aspect_den">1</property>
  <property name="audio_index">-1</property>
  <property name="video_index">0</property>
  <property name="mute_on_pause">1</property>
  <property name="warp_speed">10</property>
  <property name="warp_resource">assets/previews/LoginReducer.mp4</property>
  <property name="mlt_service">timewarp</property>
  <property name="set.test_audio">1</property>
  <property name="set.test_image">0</property>
  <property name="meta.media.frame_rate_num">10</property>
  <property name="meta.media.frame_rate_den">1</property>
  <property name="meta.media.colorspace">601</property>
  <property name="meta.media.color_trc">2</property>
  <property name="meta.media.width">654</property>
  <property name="meta.media.height">922</property>
  <property name="meta.media.color_range">mpeg</property>
  <property name="meta.media.top_field_first">0</property>
  <property name="meta.media.progressive">1</property>
  <property name="kdenlive:id">72</property>
 </producer>
 <producer title="Anonymous Submission" id="producer72" in="00:00:00,000" out="00:00:12,340">
  <property name="length">618</property>
  <property name="eof">pause</property>
  <property name="resource">assets/previews/pexels-mikhail-nilov-6963744.mp4</property>
  <property name="audio_index">-1</property>
  <property name="video_index">0</property>
  <property name="mute_on_pause">0</property>
  <property name="mlt_service">avformat-novalidate</property>
  <property name="seekable">1</property>
  <property name="aspect_ratio">1</property>
  <property name="kdenlive:clipname"/>
  <property name="kdenlive:folderid">73</property>
  <property name="kdenlive:id">78</property>
  <property name="kdenlive:file_size">7817990</property>
  <property name="kdenlive:file_hash">13ede75461523aefe885210dec62828e</property>
  <property name="global_feed">1</property>
  <property name="xml">was here</property>
  <property name="meta.media.nb_streams">1</property>
  <property name="meta.media.0.stream.type">video</property>
  <property name="meta.media.0.stream.frame_rate">25</property>
  <property name="meta.media.0.stream.sample_aspect_ratio">0</property>
  <property name="meta.media.0.codec.width">1920</property>
  <property name="meta.media.0.codec.height">1080</property>
  <property name="meta.media.0.codec.rotate">0</property>
  <property name="meta.media.0.codec.frame_rate">25</property>
  <property name="meta.media.0.codec.pix_fmt">yuv420p</property>
  <property name="meta.media.0.codec.sample_aspect_ratio">0</property>
  <property name="meta.media.0.codec.colorspace">709</property>
  <property name="meta.media.0.codec.color_trc">1</property>
  <property name="meta.media.0.codec.name">h264</property>
  <property name="meta.media.0.codec.long_name">H.264 / AVC / MPEG-4 AVC / MPEG-4 part 10</property>
  <property name="meta.media.0.codec.bit_rate">5057004</property>
  <property name="meta.attr.0.stream.creation_time.markup">2021-02-26T10:56:27.000000Z</property>
  <property name="meta.attr.0.stream.handler_name.markup">L-SMASH Video Handler</property>
  <property name="meta.attr.0.stream.encoder.markup">AVC Coding</property>
  <property name="meta.attr.major_brand.markup">mp42</property>
  <property name="meta.attr.minor_version.markup">0</property>
  <property name="meta.attr.compatible_brands.markup">mp42mp41isomavc1</property>
  <property name="meta.attr.creation_time.markup">2021-02-26T10:56:27.000000Z</property>
  <property name="meta.media.sample_aspect_num">1</property>
  <property name="meta.media.sample_aspect_den">1</property>
  <property name="meta.media.frame_rate_num">25</property>
  <property name="meta.media.frame_rate_den">1</property>
  <property name="meta.media.colorspace">709</property>
  <property name="meta.media.color_trc">1</property>
  <property name="meta.media.width">1920</property>
  <property name="meta.media.height">1080</property>
  <property name="meta.media.color_range">mpeg</property>
  <property name="meta.media.top_field_first">0</property>
  <property name="meta.media.progressive">1</property>
  <property name="set.test_audio">1</property>
  <property name="set.test_image">0</property>
 </producer>
 <playlist id="playlist8">
  <blank length="00:00:02,100"/>
  <entry producer="producer4" in="00:00:00,000" out="00:00:06,720">
   <property name="kdenlive:id">6</property>
   <filter id="filter30">
    <property name="background">colour:0</property>
    <property name="mlt_service">affine</property>
    <property name="kdenlive_id">affinerotate</property>
    <property name="transition.rotate_x">0=0;6~=0;329~=0;336~=0</property>
    <property name="transition.rotate_y">0=-90;6~=0;329~=0;336~=90</property>
    <property name="transition.rotate_z">0=0;6~=0;329~=0;336~=0</property>
    <property name="transition.ox">0=0;6~=0;329~=0;336~=0</property>
    <property name="transition.oy">0=0;6~=0;329~=0;336~=0</property>
    <property name="producer.resource">0x00000000</property>
    <property name="transition.keyed">1</property>
    <property name="transition.always_active">1</property>
    <property name="kdenlive:collapsed">0</property>
   </filter>
   <filter id="filter31">
    <property name="rotate_center">1</property>
    <property name="mlt_service">qtblend</property>
    <property name="kdenlive_id">qtblend</property>
    <property name="rect">00:00:00,000=908 -103 2560 1440 1</property>
    <property name="rotation">00:00:00,000=0</property>
    <property name="compositing">0</property>
    <property name="distort">0</property>
    <property name="kdenlive:collapsed">0</property>
   </filter>
  </entry>
  <blank length="00:00:02,540"/>
  <entry producer="producer10" in="00:00:00,000" out="00:00:01,840">
   <property name="kdenlive:id">12</property>
   <filter id="filter32">
    <property name="background">colour:0</property>
    <property name="mlt_service">affine</property>
    <property name="kdenlive_id">affinerotate</property>
    <property name="transition.rotate_x">0=0;9~=0;86~=0;92=0</property>
    <property name="transition.rotate_y">0=-90;9~=0;86~=0;92=81,0787</property>
    <property name="transition.rotate_z">0=0;9~=0;86~=0;92=0</property>
    <property name="transition.ox">0=0;9~=0;86~=0;92=0</property>
    <property name="transition.oy">0=0;9~=0;86~=0;92=0</property>
    <property name="producer.resource">0x00000000</property>
    <property name="transition.keyed">1</property>
    <property name="transition.always_active">1</property>
    <property name="kdenlive:collapsed">0</property>
   </filter>
   <filter id="filter33">
    <property name="rotate_center">1</property>
    <property name="mlt_service">qtblend</property>
    <property name="kdenlive_id">qtblend</property>
    <property name="rect">00:00:00,000=442 -103 2560 1440 1</property>
    <property name="rotation">00:00:00,000=0</property>
    <property name="compositing">0</property>
    <property name="distort">0</property>
    <property name="kdenlive:collapsed">0</property>
   </filter>
  </entry>
  <blank length="00:00:00,620"/>
  <entry producer="producer13" in="00:00:00,000" out="00:00:00,580">
   <property name="kdenlive:id">18</property>
   <filter id="filter34">
    <property name="rotate_center">1</property>
    <property name="mlt_service">qtblend</property>
    <property name="kdenlive_id">qtblend</property>
    <property name="rect">00:00:00,000=-257 0 2560 1440 0;00:00:00,300~=-257 0 2560 1440 1;00:00:00,580~=-257 0 2560 1440 0</property>
    <property name="rotation">00:00:00,000=0;00:00:00,300~=0;00:00:00,580~=0</property>
    <property name="compositing">0</property>
    <property name="distort">0</property>
    <property name="kdenlive:collapsed">0</property>
   </filter>
  </entry>
  <blank length="00:00:03,420"/>
  <entry producer="producer19" in="00:00:00,000" out="00:00:02,640">
   <property name="kdenlive:id">26</property>
   <filter id="filter35">
    <property name="rotate_center">1</property>
    <property name="mlt_service">qtblend</property>
    <property name="kdenlive_id">qtblend</property>
    <property name="rect">00:00:00,000=0 184 2560 1440 1;00:00:00,180~=0 184 2560 1440 1;00:00:02,160~=0 184 2560 1440 1;00:00:02,640~=474 389 1612 907 1</property>
    <property name="rotation">00:00:00,000=0;00:00:00,180~=0;00:00:02,160~=0;00:00:02,640~=0</property>
    <property name="compositing">0</property>
    <property name="distort">0</property>
    <property name="kdenlive:collapsed">0</property>
   </filter>
  </entry>
  <blank length="00:00:01,320"/>
  <entry producer="producer21" in="00:00:00,000" out="00:00:20,240">
   <property name="kdenlive:id">27</property>
   <filter id="filter36">
    <property name="background">colour:0</property>
    <property name="mlt_service">affine</property>
    <property name="kdenlive_id">affinerotate</property>
    <property name="transition.rotate_x">0=0;6~=0;1008~=0;1012~=0</property>
    <property name="transition.rotate_y">0=-90;6~=0;1008~=0;1012~=90</property>
    <property name="transition.rotate_z">0=0;6~=0;1008~=0;1012~=0</property>
    <property name="transition.ox">0=0;6~=0;1008~=0;1012~=0</property>
    <property name="transition.oy">0=0;6~=0;1008~=0;1012~=0</property>
    <property name="producer.resource">0x00000000</property>
    <property name="transition.keyed">1</property>
    <property name="transition.always_active">1</property>
    <property name="kdenlive:collapsed">0</property>
   </filter>
   <filter id="filter37">
    <property name="rotate_center">1</property>
    <property name="mlt_service">qtblend</property>
    <property name="kdenlive_id">qtblend</property>
    <property name="rect">00:00:00,000=586 -103 2560 1440 1</property>
    <property name="rotation">00:00:00,000=0</property>
    <property name="compositing">0</property>
    <property name="distort">0</property>
    <property name="kdenlive:collapsed">0</property>
   </filter>
  </entry>
  <blank length="00:00:02,060"/>
  <entry producer="producer63" in="00:00:00,000" out="00:00:01,500">
   <property name="kdenlive:id">59</property>
   <filter id="filter38">
    <property name="rotate_center">1</property>
    <property name="mlt_service">qtblend</property>
    <property name="kdenlive_id">qtblend</property>
    <property name="rect">00:00:00,000=812 137 2073 1166 1</property>
    <property name="rotation">00:00:00,000=0</property>
    <property name="compositing">0</property>
    <property name="distort">0</property>
    <property name="kdenlive:collapsed">0</property>
   </filter>
  </entry>
  <entry producer="producer64" in="00:00:00,900" out="00:00:02,380">
   <property name="kdenlive:id">59</property>
   <filter id="filter39">
    <property name="rotate_center">1</property>
    <property name="mlt_service">qtblend</property>
    <property name="kdenlive_id">qtblend</property>
    <property name="rect">00:00:00,900=812 137 2073 1166 1</property>
    <property name="rotation">00:00:00,900=0</property>
    <property name="compositing">0</property>
    <property name="distort">0</property>
    <property name="kdenlive:collapsed">0</property>
   </filter>
  </entry>
  <entry producer="producer65" in="00:00:04,020" out="00:00:04,980">
   <property name="kdenlive:id">59</property>
   <filter id="filter40">
    <property name="rotate_center">1</property>
    <property name="mlt_service">qtblend</property>
    <property name="kdenlive_id">qtblend</property>
    <property name="rect">00:00:04,020=812 137 2073 1166 1</property>
    <property name="rotation">00:00:04,020=0</property>
    <property name="compositing">0</property>
    <property name="distort">0</property>
    <property name="kdenlive:collapsed">0</property>
   </filter>
  </entry>
  <entry producer="producer66" in="00:00:03,000" out="00:00:04,400">
   <property name="kdenlive:id">59</property>
   <filter id="filter41">
    <property name="rotate_center">1</property>
    <property name="mlt_service">qtblend</property>
    <property name="kdenlive_id">qtblend</property>
    <property name="rect">00:00:03,000=812 137 2073 1166 1</property>
    <property name="rotation">00:00:03,000=0</property>
    <property name="compositing">0</property>
    <property name="distort">0</property>
    <property name="kdenlive:collapsed">0</property>
   </filter>
  </entry>
  <entry producer="producer67" in="00:00:07,380" out="00:00:08,200">
   <property name="kdenlive:id">59</property>
   <filter id="filter42">
    <property name="rotate_center">1</property>
    <property name="mlt_service">qtblend</property>
    <property name="kdenlive_id">qtblend</property>
    <property name="rect">00:00:07,380=812 137 2073 1166 1</property>
    <property name="rotation">00:00:07,380=0</property>
    <property name="compositing">0</property>
    <property name="distort">0</property>
   </filter>
  </entry>
  <blank length="00:00:03,120"/>
  <entry producer="producer68" in="00:00:00,000" out="00:00:02,020">
   <property name="kdenlive:id">62</property>
   <filter id="filter43">
    <property name="rotate_center">1</property>
    <property name="mlt_service">qtblend</property>
    <property name="kdenlive_id">qtblend</property>
    <property name="rect">00:00:00,000=699 113 2201 1238 1</property>
    <property name="rotation">00:00:00,000=0</property>
    <property name="compositing">0</property>
    <property name="distort">0</property>
    <property name="kdenlive:collapsed">0</property>
   </filter>
  </entry>
  <entry producer="producer69" in="00:00:04,060" out="00:00:07,580">
   <property name="kdenlive:id">62</property>
   <filter id="filter44">
    <property name="rotate_center">1</property>
    <property name="mlt_service">qtblend</property>
    <property name="kdenlive_id">qtblend</property>
    <property name="rect">00:00:04,060=699 113 2201 1238 1</property>
    <property name="rotation">00:00:04,060=0</property>
    <property name="compositing">0</property>
    <property name="distort">0</property>
    <property name="kdenlive:collapsed">0</property>
   </filter>
  </entry>
  <blank length="00:00:01,740"/>
  <entry producer="producer70" in="00:00:00,000" out="00:00:05,000">
   <property name="kdenlive:id">65</property>
   <filter id="filter45">
    <property name="rotate_center">1</property>
    <property name="mlt_service">qtblend</property>
    <property name="kdenlive_id">qtblend</property>
    <property name="rect">00:00:00,000=783 104 2176 1224 1</property>
    <property name="rotation">00:00:00,000=0</property>
    <property name="compositing">0</property>
    <property name="distort">0</property>
    <property name="kdenlive:collapsed">0</property>
   </filter>
  </entry>
  <blank length="00:00:00,860"/>
  <entry producer="producer51" in="00:00:00,000" out="00:00:01,340">
   <property name="kdenlive:id">68</property>
   <filter id="filter46">
    <property name="background">colour:0</property>
    <property name="mlt_service">affine</property>
    <property name="kdenlive_id">affinerotate</property>
    <property name="transition.rotate_x">0=0;17~=0;53~=0;67=0</property>
    <property name="transition.rotate_y">0=-90;17~=0;53~=0;67=81,0787</property>
    <property name="transition.rotate_z">0=0;17~=0;53~=0;67=0</property>
    <property name="transition.ox">0=0;17~=0;53~=0;67=0</property>
    <property name="transition.oy">0=0;17~=0;53~=0;67=0</property>
    <property name="producer.resource">0x00000000</property>
    <property name="transition.keyed">1</property>
    <property name="transition.always_active">1</property>
    <property name="kdenlive:collapsed">0</property>
   </filter>
   <filter id="filter47">
    <property name="rotate_center">1</property>
    <property name="mlt_service">qtblend</property>
    <property name="kdenlive_id">qtblend</property>
    <property name="rect">00:00:00,000=155 -103 2560 1440 1</property>
    <property name="rotation">00:00:00,000=0</property>
    <property name="compositing">0</property>
    <property name="distort">0</property>
    <property name="kdenlive:collapsed">0</property>
   </filter>
  </entry>
  <blank length="00:00:00,540"/>
  <entry producer="producer13" in="00:00:00,000" out="00:00:00,580">
   <property name="kdenlive:id">18</property>
   <filter id="filter48">
    <property name="rotate_center">1</property>
    <property name="mlt_service">qtblend</property>
    <property name="kdenlive_id">qtblend</property>
    <property name="rect">00:00:00,000=-257 0 2560 1440 0;00:00:00,300~=-257 0 2560 1440 1;00:00:00,580~=-257 0 2560 1440 0</property>
    <property name="rotation">00:00:00,000=0;00:00:00,300~=0;00:00:00,580~=0</property>
    <property name="compositing">0</property>
    <property name="distort">0</property>
    <property name="kdenlive:collapsed">0</property>
   </filter>
  </entry>
  <blank length="00:00:03,560"/>
  <entry producer="producer71" in="00:00:00,000" out="00:00:02,180">
   <property name="kdenlive:id">72</property>
   <filter id="filter49">
    <property name="rotate_center">1</property>
    <property name="mlt_service">qtblend</property>
    <property name="kdenlive_id">qtblend</property>
    <property name="rect">00:00:00,000=320 40 1920 1080 1</property>
    <property name="rotation">00:00:00,000=0</property>
    <property name="compositing">0</property>
    <property name="distort">0</property>
    <property name="kdenlive:collapsed">0</property>
   </filter>
  </entry>
  <blank length="00:00:02,100"/>
  <entry producer="producer54" in="00:00:00,000" out="00:00:05,820">
   <property name="kdenlive:id">75</property>
   <property name="kdenlive:activeeffect">0</property>
   <filter id="filter50">
    <property name="background">colour:0</property>
    <property name="mlt_service">affine</property>
    <property name="kdenlive_id">affinerotate</property>
    <property name="transition.rotate_x">0=0;22~=0;274~=0;291~=0</property>
    <property name="transition.rotate_y">0=-90;22~=0;274~=0;291~=90</property>
    <property name="transition.rotate_z">0=0;22~=0;274~=0;291~=0</property>
    <property name="transition.ox">0=0;22~=0;274~=0;291~=0</property>
    <property name="transition.oy">0=0;22~=0;274~=0;291~=0</property>
    <property name="producer.resource">0x00000000</property>
    <property name="transition.keyed">1</property>
    <property name="transition.always_active">1</property>
    <property name="kdenlive:collapsed">0</property>
   </filter>
   <filter id="filter51">
    <property name="rotate_center">1</property>
    <property name="mlt_service">qtblend</property>
    <property name="kdenlive_id">qtblend</property>
    <property name="rect">00:00:00,000=0 -79 2560 1440 1;00:00:01,860~=0 -79 2560 1440 1;00:00:02,440~=0 434 2560 1440 1</property>
    <property name="rotation">00:00:00,000=0;00:00:01,860~=0;00:00:02,440~=0</property>
    <property name="compositing">0</property>
    <property name="distort">0</property>
    <property name="kdenlive:collapsed">0</property>
   </filter>
  </entry>
  <blank length="00:00:03,600"/>
  <entry producer="producer72" in="00:00:00,000" out="00:00:03,180">
   <property name="kdenlive:id">78</property>
   <filter id="filter52">
    <property name="rotate_center">1</property>
    <property name="mlt_service">qtblend</property>
    <property name="kdenlive_id">qtblend</property>
    <property name="rect">00:00:00,000=320 68 1920 1080 1</property>
    <property name="rotation">00:00:00,000=0</property>
    <property name="compositing">0</property>
    <property name="distort">0</property>
    <property name="kdenlive:collapsed">0</property>
   </filter>
  </entry>
 </playlist>
 <playlist id="playlist9"/>
 <tractor id="tractor4" in="00:00:00,000" out="00:01:29,740">
  <property name="kdenlive:trackheight">60</property>
  <property name="kdenlive:collapsed">0</property>
  <property name="kdenlive:thumbs_format"/>
  <property name="kdenlive:audio_rec"/>
  <property name="kdenlive:timeline_active"/>
  <track hide="audio" producer="playlist8"/>
  <track hide="audio" producer="playlist9"/>
 </tractor>
 <playlist id="playlist10">
  <blank length="00:00:02,480"/>
  <entry producer="producer5" in="00:00:00,000" out="00:00:01,220">
   <property name="kdenlive:id">7</property>
   <filter id="filter53">
    <property name="background">colour:0</property>
    <property name="mlt_service">affine</property>
    <property name="kdenlive_id">affinerotate</property>
    <property name="transition.rotate_x">0~=0;7~=0;55~=0;61=0</property>
    <property name="transition.rotate_y">0~=-90;7~=0;55~=0;61=90</property>
    <property name="transition.rotate_z">0~=0;7~=0;55~=0;61=0</property>
    <property name="transition.ox">0~=0;7~=0;55~=0;61=0</property>
    <property name="transition.oy">0~=0;7~=0;55~=0;61=0</property>
    <property name="producer.resource">0x00000000</property>
    <property name="transition.keyed">1</property>
    <property name="transition.always_active">1</property>
    <property name="kdenlive:collapsed">0</property>
   </filter>
   <filter id="filter54">
    <property name="rotate_center">1</property>
    <property name="mlt_service">qtblend</property>
    <property name="kdenlive_id">qtblend</property>
    <property name="rect">00:00:00,000=1191 -103 2560 1440 1</property>
    <property name="rotation">00:00:00,000=0</property>
    <property name="compositing">0</property>
    <property name="distort">0</property>
    <property name="kdenlive:collapsed">0</property>
   </filter>
  </entry>
  <blank length="00:00:00,480"/>
  <entry producer="producer6" in="00:00:00,000" out="00:00:01,200">
   <property name="kdenlive:id">8</property>
   <filter id="filter55">
    <property name="background">colour:0</property>
    <property name="mlt_service">affine</property>
    <property name="kdenlive_id">affinerotate</property>
    <property name="transition.rotate_x">0~=0;7~=0;52~=0;60=0</property>
    <property name="transition.rotate_y">0~=-90;7~=0;52~=0;60=90</property>
    <property name="transition.rotate_z">0~=0;7~=0;52~=0;60=0</property>
    <property name="transition.ox">0~=0;7~=0;52~=0;60=0</property>
    <property name="transition.oy">0~=0;7~=0;52~=0;60=0</property>
    <property name="producer.resource">0x00000000</property>
    <property name="transition.keyed">1</property>
    <property name="transition.always_active">1</property>
    <property name="kdenlive:collapsed">0</property>
   </filter>
   <filter id="filter56">
    <property name="rotate_center">1</property>
    <property name="mlt_service">qtblend</property>
    <property name="kdenlive_id">qtblend</property>
    <property name="rect">00:00:00,000=1191 -103 2560 1440 1</property>
    <property name="rotation">00:00:00,000=0</property>
    <property name="compositing">0</property>
    <property name="distort">0</property>
    <property name="kdenlive:collapsed">0</property>
   </filter>
  </entry>
  <blank length="00:00:00,280"/>
  <entry producer="producer8" in="00:00:00,000" out="00:00:01,220">
   <property name="kdenlive:id">10</property>
   <filter id="filter57">
    <property name="background">colour:0</property>
    <property name="mlt_service">affine</property>
    <property name="kdenlive_id">affinerotate</property>
    <property name="transition.rotate_x">0~=0;7~=0;55~=0;61=0</property>
    <property name="transition.rotate_y">0~=-90;7~=0;55~=0;61=90</property>
    <property name="transition.rotate_z">0~=0;7~=0;55~=0;61=0</property>
    <property name="transition.ox">0~=0;7~=0;55~=0;61=0</property>
    <property name="transition.oy">0~=0;7~=0;55~=0;61=0</property>
    <property name="producer.resource">0x00000000</property>
    <property name="transition.keyed">1</property>
    <property name="transition.always_active">1</property>
    <property name="kdenlive:collapsed">0</property>
   </filter>
   <filter id="filter58">
    <property name="rotate_center">1</property>
    <property name="mlt_service">qtblend</property>
    <property name="kdenlive_id">qtblend</property>
    <property name="rect">00:00:00,000=1191 -103 2560 1440 1</property>
    <property name="rotation">00:00:00,000=0</property>
    <property name="compositing">0</property>
    <property name="distort">0</property>
    <property name="kdenlive:collapsed">0</property>
   </filter>
  </entry>
  <blank length="00:00:00,660"/>
  <entry producer="producer7" in="00:00:00,000" out="00:00:01,220">
   <property name="kdenlive:id">9</property>
   <filter id="filter59">
    <property name="background">colour:0</property>
    <property name="mlt_service">affine</property>
    <property name="kdenlive_id">affinerotate</property>
    <property name="transition.rotate_x">0~=0;8~=0;55~=0;61=0</property>
    <property name="transition.rotate_y">0~=-90;8~=0;55~=0;61=90</property>
    <property name="transition.rotate_z">0~=0;8~=0;55~=0;61=0</property>
    <property name="transition.ox">0~=0;8~=0;55~=0;61=0</property>
    <property name="transition.oy">0~=0;8~=0;55~=0;61=0</property>
    <property name="producer.resource">0x00000000</property>
    <property name="transition.keyed">1</property>
    <property name="transition.always_active">1</property>
    <property name="kdenlive:collapsed">0</property>
   </filter>
   <filter id="filter60">
    <property name="rotate_center">1</property>
    <property name="mlt_service">qtblend</property>
    <property name="kdenlive_id">qtblend</property>
    <property name="rect">00:00:00,000=1191 -103 2560 1440 1</property>
    <property name="rotation">00:00:00,000=0</property>
    <property name="compositing">0</property>
    <property name="distort">0</property>
    <property name="kdenlive:collapsed">0</property>
   </filter>
  </entry>
  <blank length="00:00:03,360"/>
  <entry producer="producer9" in="00:00:00,000" out="00:00:01,180">
   <property name="kdenlive:id">13</property>
   <filter id="filter61">
    <property name="background">colour:0</property>
    <property name="mlt_service">affine</property>
    <property name="kdenlive_id">affinerotate</property>
    <property name="transition.rotate_x">0=0;8~=0;52~=0;59~=0</property>
    <property name="transition.rotate_y">0=-90;8~=0;52~=0;59~=90</property>
    <property name="transition.rotate_z">0=0;8~=0;52~=0;59~=0</property>
    <property name="transition.ox">0=0;8~=0;52~=0;59~=0</property>
    <property name="transition.oy">0=0;8~=0;52~=0;59~=0</property>
    <property name="producer.resource">0x00000000</property>
    <property name="transition.keyed">1</property>
    <property name="transition.always_active">1</property>
    <property name="kdenlive:collapsed">0</property>
   </filter>
   <filter id="filter62">
    <property name="rotate_center">1</property>
    <property name="mlt_service">qtblend</property>
    <property name="kdenlive_id">qtblend</property>
    <property name="rect">00:00:00,000=1248 -103 2560 1440 1</property>
    <property name="rotation">00:00:00,000=0</property>
    <property name="compositing">0</property>
    <property name="distort">0</property>
    <property name="kdenlive:collapsed">0</property>
   </filter>
  </entry>
  <blank length="00:00:00,640"/>
  <entry producer="producer14" in="00:00:00,000" out="00:00:00,600">
   <property name="kdenlive:id">19</property>
   <filter id="filter63">
    <property name="rotate_center">1</property>
    <property name="mlt_service">qtblend</property>
    <property name="kdenlive_id">qtblend</property>
    <property name="rect">00:00:00,000=-160 0 2560 1440 0;00:00:00,300~=-160 0 2560 1440 1;00:00:00,600~=-160 0 2560 1440 0</property>
    <property name="rotation">00:00:00,000=0;00:00:00,300~=0;00:00:00,600~=0</property>
    <property name="compositing">0</property>
    <property name="distort">0</property>
    <property name="kdenlive:collapsed">0</property>
   </filter>
  </entry>
  <blank length="00:00:07,640"/>
  <entry producer="producer22" in="00:00:00,000" out="00:00:02,640">
   <property name="kdenlive:id">29</property>
   <filter id="filter64">
    <property name="background">colour:0</property>
    <property name="mlt_service">affine</property>
    <property name="kdenlive_id">affinerotate</property>
    <property name="transition.rotate_x">0=0;6~=0;132=0</property>
    <property name="transition.rotate_y">0=-90;6~=0;132=0</property>
    <property name="transition.rotate_z">0=0;6~=0;132=0</property>
    <property name="transition.ox">0=0;6~=0;132=0</property>
    <property name="transition.oy">0=0;6~=0;132=0</property>
    <property name="producer.resource">0x00000000</property>
    <property name="transition.keyed">1</property>
    <property name="transition.always_active">1</property>
    <property name="kdenlive:collapsed">0</property>
   </filter>
   <filter id="filter65">
    <property name="rotate_center">1</property>
    <property name="mlt_service">qtblend</property>
    <property name="kdenlive_id">qtblend</property>
    <property name="rect">00:00:00,000=780 -103 2560 1440 1</property>
    <property name="rotation">00:00:00,000=0</property>
    <property name="compositing">0</property>
    <property name="distort">0</property>
    <property name="kdenlive:collapsed">0</property>
   </filter>
  </entry>
  <blank length="00:00:00,680"/>
  <entry producer="producer23" in="00:00:00,000" out="00:00:02,580">
   <property name="kdenlive:id">30</property>
   <filter id="filter66">
    <property name="background">colour:0</property>
    <property name="mlt_service">affine</property>
    <property name="kdenlive_id">affinerotate</property>
    <property name="transition.rotate_x">0=0;6~=0;129=0</property>
    <property name="transition.rotate_y">0=-90;6~=0;129=0</property>
    <property name="transition.rotate_z">0=0;6~=0;129=0</property>
    <property name="transition.ox">0=0;6~=0;129=0</property>
    <property name="transition.oy">0=0;6~=0;129=0</property>
    <property name="producer.resource">0x00000000</property>
    <property name="transition.keyed">1</property>
    <property name="transition.always_active">1</property>
    <property name="kdenlive:collapsed">0</property>
   </filter>
   <filter id="filter67">
    <property name="rotate_center">1</property>
    <property name="mlt_service">qtblend</property>
    <property name="kdenlive_id">qtblend</property>
    <property name="rect">00:00:00,000=780 -103 2560 1440 1</property>
    <property name="rotation">00:00:00,000=0</property>
    <property name="compositing">0</property>
    <property name="distort">0</property>
    <property name="kdenlive:collapsed">0</property>
   </filter>
  </entry>
  <blank length="00:00:00,780"/>
  <entry producer="producer24" in="00:00:00,000" out="00:00:02,680">
   <property name="kdenlive:id">31</property>
   <filter id="filter68">
    <property name="background">colour:0</property>
    <property name="mlt_service">affine</property>
    <property name="kdenlive_id">affinerotate</property>
    <property name="transition.rotate_x">0=0;6~=0;129=0</property>
    <property name="transition.rotate_y">0=-90;6~=0;129=0</property>
    <property name="transition.rotate_z">0=0;6~=0;129=0</property>
    <property name="transition.ox">0=0;6~=0;129=0</property>
    <property name="transition.oy">0=0;6~=0;129=0</property>
    <property name="producer.resource">0x00000000</property>
    <property name="transition.keyed">1</property>
    <property name="transition.always_active">1</property>
    <property name="kdenlive:collapsed">0</property>
   </filter>
   <filter id="filter69">
    <property name="rotate_center">1</property>
    <property name="mlt_service">qtblend</property>
    <property name="kdenlive_id">qtblend</property>
    <property name="rect">00:00:00,000=780 -103 2560 1440 1</property>
    <property name="rotation">00:00:00,000=0</property>
    <property name="compositing">0</property>
    <property name="distort">0</property>
    <property name="kdenlive:collapsed">0</property>
   </filter>
  </entry>
  <blank length="00:00:00,880"/>
  <entry producer="producer26" in="00:00:00,000" out="00:00:02,500">
   <property name="kdenlive:id">33</property>
   <filter id="filter70">
    <property name="background">colour:0</property>
    <property name="mlt_service">affine</property>
    <property name="kdenlive_id">affinerotate</property>
    <property name="transition.rotate_x">0=0;6~=0;129=0</property>
    <property name="transition.rotate_y">0=-90;6~=0;129=0</property>
    <property name="transition.rotate_z">0=0;6~=0;129=0</property>
    <property name="transition.ox">0=0;6~=0;129=0</property>
    <property name="transition.oy">0=0;6~=0;129=0</property>
    <property name="producer.resource">0x00000000</property>
    <property name="transition.keyed">1</property>
    <property name="transition.always_active">1</property>
    <property name="kdenlive:collapsed">0</property>
   </filter>
   <filter id="filter71">
    <property name="rotate_center">1</property>
    <property name="mlt_service">qtblend</property>
    <property name="kdenlive_id">qtblend</property>
    <property name="rect">00:00:00,000=780 -103 2560 1440 1</property>
    <property name="rotation">00:00:00,000=0</property>
    <property name="compositing">0</property>
    <property name="distort">0</property>
    <property name="kdenlive:collapsed">0</property>
   </filter>
  </entry>
  <blank length="00:00:00,860"/>
  <entry producer="producer25" in="00:00:00,000" out="00:00:02,600">
   <property name="kdenlive:id">32</property>
   <filter id="filter72">
    <property name="background">colour:0</property>
    <property name="mlt_service">affine</property>
    <property name="kdenlive_id">affinerotate</property>
    <property name="transition.rotate_x">0=0;6~=0;129=0</property>
    <property name="transition.rotate_y">0=-90;6~=0;129=0</property>
    <property name="transition.rotate_z">0=0;6~=0;129=0</property>
    <property name="transition.ox">0=0;6~=0;129=0</property>
    <property name="transition.oy">0=0;6~=0;129=0</property>
    <property name="producer.resource">0x00000000</property>
    <property name="transition.keyed">1</property>
    <property name="transition.always_active">1</property>
    <property name="kdenlive:collapsed">0</property>
   </filter>
   <filter id="filter73">
    <property name="rotate_center">1</property>
    <property name="mlt_service">qtblend</property>
    <property name="kdenlive_id">qtblend</property>
    <property name="rect">00:00:00,000=780 -103 2560 1440 1</property>
    <property name="rotation">00:00:00,000=0</property>
    <property name="compositing">0</property>
    <property name="distort">0</property>
    <property name="kdenlive:collapsed">0</property>
   </filter>
  </entry>
  <blank length="00:00:00,760"/>
  <entry producer="producer27" in="00:00:00,000" out="00:00:02,740">
   <property name="kdenlive:id">34</property>
   <filter id="filter74">
    <property name="background">colour:0</property>
    <property name="mlt_service">affine</property>
    <property name="kdenlive_id">affinerotate</property>
    <property name="transition.rotate_x">0=0;6~=0;129=0</property>
    <property name="transition.rotate_y">0=-90;6~=0;129=0</property>
    <property name="transition.rotate_z">0=0;6~=0;129=0</property>
    <property name="transition.ox">0=0;6~=0;129=0</property>
    <property name="transition.oy">0=0;6~=0;129=0</property>
    <property name="producer.resource">0x00000000</property>
    <property name="transition.keyed">1</property>
    <property name="transition.always_active">1</property>
    <property name="kdenlive:collapsed">0</property>
   </filter>
   <filter id="filter75">
    <property name="rotate_center">1</property>
    <property name="mlt_service">qtblend</property>
    <property name="kdenlive_id">qtblend</property>
    <property name="rect">00:00:00,000=780 -103 2560 1440 1</property>
    <property name="rotation">00:00:00,000=0</property>
    <property name="compositing">0</property>
    <property name="distort">0</property>
    <property name="kdenlive:collapsed">0</property>
   </filter>
  </entry>
  <blank length="00:00:26,720"/>
  <entry producer="producer14" in="00:00:00,000" out="00:00:00,600">
   <property name="kdenlive:id">19</property>
   <filter id="filter76">
    <property name="rotate_center">1</property>
    <property name="mlt_service">qtblend</property>
    <property name="kdenlive_id">qtblend</property>
    <property name="rect">00:00:00,000=-160 0 2560 1440 0;00:00:00,300~=-160 0 2560 1440 1;00:00:00,600~=-160 0 2560 1440 0</property>
    <property name="rotation">00:00:00,000=0;00:00:00,300~=0;00:00:00,600~=0</property>
    <property name="compositing">0</property>
    <property name="distort">0</property>
    <property name="kdenlive:collapsed">0</property>
   </filter>
  </entry>
 </playlist>
 <playlist id="playlist11"/>
 <tractor id="tractor5" in="00:00:00,000" out="00:01:09,440">
  <property name="kdenlive:trackheight">60</property>
  <property name="kdenlive:collapsed">0</property>
  <property name="kdenlive:thumbs_format"/>
  <property name="kdenlive:audio_rec"/>
  <property name="kdenlive:timeline_active"/>
  <track hide="audio" producer="playlist10"/>
  <track hide="audio" producer="playlist11"/>
 </tractor>
 <playlist id="playlist12">
  <blank length="00:00:14,240"/>
  <entry producer="producer15" in="00:00:00,000" out="00:00:00,700">
   <property name="kdenlive:id">20</property>
   <filter id="filter77">
    <property name="rotate_center">1</property>
    <property name="mlt_service">qtblend</property>
    <property name="kdenlive_id">qtblend</property>
    <property name="rect">00:00:00,000=-34 0 2560 1440 0;00:00:00,340~=-34 0 2560 1440 1;00:00:00,700~=-34 0 2560 1440 0</property>
    <property name="rotation">00:00:00,000=0;00:00:00,340~=0;00:00:00,700~=0</property>
    <property name="compositing">0</property>
    <property name="distort">0</property>
    <property name="kdenlive:collapsed">0</property>
   </filter>
  </entry>
  <blank length="00:00:07,480"/>
  <entry producer="producer43" in="00:00:00,000" out="00:00:02,020">
   <property name="kdenlive:id">55</property>
   <filter id="filter78">
    <property name="rotate_center">1</property>
    <property name="mlt_service">qtblend</property>
    <property name="kdenlive_id">qtblend</property>
    <property name="rect">00:00:00,000=-896 25 896 504 1;00:00:00,700=847 25 896 504 1;00:00:01,580=1274 25 896 504 1;00:00:01,920~=2570 25 896 504 1</property>
    <property name="rotation">00:00:00,000=0;00:00:00,700=0;00:00:01,580=0;00:00:01,920~=0</property>
    <property name="compositing">0</property>
    <property name="distort">0</property>
    <property name="kdenlive:collapsed">0</property>
   </filter>
  </entry>
  <blank length="00:00:01,600"/>
  <entry producer="producer28" in="00:00:00,000" out="00:00:01,920">
   <property name="kdenlive:id">40</property>
   <filter id="filter79">
    <property name="rotate_center">1</property>
    <property name="mlt_service">qtblend</property>
    <property name="kdenlive_id">qtblend</property>
    <property name="rect">00:00:00,000=-896 100 896 504 1;00:00:00,420~=847 100 896 504 1;00:00:01,580~=1274 100 896 504 1;00:00:01,920~=2570 100 896 504 1</property>
    <property name="rotation">00:00:00,000=0;00:00:00,420~=0;00:00:01,580~=0;00:00:01,920~=0</property>
    <property name="compositing">0</property>
    <property name="distort">0</property>
    <property name="kdenlive:collapsed">0</property>
   </filter>
  </entry>
  <blank length="00:00:01,540"/>
  <entry producer="producer47" in="00:00:00,000" out="00:00:02,140">
   <property name="kdenlive:id">43</property>
   <filter id="filter80">
    <property name="rotate_center">1</property>
    <property name="mlt_service">qtblend</property>
    <property name="kdenlive_id">qtblend</property>
    <property name="rect">00:00:00,000=-896 100 896 504 1;00:00:00,240~=-896 100 896 504 1;00:00:00,420~=847 100 896 504 1;00:00:01,420~=1274 100 896 504 1;00:00:02,140~=2570 100 896 504 1</property>
    <property name="rotation">00:00:00,000=0;00:00:00,240~=0;00:00:00,420~=0;00:00:01,420~=0;00:00:02,140~=0</property>
    <property name="compositing">0</property>
    <property name="distort">0</property>
    <property name="kdenlive:collapsed">0</property>
   </filter>
  </entry>
  <blank length="00:00:01,040"/>
  <entry producer="producer34" in="00:00:00,000" out="00:00:02,120">
   <property name="kdenlive:id">46</property>
   <filter id="filter81">
    <property name="rotate_center">1</property>
    <property name="mlt_service">qtblend</property>
    <property name="kdenlive_id">qtblend</property>
    <property name="rect">00:00:00,000=-896 100 896 504 1;00:00:00,420=847 100 896 504 1;00:00:01,580=1274 100 896 504 1;00:00:01,920~=2570 100 896 504 1</property>
    <property name="rotation">00:00:00,000=0;00:00:00,420=0;00:00:01,580=0;00:00:01,920~=0</property>
    <property name="compositing">0</property>
    <property name="distort">0</property>
    <property name="kdenlive:collapsed">0</property>
   </filter>
  </entry>
  <blank length="00:00:01,420"/>
  <entry producer="producer36" in="00:00:00,000" out="00:00:02,020">
   <property name="kdenlive:id">48</property>
   <filter id="filter82">
    <property name="rotate_center">1</property>
    <property name="mlt_service">qtblend</property>
    <property name="kdenlive_id">qtblend</property>
    <property name="rect">00:00:00,000=-896 100 896 504 1;00:00:00,420=847 100 896 504 1;00:00:01,580=1274 100 896 504 1;00:00:01,920~=2570 100 896 504 1</property>
    <property name="rotation">00:00:00,000=0;00:00:00,420=0;00:00:01,580=0;00:00:01,920~=0</property>
    <property name="compositing">0</property>
    <property name="distort">0</property>
    <property name="kdenlive:collapsed">0</property>
   </filter>
  </entry>
  <blank length="00:00:01,300"/>
  <entry producer="producer39" in="00:00:00,000" out="00:00:02,200">
   <property name="kdenlive:id">51</property>
   <filter id="filter83">
    <property name="version">0,1</property>
    <property name="mlt_service">frei0r.scale0tilt</property>
    <property name="kdenlive_id">frei0r.scale0tilt</property>
    <property name="Clip left">00:00:00,000=0</property>
    <property name="Clip right">00:00:00,000=0</property>
    <property name="Clip top">00:00:00,000=0</property>
    <property name="Clip bottom">00:00:00,000=0</property>
    <property name="Scale X">0,5</property>
    <property name="Scale Y">0,5</property>
    <property name="Tilt X">00:00:00,000=0,5</property>
    <property name="Tilt Y">00:00:00,000=0,5</property>
    <property name="kdenlive:collapsed">0</property>
   </filter>
   <filter id="filter84">
    <property name="rotate_center">1</property>
    <property name="mlt_service">qtblend</property>
    <property name="kdenlive_id">qtblend</property>
    <property name="rect">00:00:00,000=-896 100 896 504 1;00:00:00,420=941 100 896 504 1;00:00:01,580=1523 100 896 504 1;00:00:01,920~=2716 100 896 504 1</property>
    <property name="rotation">00:00:00,000=0;00:00:00,420=0;00:00:01,580=0;00:00:01,920~=0</property>
    <property name="compositing">0</property>
    <property name="distort">0</property>
    <property name="kdenlive:collapsed">0</property>
   </filter>
  </entry>
  <blank length="00:00:27,160"/>
  <entry producer="producer15" in="00:00:00,000" out="00:00:00,700">
   <property name="kdenlive:id">20</property>
   <filter id="filter85">
    <property name="rotate_center">1</property>
    <property name="mlt_service">qtblend</property>
    <property name="kdenlive_id">qtblend</property>
    <property name="rect">00:00:00,000=-34 0 2560 1440 0;00:00:00,340~=-34 0 2560 1440 1;00:00:00,700~=-34 0 2560 1440 0</property>
    <property name="rotation">00:00:00,000=0;00:00:00,340~=0;00:00:00,700~=0</property>
    <property name="compositing">0</property>
    <property name="distort">0</property>
    <property name="kdenlive:collapsed">0</property>
   </filter>
  </entry>
 </playlist>
 <playlist id="playlist13"/>
 <tractor id="tractor6" in="00:00:00,000" out="00:01:09,740">
  <property name="kdenlive:trackheight">60</property>
  <property name="kdenlive:collapsed">0</property>
  <property name="kdenlive:thumbs_format"/>
  <property name="kdenlive:audio_rec"/>
  <property name="kdenlive:timeline_active"/>
  <track hide="audio" producer="playlist12"/>
  <track hide="audio" producer="playlist13"/>
 </tractor>
 <playlist id="playlist14">
  <blank length="00:00:14,460"/>
  <entry producer="producer16" in="00:00:00,000" out="00:00:00,620">
   <property name="kdenlive:id">21</property>
   <filter id="filter86">
    <property name="rotate_center">1</property>
    <property name="mlt_service">qtblend</property>
    <property name="kdenlive_id">qtblend</property>
    <property name="rect">00:00:00,000=91 0 2560 1440 0;00:00:00,300~=91 0 2560 1440 1;00:00:00,620~=91 0 2560 1440 0</property>
    <property name="rotation">00:00:00,000=0;00:00:00,300~=0;00:00:00,620~=0</property>
    <property name="compositing">0</property>
    <property name="distort">0</property>
    <property name="kdenlive:collapsed">0</property>
   </filter>
  </entry>
  <blank length="00:00:07,460"/>
  <entry producer="producer43" in="00:00:00,000" out="00:00:02,020">
   <property name="kdenlive:id">55</property>
   <filter id="filter87">
    <property name="rotate_center">1</property>
    <property name="mlt_service">qtblend</property>
    <property name="kdenlive_id">qtblend</property>
    <property name="rect">00:00:00,000=-896 100 896 504 1;00:00:00,580=847 100 896 504 1;00:00:01,440=1274 100 896 504 1;00:00:01,920~=2570 100 896 504 1</property>
    <property name="rotation">00:00:00,000=0;00:00:00,580=0;00:00:01,440=0;00:00:01,920~=0</property>
    <property name="compositing">0</property>
    <property name="distort">0</property>
    <property name="kdenlive:collapsed">0</property>
   </filter>
  </entry>
  <blank length="00:00:01,480"/>
  <entry producer="producer29" in="00:00:00,000" out="00:00:01,920">
   <property name="kdenlive:id">41</property>
   <filter id="filter88">
    <property name="background">colour:0</property>
    <property name="mlt_service">affine</property>
    <property name="kdenlive_id">affinerotate</property>
    <property name="transition.rotate_x">0=-98;36~=-54,4;54~=109,5;64~=90,3;72~=113,4;83~=82,6;89~=121,1</property>
    <property name="transition.rotate_y">0=0;36~=0;54~=0;64~=0;72~=0;83~=0;89~=0</property>
    <property name="transition.rotate_z">0=0;36~=0;54~=0;64~=0;72~=0;83~=0;89~=0</property>
    <property name="transition.ox">0=0;36~=0;54~=0;64~=0;72~=0;83~=0;89~=0</property>
    <property name="transition.oy">0=0;36~=0;54~=0;64~=0;72~=0;83~=0;89~=0</property>
    <property name="producer.resource">0x00000000</property>
    <property name="transition.keyed">1</property>
    <property name="transition.always_active">1</property>
    <property name="kdenlive:collapsed">0</property>
   </filter>
   <filter id="filter89">
    <property name="rotate_center">1</property>
    <property name="mlt_service">qtblend</property>
    <property name="kdenlive_id">qtblend</property>
    <property name="rect">00:00:00,000=-755 252 613 345 1;00:00:00,420~=988 252 614 345 1;00:00:01,580~=1415 252 613 345 1;00:00:01,920~=2711 252 613 345 1</property>
    <property name="rotation">00:00:00,000=0;00:00:00,420~=0;00:00:01,580~=0;00:00:01,920~=0</property>
    <property name="compositing">0</property>
    <property name="distort">0</property>
    <property name="kdenlive:collapsed">0</property>
   </filter>
  </entry>
  <blank length="00:00:01,540"/>
  <entry producer="producer49" in="00:00:00,000" out="00:00:02,140">
   <property name="kdenlive:id">45</property>
   <filter id="filter90">
    <property name="rotate_center">1</property>
    <property name="mlt_service">qtblend</property>
    <property name="kdenlive_id">qtblend</property>
    <property name="rect">00:00:00,000=-896 100 896 504 1;00:00:00,180~=-896 100 896 504 1;00:00:00,420~=847 100 896 504 1;00:00:01,500~=1274 100 896 504 1;00:00:01,980~=2570 100 896 504 1</property>
    <property name="rotation">00:00:00,000=0;00:00:00,180~=0;00:00:00,420~=0;00:00:01,500~=0;00:00:01,980~=0</property>
    <property name="compositing">0</property>
    <property name="distort">0</property>
    <property name="kdenlive:collapsed">0</property>
   </filter>
  </entry>
  <blank length="00:00:01,040"/>
  <entry producer="producer35" in="00:00:00,000" out="00:00:02,100">
   <property name="kdenlive:id">47</property>
   <filter id="filter91">
    <property name="rotate_center">1</property>
    <property name="mlt_service">qtblend</property>
    <property name="kdenlive_id">qtblend</property>
    <property name="rect">00:00:00,000=-896 13 896 504 1;00:00:00,420=847 13 896 504 1;00:00:01,200=1133 13 896 504 1;00:00:01,340=1185 100 896 504 1;00:00:01,580=1274 100 896 504 1;00:00:01,920~=2570 100 896 504 1</property>
    <property name="rotation">00:00:00,000=0;00:00:00,420=0;00:00:01,200=0;00:00:01,340=0;00:00:01,580=0;00:00:01,920~=0</property>
    <property name="compositing">0</property>
    <property name="distort">0</property>
    <property name="kdenlive:collapsed">0</property>
   </filter>
   <filter id="filter92">
    <property name="version">0,1</property>
    <property name="mlt_service">frei0r.mask0mate</property>
    <property name="kdenlive_id">frei0r.mask0mate</property>
    <property name="Left">00:00:00,000=0</property>
    <property name="Right">00:00:00,000=0</property>
    <property name="Top">00:00:00,000=0</property>
    <property name="Bottom">00:00:00,000=0,784</property>
    <property name="Invert">1</property>
    <property name="Blur">00:00:00,000=0</property>
    <property name="kdenlive:collapsed">0</property>
   </filter>
  </entry>
  <blank length="00:00:01,440"/>
  <entry producer="producer38" in="00:00:00,000" out="00:00:02,020">
   <property name="kdenlive:id">50</property>
   <filter id="filter93">
    <property name="background">colour:0</property>
    <property name="mlt_service">affine</property>
    <property name="kdenlive_id">affinerotate</property>
    <property name="transition.rotate_x">0=-90;21=0;39=180;40=-180;80=180;81=-180;99=-90</property>
    <property name="transition.rotate_y">0=0;21=0;39=0;40=0;80=0;81=0;99=0</property>
    <property name="transition.rotate_z">0=0;21=0;39=0;40=0;80=0;81=0;99=0</property>
    <property name="transition.ox">0=0;21=0;39=0;40=0;80=0;81=0;99=0</property>
    <property name="transition.oy">0=0;21=0;39=0;40=0;80=0;81=0;99=0</property>
    <property name="producer.resource">0x00000000</property>
    <property name="transition.keyed">1</property>
    <property name="transition.always_active">1</property>
    <property name="kdenlive:collapsed">0</property>
   </filter>
   <filter id="filter94">
    <property name="rotate_center">1</property>
    <property name="mlt_service">qtblend</property>
    <property name="kdenlive_id">qtblend</property>
    <property name="rect">00:00:00,000=-896 100 896 504 1;00:00:00,420=847 100 896 504 1;00:00:01,580=1274 100 896 504 1;00:00:01,920~=2570 100 896 504 1</property>
    <property name="rotation">00:00:00,000=0;00:00:00,420=0;00:00:01,580=0;00:00:01,920~=0</property>
    <property name="compositing">0</property>
    <property name="distort">0</property>
    <property name="kdenlive:collapsed">0</property>
   </filter>
  </entry>
  <blank length="00:00:01,460"/>
  <entry producer="producer41" in="00:00:00,000" out="00:00:02,040">
   <property name="kdenlive:id">53</property>
   <filter id="filter95">
    <property name="version">0,1</property>
    <property name="mlt_service">frei0r.scale0tilt</property>
    <property name="kdenlive_id">frei0r.scale0tilt</property>
    <property name="Clip left">00:00:00,000=0</property>
    <property name="Clip right">00:00:00,000=0</property>
    <property name="Clip top">00:00:00,000=0</property>
    <property name="Clip bottom">00:00:00,000=0</property>
    <property name="Scale X">0,375</property>
    <property name="Scale Y">0,375</property>
    <property name="Tilt X">00:00:00,000=0,5</property>
    <property name="Tilt Y">00:00:00,000=0,5</property>
    <property name="kdenlive:collapsed">0</property>
   </filter>
   <filter id="filter96">
    <property name="rotate_center">1</property>
    <property name="mlt_service">qtblend</property>
    <property name="kdenlive_id">qtblend</property>
    <property name="rect">00:00:00,000=-896 203 896 504 1;00:00:00,420=647 203 896 504 1;00:00:01,580=1235 203 896 504 1;00:00:01,920~=2570 203 896 504 1</property>
    <property name="rotation">00:00:00,000=0;00:00:00,420=0;00:00:01,580=0;00:00:01,920~=0</property>
    <property name="compositing">0</property>
    <property name="distort">0</property>
    <property name="kdenlive:collapsed">0</property>
   </filter>
  </entry>
  <blank length="00:00:27,380"/>
  <entry producer="producer16" in="00:00:00,000" out="00:00:00,620">
   <property name="kdenlive:id">21</property>
   <filter id="filter97">
    <property name="rotate_center">1</property>
    <property name="mlt_service">qtblend</property>
    <property name="kdenlive_id">qtblend</property>
    <property name="rect">00:00:00,000=91 0 2560 1440 0;00:00:00,300~=91 0 2560 1440 1;00:00:00,620~=91 0 2560 1440 0</property>
    <property name="rotation">00:00:00,000=0;00:00:00,300~=0;00:00:00,620~=0</property>
    <property name="compositing">0</property>
    <property name="distort">0</property>
    <property name="kdenlive:collapsed">0</property>
   </filter>
  </entry>
 </playlist>
 <playlist id="playlist15"/>
 <tractor id="tractor7" in="00:00:00,000" out="00:01:09,880">
  <property name="kdenlive:trackheight">60</property>
  <property name="kdenlive:collapsed">0</property>
  <property name="kdenlive:thumbs_format"/>
  <property name="kdenlive:audio_rec"/>
  <property name="kdenlive:timeline_active"/>
  <track hide="audio" producer="playlist14"/>
  <track hide="audio" producer="playlist15"/>
 </tractor>
 <playlist id="playlist16">
  <blank length="00:00:14,660"/>
  <entry producer="producer17" in="00:00:00,000" out="00:00:00,480">
   <property name="kdenlive:id">22</property>
   <filter id="filter98">
    <property name="rotate_center">1</property>
    <property name="mlt_service">qtblend</property>
    <property name="kdenlive_id">qtblend</property>
    <property name="rect">00:00:00,000=234 0 2560 1440 0;00:00:00,240~=234 0 2560 1440 1;00:00:00,480~=234 0 2560 1440 0</property>
    <property name="rotation">00:00:00,000=0;00:00:00,240~=0;00:00:00,480~=0</property>
    <property name="compositing">0</property>
    <property name="distort">0</property>
    <property name="kdenlive:collapsed">0</property>
   </filter>
  </entry>
  <blank length="00:00:07,560"/>
  <entry producer="producer43" in="00:00:00,000" out="00:00:02,020">
   <property name="kdenlive:id">55</property>
   <filter id="filter99">
    <property name="rotate_center">1</property>
    <property name="mlt_service">qtblend</property>
    <property name="kdenlive_id">qtblend</property>
    <property name="rect">00:00:00,000=-896 175 896 504 1;00:00:00,420=847 175 896 504 1;00:00:01,280=1274 175 896 504 1;00:00:01,920~=2570 175 896 504 1</property>
    <property name="rotation">00:00:00,000=0;00:00:00,420=0;00:00:01,280=0;00:00:01,920~=0</property>
    <property name="compositing">0</property>
    <property name="distort">0</property>
    <property name="kdenlive:collapsed">0</property>
   </filter>
  </entry>
  <blank length="00:00:04,800"/>
  <entry producer="producer48" in="00:00:00,000" out="00:00:02,140">
   <property name="kdenlive:id">44</property>
   <filter id="filter100">
    <property name="rotate_center">1</property>
    <property name="mlt_service">qtblend</property>
    <property name="kdenlive_id">qtblend</property>
    <property name="rect">00:00:00,000=-896 100 896 504 1;00:00:00,100~=-896 100 896 504 1;00:00:00,420~=847 100 896 504 1;00:00:01,520~=1274 100 896 504 1;00:00:01,820~=2570 100 896 504 1</property>
    <property name="rotation">00:00:00,000=0;00:00:00,100~=0;00:00:00,420~=0;00:00:01,520~=0;00:00:01,820~=0</property>
    <property name="compositing">0</property>
    <property name="distort">0</property>
    <property name="kdenlive:collapsed">0</property>
   </filter>
  </entry>
  <blank length="00:00:04,600"/>
  <entry producer="producer37" in="00:00:00,000" out="00:00:02,020">
   <property name="kdenlive:id">49</property>
   <filter id="filter101">
    <property name="background">colour:0</property>
    <property name="mlt_service">affine</property>
    <property name="kdenlive_id">affinerotate</property>
    <property name="transition.rotate_x">0=-10;18~=0;98~=66</property>
    <property name="transition.rotate_y">0=0;18~=0;98~=0</property>
    <property name="transition.rotate_z">0=0;18~=0;98~=0</property>
    <property name="transition.ox">0=0;18~=0;98~=0</property>
    <property name="transition.oy">0=0;18~=0;98~=0</property>
    <property name="producer.resource">0x00000000</property>
    <property name="transition.keyed">1</property>
    <property name="transition.always_active">1</property>
    <property name="kdenlive:collapsed">0</property>
   </filter>
   <filter id="filter102">
    <property name="rotate_center">1</property>
    <property name="mlt_service">qtblend</property>
    <property name="kdenlive_id">qtblend</property>
    <property name="rect">00:00:00,000=-896 100 896 504 1;00:00:00,420=847 100 896 504 1;00:00:01,580=1274 100 896 504 1;00:00:01,920~=2570 100 896 504 1</property>
    <property name="rotation">00:00:00,000=0;00:00:00,420=0;00:00:01,580=0;00:00:01,920~=0</property>
    <property name="compositing">0</property>
    <property name="distort">0</property>
    <property name="kdenlive:collapsed">0</property>
   </filter>
  </entry>
  <blank length="00:00:01,660"/>
  <entry producer="producer40" in="00:00:00,000" out="00:00:02,080">
   <property name="kdenlive:id">52</property>
   <filter id="filter103">
    <property name="version">0,1</property>
    <property name="mlt_service">frei0r.scale0tilt</property>
    <property name="kdenlive_id">frei0r.scale0tilt</property>
    <property name="Clip left">00:00:00,000=0</property>
    <property name="Clip right">00:00:00,000=0</property>
    <property name="Clip top">00:00:00,000=0</property>
    <property name="Clip bottom">00:00:00,000=0</property>
    <property name="Scale X">0,25</property>
    <property name="Scale Y">0,25</property>
    <property name="Tilt X">00:00:00,000=0,5</property>
    <property name="Tilt Y">00:00:00,000=0,5</property>
    <property name="kdenlive:collapsed">0</property>
   </filter>
   <filter id="filter104">
    <property name="rotate_center">1</property>
    <property name="mlt_service">qtblend</property>
    <property name="kdenlive_id">qtblend</property>
    <property name="rect">00:00:00,000=-896 307 896 504 1;00:00:00,420=551 307 896 504 1;00:00:01,580=1140 307 896 504 1;00:00:01,920~=2570 307 896 504 1</property>
    <property name="rotation">00:00:00,000=0;00:00:00,420=0;00:00:01,580=0;00:00:01,920~=0</property>
    <property name="compositing">0</property>
    <property name="distort">0</property>
    <property name="kdenlive:collapsed">0</property>
   </filter>
  </entry>
  <blank length="00:00:27,340"/>
  <entry producer="producer17" in="00:00:00,000" out="00:00:00,480">
   <property name="kdenlive:id">22</property>
   <filter id="filter105">
    <property name="rotate_center">1</property>
    <property name="mlt_service">qtblend</property>
    <property name="kdenlive_id">qtblend</property>
    <property name="rect">00:00:00,000=234 0 2560 1440 0;00:00:00,240~=234 0 2560 1440 1;00:00:00,480~=234 0 2560 1440 0</property>
    <property name="rotation">00:00:00,000=0;00:00:00,240~=0;00:00:00,480~=0</property>
    <property name="compositing">0</property>
    <property name="distort">0</property>
    <property name="kdenlive:collapsed">0</property>
   </filter>
  </entry>
 </playlist>
 <playlist id="playlist17"/>
 <tractor id="tractor8" in="00:00:00,000" out="00:01:09,940">
  <property name="kdenlive:trackheight">60</property>
  <property name="kdenlive:collapsed">0</property>
  <property name="kdenlive:thumbs_format"/>
  <property name="kdenlive:audio_rec"/>
  <property name="kdenlive:timeline_active"/>
  <track hide="audio" producer="playlist16"/>
  <track hide="audio" producer="playlist17"/>
 </tractor>
 <playlist id="playlist18">
  <blank length="00:00:14,880"/>
  <entry producer="producer16" in="00:00:00,000" out="00:00:00,320">
   <property name="kdenlive:id">21</property>
   <filter id="filter106">
    <property name="rotate_center">1</property>
    <property name="mlt_service">qtblend</property>
    <property name="kdenlive_id">qtblend</property>
    <property name="rect">00:00:00,000=389 0 2560 1440 0;00:00:00,160~=389 0 2560 1440 1;00:00:00,320~=389 0 2560 1440 0</property>
    <property name="rotation">00:00:00,000=0;00:00:00,160~=0;00:00:00,320~=0</property>
    <property name="compositing">0</property>
    <property name="distort">0</property>
    <property name="kdenlive:collapsed">0</property>
   </filter>
  </entry>
  <blank length="00:00:07,380"/>
  <entry producer="producer42" in="00:00:00,000" out="00:00:02,020">
   <property name="kdenlive:id">54</property>
   <filter id="filter107">
    <property name="rotate_center">1</property>
    <property name="mlt_service">qtblend</property>
    <property name="kdenlive_id">qtblend</property>
    <property name="rect">00:00:00,000=-896 25 896 504 1;00:00:00,700=909 25 896 504 1;00:00:01,580=1356 25 896 504 1;00:00:01,920~=2570 25 896 504 1</property>
    <property name="rotation">00:00:00,000=0;00:00:00,700=0;00:00:01,580=0;00:00:01,920~=0</property>
    <property name="compositing">0</property>
    <property name="distort">0</property>
    <property name="kdenlive:collapsed">0</property>
   </filter>
  </entry>
  <blank length="00:00:04,920"/>
  <entry producer="producer30" in="00:00:00,000" out="00:00:02,140">
   <property name="kdenlive:id">42</property>
   <filter id="filter108">
    <property name="rotate_center">1</property>
    <property name="mlt_service">qtblend</property>
    <property name="kdenlive_id">qtblend</property>
    <property name="rect">00:00:00,000=-896 100 896 504 1;00:00:00,420~=847 100 896 504 1;00:00:01,580~=1274 100 896 504 1;00:00:01,720~=2570 100 896 504 1</property>
    <property name="rotation">00:00:00,000=0;00:00:00,420~=0;00:00:01,580~=0;00:00:01,720~=0</property>
    <property name="compositing">0</property>
    <property name="distort">0</property>
    <property name="kdenlive:collapsed">0</property>
   </filter>
  </entry>
  <blank length="00:00:37,960"/>
  <entry producer="producer16" in="00:00:00,000" out="00:00:00,320">
   <property name="kdenlive:id">21</property>
   <filter id="filter109">
    <property name="rotate_center">1</property>
    <property name="mlt_service">qtblend</property>
    <property name="kdenlive_id">qtblend</property>
    <property name="rect">00:00:00,000=389 0 2560 1440 0;00:00:00,160~=389 0 2560 1440 1;00:00:00,320~=389 0 2560 1440 0</property>
    <property name="rotation">00:00:00,000=0;00:00:00,160~=0;00:00:00,320~=0</property>
    <property name="compositing">0</property>
    <property name="distort">0</property>
   </filter>
  </entry>
 </playlist>
 <playlist id="playlist19"/>
 <tractor id="tractor9" in="00:00:00,000" out="00:01:10,000">
  <property name="kdenlive:trackheight">60</property>
  <property name="kdenlive:collapsed">0</property>
  <property name="kdenlive:thumbs_format"/>
  <property name="kdenlive:audio_rec"/>
  <property name="kdenlive:timeline_active"/>
  <track hide="audio" producer="playlist18"/>
  <track hide="audio" producer="playlist19"/>
 </tractor>
 <playlist id="playlist20">
  <blank length="00:00:22,720"/>
  <entry producer="producer42" in="00:00:00,000" out="00:00:02,020">
   <property name="kdenlive:id">54</property>
   <filter id="filter110">
    <property name="rotate_center">1</property>
    <property name="mlt_service">qtblend</property>
    <property name="kdenlive_id">qtblend</property>
    <property name="rect">00:00:00,000=-896 100 896 504 1;00:00:00,580=909 100 896 504 1;00:00:01,440=1356 100 896 504 1;00:00:01,920~=2570 100 896 504 1</property>
    <property name="rotation">00:00:00,000=0;00:00:00,580=0;00:00:01,440=0;00:00:01,920~=0</property>
    <property name="compositing">0</property>
    <property name="distort">0</property>
    <property name="kdenlive:collapsed">0</property>
   </filter>
  </entry>
 </playlist>
 <playlist id="playlist21"/>
 <tractor id="tractor10" in="00:00:00,000" out="00:00:24,740">
  <property name="kdenlive:trackheight">60</property>
  <property name="kdenlive:collapsed">0</property>
  <property name="kdenlive:thumbs_format"/>
  <property name="kdenlive:audio_rec"/>
  <property name="kdenlive:timeline_active"/>
  <track hide="audio" producer="playlist20"/>
  <track hide="audio" producer="playlist21"/>
 </tractor>
 <playlist id="playlist22">
  <blank length="00:00:22,880"/>
  <entry producer="producer42" in="00:00:00,000" out="00:00:02,020">
   <property name="kdenlive:id">54</property>
   <filter id="filter111">
    <property name="rotate_center">1</property>
    <property name="mlt_service">qtblend</property>
    <property name="kdenlive_id">qtblend</property>
    <property name="rect">00:00:00,000=-896 175 896 504 1;00:00:00,420=909 175 896 504 1;00:00:01,280=1356 175 896 504 1;00:00:01,920~=2570 175 896 504 1</property>
    <property name="rotation">00:00:00,000=0;00:00:00,420=0;00:00:01,280=0;00:00:01,920~=0</property>
    <property name="compositing">0</property>
    <property name="distort">0</property>
    <property name="kdenlive:collapsed">0</property>
   </filter>
  </entry>
 </playlist>
 <playlist id="playlist23"/>
 <tractor id="tractor11" in="00:00:00,000" out="00:00:24,900">
  <property name="kdenlive:trackheight">60</property>
  <property name="kdenlive:collapsed">0</property>
  <property name="kdenlive:thumbs_format"/>
  <property name="kdenlive:audio_rec"/>
  <property name="kdenlive:timeline_active"/>
  <track hide="audio" producer="playlist22"/>
  <track hide="audio" producer="playlist23"/>
 </tractor>
 <playlist id="timeline_preview"/>
 <tractor title="Anonymous Submission" id="tractor12" global_feed="1" in="00:00:00,000" out="00:11:42,020">
  <track producer="black_track"/>
  <track producer="tractor0"/>
  <track producer="tractor1"/>
  <track producer="tractor2"/>
  <track producer="tractor3"/>
  <track producer="tractor4"/>
  <track producer="tractor5"/>
  <track producer="tractor6"/>
  <track producer="tractor7"/>
  <track producer="tractor8"/>
  <track producer="tractor9"/>
  <track producer="tractor10"/>
  <track producer="tractor11"/>
  <track hide="both" producer="timeline_preview"/>
  <transition id="transition0">
   <property name="a_track">0</property>
   <property name="b_track">1</property>
   <property name="mlt_service">mix</property>
   <property name="kdenlive_id">mix</property>
   <property name="internal_added">237</property>
   <property name="always_active">1</property>
   <property name="sum">1</property>
  </transition>
  <transition id="transition1">
   <property name="a_track">0</property>
   <property name="b_track">2</property>
   <property name="mlt_service">mix</property>
   <property name="kdenlive_id">mix</property>
   <property name="internal_added">237</property>
   <property name="always_active">1</property>
   <property name="sum">1</property>
  </transition>
  <transition id="transition2">
   <property name="a_track">0</property>
   <property name="b_track">3</property>
   <property name="compositing">0</property>
   <property name="distort">0</property>
   <property name="rotate_center">0</property>
   <property name="mlt_service">qtblend</property>
   <property name="kdenlive_id">qtblend</property>
   <property name="internal_added">237</property>
   <property name="always_active">1</property>
  </transition>
  <transition id="transition3">
   <property name="a_track">0</property>
   <property name="b_track">4</property>
   <property name="compositing">0</property>
   <property name="distort">0</property>
   <property name="rotate_center">0</property>
   <property name="mlt_service">qtblend</property>
   <property name="kdenlive_id">qtblend</property>
   <property name="internal_added">237</property>
   <property name="always_active">1</property>
  </transition>
  <transition id="transition4">
   <property name="a_track">0</property>
   <property name="b_track">5</property>
   <property name="compositing">0</property>
   <property name="distort">0</property>
   <property name="rotate_center">0</property>
   <property name="mlt_service">qtblend</property>
   <property name="kdenlive_id">qtblend</property>
   <property name="internal_added">237</property>
   <property name="always_active">1</property>
  </transition>
  <transition id="transition5">
   <property name="a_track">0</property>
   <property name="b_track">6</property>
   <property name="compositing">0</property>
   <property name="distort">0</property>
   <property name="rotate_center">0</property>
   <property name="mlt_service">qtblend</property>
   <property name="kdenlive_id">qtblend</property>
   <property name="internal_added">237</property>
   <property name="always_active">1</property>
  </transition>
  <transition id="transition6">
   <property name="a_track">0</property>
   <property name="b_track">7</property>
   <property name="compositing">0</property>
   <property name="distort">0</property>
   <property name="rotate_center">0</property>
   <property name="mlt_service">qtblend</property>
   <property name="kdenlive_id">qtblend</property>
   <property name="internal_added">237</property>
   <property name="always_active">1</property>
  </transition>
  <transition id="transition7">
   <property name="a_track">0</property>
   <property name="b_track">8</property>
   <property name="compositing">0</property>
   <property name="distort">0</property>
   <property name="rotate_center">0</property>
   <property name="mlt_service">qtblend</property>
   <property name="kdenlive_id">qtblend</property>
   <property name="internal_added">237</property>
   <property name="always_active">1</property>
  </transition>
  <transition id="transition8">
   <property name="a_track">0</property>
   <property name="b_track">9</property>
   <property name="compositing">0</property>
   <property name="distort">0</property>
   <property name="rotate_center">0</property>
   <property name="mlt_service">qtblend</property>
   <property name="kdenlive_id">qtblend</property>
   <property name="internal_added">237</property>
   <property name="always_active">1</property>
  </transition>
  <transition id="transition9">
   <property name="a_track">0</property>
   <property name="b_track">10</property>
   <property name="compositing">0</property>
   <property name="distort">0</property>
   <property name="rotate_center">0</property>
   <property name="mlt_service">qtblend</property>
   <property name="kdenlive_id">qtblend</property>
   <property name="internal_added">237</property>
   <property name="always_active">1</property>
  </transition>
  <transition id="transition10">
   <property name="a_track">0</property>
   <property name="b_track">11</property>
   <property name="compositing">0</property>
   <property name="distort">0</property>
   <property name="rotate_center">0</property>
   <property name="mlt_service">qtblend</property>
   <property name="kdenlive_id">qtblend</property>
   <property name="internal_added">237</property>
   <property name="always_active">1</property>
  </transition>
  <transition id="transition11">
   <property name="a_track">0</property>
   <property name="b_track">12</property>
   <property name="compositing">0</property>
   <property name="distort">0</property>
   <property name="rotate_center">0</property>
   <property name="mlt_service">qtblend</property>
   <property name="kdenlive_id">qtblend</property>
   <property name="internal_added">237</property>
   <property name="always_active">1</property>
  </transition>
  <filter id="filter112">
   <property name="window">75</property>
   <property name="max_gain">20dB</property>
   <property name="mlt_service">volume</property>
   <property name="internal_added">237</property>
   <property name="disable">1</property>
  </filter>
  <filter id="filter113">
   <property name="channel">-1</property>
   <property name="mlt_service">panner</property>
   <property name="internal_added">237</property>
   <property name="start">0,5</property>
   <property name="disable">1</property>
  </filter>
  <filter id="filter114">
   <property name="iec_scale">0</property>
   <property name="mlt_service">audiolevel</property>
  </filter>
 </tractor>
</mlt>
